<svg id="Capa_1" enable-background="new 0 0 511.992 511.992" height="512" viewBox="0 0 511.992 511.992" width="512" xmlns="http://www.w3.org/2000/svg"><g><path d="m45.726 135.706h420.54v364.77h-420.54z" fill="#eaf6ff"/><path d="m466.266 135.706v78.86c-12.43-.6-23.79-5.31-32.77-12.81-9.63 8.04-22.01 12.88-35.5 12.88s-25.87-4.84-35.5-12.87c-9.63 8.03-22.01 12.87-35.5 12.87s-25.87-4.84-35.5-12.88c-9.63 8.04-22.01 12.88-35.5 12.88s-25.87-4.84-35.5-12.88c-9.63 8.04-22.01 12.88-35.5 12.88s-25.87-4.84-35.5-12.88c-9.63 8.04-22.01 12.88-35.5 12.88-10.32 0-19.98-2.84-28.27-7.77v293.62h-40v-354.77h12.77v-10.01z" fill="#d8ecfe"/><path d="m241.631 500.479h-152.921v-260.61c0-3.866 3.134-7 7-7h138.92c3.866 0 7 3.134 7 7v260.61z" fill="#fedba6"/><path d="m128.706 232.873v267.61h-40v-260.61c0-3.866 3.134-7 7-7z" fill="#fece85"/><path d="m203.4 454.749h-76.46c-4.142 0-7.5 3.358-7.5 7.5s3.358 7.5 7.5 7.5h76.46c4.142 0 7.5-3.358 7.5-7.5s-3.358-7.5-7.5-7.5z" fill="#c68d7a"/><g fill="#5f99d7"><g><path d="m313.34 435.634h-30.73v-88.075c0-4.142-3.357-7.5-7.5-7.5s-7.5 3.358-7.5 7.5v152.92c0 4.142 3.357 7.5 7.5 7.5s7.5-3.358 7.5-7.5v-49.845h23.23v49.845c0 4.142 3.357 7.5 7.5 7.5s7.5-3.358 7.5-7.5v-57.345c0-4.142-3.357-7.5-7.5-7.5z"/><path d="m428.031 340.058c-4.143 0-7.5 3.358-7.5 7.5v88.075h-30.73c-4.143 0-7.5 3.358-7.5 7.5v57.345c0 4.142 3.357 7.5 7.5 7.5s7.5-3.358 7.5-7.5v-49.845h23.23v49.845c0 4.142 3.357 7.5 7.5 7.5s7.5-3.358 7.5-7.5v-152.92c0-4.142-3.358-7.5-7.5-7.5z"/><path d="m389.801 412.404c4.143 0 7.5-3.358 7.5-7.5s-3.357-7.5-7.5-7.5h-76.461c-4.143 0-7.5 3.358-7.5 7.5s3.357 7.5 7.5 7.5h30.73v88.075c0 4.142 3.357 7.5 7.5 7.5 4.142 0 7.5-3.358 7.5-7.5v-88.075z"/></g><path d="m113.998 194.638c-19.606 0-35.499-15.894-35.499-35.499v-13.429h70.999v13.428c-.001 19.607-15.894 35.5-35.5 35.5z"/><path d="m255.996 194.638c-19.606 0-35.499-15.894-35.499-35.499v-13.429h70.999v13.428c-.001 19.607-15.895 35.5-35.5 35.5z"/><path d="m397.993 194.638c-19.606 0-35.499-15.894-35.499-35.499v-13.429h70.999v13.428c0 19.607-15.894 35.5-35.5 35.5z"/></g><path d="m42.999 194.638c-19.606 0-35.499-15.894-35.499-35.499v-13.429h70.999v13.428c0 19.607-15.894 35.5-35.5 35.5z" fill="#8ac9fe"/><path d="m184.997 194.638c-19.606 0-35.499-15.894-35.499-35.499v-13.429h70.999v13.428c-.001 19.607-15.894 35.5-35.5 35.5z" fill="#8ac9fe"/><path d="m326.994 194.638c-19.606 0-35.499-15.894-35.499-35.499v-13.429h70.999v13.428c0 19.607-15.894 35.5-35.5 35.5z" fill="#8ac9fe"/><path d="m468.992 194.638c-19.606 0-35.499-15.894-35.499-35.499v-13.429h70.999v13.428c-.001 19.607-15.894 35.5-35.5 35.5z" fill="#8ac9fe"/><g><g><path d="m504.492 507.979h-496.992c-4.142 0-7.5-3.358-7.5-7.5s3.358-7.5 7.5-7.5h496.992c4.143 0 7.5 3.358 7.5 7.5s-3.358 7.5-7.5 7.5z" fill="#8ac9fe"/></g></g><path d="m436.261 4.013h-360.531c-16.569 0-30 13.432-30 30v46.46l15.265 10h390l15.266-10v-46.46c0-16.569-13.431-30-30-30z" fill="#fedba6"/><path d="m466.266 60.473v20h-420.541v-46.46c0-16.57 13.44-30 30-30h21.71c-1.11 3.12-1.71 6.49-1.71 10v39.46c0 3.866 3.134 7 7 7z" fill="#fece85"/><path d="m78.499 145.71h70.998l16.385-65.237h-60.076z" fill="#3c87d0"/><path d="m220.496 145.71h70.999l-5.462-65.237h-60.075z" fill="#3c87d0"/><path d="m362.494 145.71h70.999l-27.308-65.237h-60.076z" fill="#3c87d0"/><path d="m7.5 145.71h70.999l27.307-65.237h-60.076z" fill="#60b7ff"/><path d="m149.497 145.71h70.999l5.462-65.237h-60.076z" fill="#60b7ff"/><path d="m291.495 145.71h70.999l-16.385-65.237h-60.076z" fill="#60b7ff"/><path d="m433.493 145.71h70.998l-38.23-65.237h-60.076z" fill="#60b7ff"/><path d="m426.036 239.873 2 31.23v31.23c0 3.86-3.14 7-7 7h-31.23l-9.06-2h-98.64c-1.72 0-3.29 1.37-4.51.35v-.01c-1.52-1.28-2.49-3.2-2.49-5.34v-62.46c0-3.87 3.14-7 7-7h107.7l31.23 2c3.86 0 5 1.13 5 5z" fill="#8ac9fe"/><path d="m389.806 309.333h-107.7c-1.72 0-3.29-.63-4.51-1.65v-.01l50.977-33.982c2.351-1.567 5.414-1.567 7.765 0z" fill="#ade194"/><path d="m428.036 239.873v31.23c-21.12 0-38.22-17.11-38.23-38.23h31.23c3.86 0 7 3.13 7 7z" fill="#fedba6"/><path d="m126.94 275.111h76.501v152.83h-76.501z" fill="#8ac9fe"/><path d="m126.94 435.531h76.46c4.142 0 7.5-3.358 7.5-7.5v-152.92c0-4.142-3.358-7.5-7.5-7.5h-76.46c-4.142 0-7.5 3.358-7.5 7.5v152.92c0 4.142 3.358 7.5 7.5 7.5zm45.73-152.92h23.23v23.229h-23.23zm0 38.23h23.23v23.23h-23.23zm0 38.23h23.23v21.882h-23.23zm0 36.882h23.23v24.578h-23.23zm-38.23-113.342h23.23v23.229h-23.23zm0 38.23h23.23v23.23h-23.23zm0 38.23h23.23v21.882h-23.23zm0 36.882h23.23v24.578h-23.23z" fill="#c68d7a"/></g></svg>