<svg id="Capa_1" enable-background="new 0 0 512 512" height="512" viewBox="0 0 512 512" width="512" xmlns="http://www.w3.org/2000/svg"><g><g><g><path d="m361.795 134.178v51.415h-60v65.674h-60v65.289h-60v65.991h-60v65.674h-60v49.779h450.205v-363.822z" fill="#b68661"/><path d="m361.795 134.178v51.415h-60v65.674h-45v246.733h255.205v-363.822z" fill="#8e5f4f"/></g><g><g fill="#799af8"><path d="m121.795 453.426h-55c-8.284 0-15-6.716-15-15s6.716-15 15-15h55z"/><path d="m181.795 397.111h-55c-8.284 0-15-6.716-15-15s6.716-15 15-15h55z"/><path d="m241.795 331.506h-55c-8.284 0-15-6.716-15-15s6.716-15 15-15h55z"/></g><path d="m361.795 200.232h-55c-8.284 0-15-6.716-15-15s6.716-15 15-15h55z" fill="#455bf5"/><path d="m512 149.013h-145.205c-8.284 0-15-6.716-15-15s6.716-15 15-15h145.205z" fill="#455bf5"/><g><path d="m301.795 265.546h-55c-8.284 0-15-6.716-15-15s6.716-15 15-15h55z" fill="#799af8"/><path d="m256.795 235.546h45v30h-45z" fill="#455bf5"/></g></g><g><path d="m61.795 455.76v-220.996c0-8.284 6.716-15 15-15s15 6.716 15 15v220.996z" fill="#b68661"/><path d="m121.795 402.903v-208.139c0-8.284 6.716-15 15-15s15 6.716 15 15v208.138h-30z" fill="#b68661"/><path d="m181.795 341.469v-188.661c0-8.284 6.716-15 15-15s15 6.716 15 15v188.661z" fill="#b68661"/><g fill="#8e5f4f"><path d="m301.795 206.955v-142.191c0-8.284 6.716-15 15-15s15 6.716 15 15v142.19h-30z"/><path d="m481.795 14.764h30.205v142.682h-30.205z"/><path d="m421.795 14.764h30v142.682h-30z"/><path d="m361.795 14.764h30v139.826h-30z"/></g><g><path d="m241.795 271.221v-166.457c0-8.284 6.716-15 15-15s15 6.716 15 15v161.027z" fill="#b68661"/><path d="m256.795 89.764v201.569h15v-186.569c0-8.284-6.715-15-15-15z" fill="#8e5f4f"/></g></g><g><path d="m54.606 266.432c-4.615 0-9.169-2.123-12.107-6.13-4.899-6.681-3.455-16.068 3.226-20.967l322.405-236.431c2.572-1.887 5.68-2.904 8.87-2.904h120c8.284 0 15 6.716 15 15s-6.716 15-15 15h-115.09l-318.446 233.527c-2.673 1.96-5.779 2.905-8.858 2.905z" fill="#844d29"/><path d="m497 0h-120c-3.19 0-6.298 1.017-8.87 2.904l-111.335 81.645v37.206l125.115-91.755h115.09c8.284 0 15-6.716 15-15s-6.716-15-15-15z" fill="#633a1e"/></g></g><g><g><path d="m418.855 357.576c3.534-5.139 5.606-11.361 5.606-18.069 0-9.189-3.886-17.466-10.098-23.292 4.313-5.03 6.925-11.562 6.925-18.708 0-8.891-9.01-23.105-16.945-33.898-5.86-7.972-17.778-7.972-23.638 0-7.935 10.793-16.945 25.007-16.945 33.898 0 7.146 2.612 13.678 6.925 18.708-6.212 5.827-10.098 14.103-10.098 23.292 0 6.708 2.072 12.93 5.606 18.069-8.151 7.408-13.165 18.207-12.814 30.168.586 19.951 16.457 36.517 36.37 37.889 22.885 1.577 41.939-16.52 41.939-39.067-.001-11.491-4.95-21.826-12.833-28.99z" fill="#89e4e3"/><path d="m418.855 357.576c3.534-5.139 5.606-11.361 5.606-18.069 0-9.189-3.886-17.466-10.098-23.292 4.313-5.03 6.925-11.562 6.925-18.708 0-8.891-9.01-23.105-16.945-33.898-2.93-3.986-7.374-5.979-11.819-5.979v168.087c21.628-.002 39.163-17.523 39.163-39.151 0-11.491-4.949-21.826-12.832-28.99z" fill="#6bb0b0"/></g><g><path d="m413.612 493h-42.176c-7.54 0-13.908-5.597-14.876-13.075l-6.118-47.272c-1.161-8.974 5.827-16.925 14.876-16.925h54.411c9.049 0 16.037 7.951 14.876 16.925l-6.118 47.272c-.967 7.478-7.335 13.075-14.875 13.075z" fill="#fbf4f4"/><path d="m419.729 415.728h-27.206v77.272h21.088c7.54 0 13.908-5.597 14.876-13.075l6.117-47.272c1.162-8.973-5.826-16.925-14.875-16.925z" fill="#e9e4f0"/></g></g><g><path d="m256.795 512h-241.807c-8.278 0-14.988-6.716-14.988-15s6.71-15 14.988-15h241.807l9.992 16z" fill="#a3bbfa"/><path d="m497.012 482h-240.217v30h240.217c8.278 0 14.988-6.716 14.988-15s-6.71-15-14.988-15z" fill="#799af8"/></g></g></svg>