<svg id="Layer_1" enable-background="new 0 0 256 256" height="512" viewBox="0 0 256 256" width="512" xmlns="http://www.w3.org/2000/svg"><path d="m188.002 248h-160.358c-4.755 0-8.61-3.855-8.61-8.61v-222.78c0-4.755 3.855-8.61 8.61-8.61h160.359c4.755 0 8.61 3.855 8.61 8.61v222.78c-.001 4.755-3.856 8.61-8.611 8.61z" fill="#e0ebfc"/><path d="m188.002 250h-160.358c-5.85 0-10.609-4.76-10.609-10.61v-222.78c-.001-5.85 4.759-10.61 10.609-10.61h160.358c5.851 0 10.61 4.76 10.61 10.61v222.78c0 5.85-4.759 10.61-10.61 10.61zm-160.358-240c-3.645 0-6.609 2.966-6.609 6.61v222.78c0 3.645 2.965 6.61 6.609 6.61h160.358c3.645 0 6.61-2.966 6.61-6.61v-222.78c0-3.645-2.966-6.61-6.61-6.61z" fill="#3762cc"/><g fill="#a4c9ff"><path d="m168.413 174.272h-121.18c-2.67 0-4.834-2.164-4.834-4.834v-.332c0-2.67 2.164-4.834 4.834-4.834h121.18c2.67 0 4.834 2.164 4.834 4.834v.332c0 2.67-2.165 4.834-4.834 4.834z"/><path d="m168.413 198.272h-121.18c-2.67 0-4.834-2.164-4.834-4.834v-.332c0-2.67 2.164-4.834 4.834-4.834h121.18c2.67 0 4.834 2.164 4.834 4.834v.332c0 2.67-2.165 4.834-4.834 4.834z"/><path d="m168.413 222.272h-121.18c-2.67 0-4.834-2.164-4.834-4.834v-.332c0-2.67 2.164-4.834 4.834-4.834h121.18c2.67 0 4.834 2.164 4.834 4.834v.332c0 2.67-2.165 4.834-4.834 4.834z"/><path d="m142.831 107.914v-23.757c0-.051.007-.101.008-.152h-4.087c-3.21 0-5.812 2.602-5.812 5.812v12.593c0 3.21 2.602 5.812 5.812 5.812h4.095c-.005-.102-.016-.204-.016-.308z"/></g><path d="m142.846 110.223h-4.094c-4.308 0-7.813-3.505-7.813-7.813v-12.593c0-4.308 3.505-7.813 7.813-7.813h4.086c.537 0 1.052.216 1.428.6.376.383.582.901.572 1.438-.001.036-.007.142-.009.177l.016 23.927c.021.543-.181 1.071-.559 1.463-.377.392-.896.614-1.44.614zm1.984-2.309h.01zm-6.078-21.909c-2.103 0-3.813 1.71-3.813 3.813v12.593c0 2.103 1.71 3.813 3.813 3.813h2.078v-20.219z" fill="#3762cc"/><path d="m181.081 77.041v18.994 18.995l21.984 15.691v-34.686-34.685z" fill="#e0ebfc"/><path d="m206.859 135.089c-2.096 0-3.794-1.699-3.794-3.794v-70.362c0-2.096 1.699-3.794 3.794-3.794 2.096 0 3.794 1.699 3.794 3.794v70.362c.001 2.095-1.698 3.794-3.794 3.794z" fill="#a4c9ff"/><path d="m203.064 132.721c-.409 0-.816-.125-1.162-.372l-21.983-15.69c-.525-.375-.838-.981-.838-1.628v-37.99c0-.646.313-1.253.838-1.628l21.983-15.691c.611-.435 1.413-.492 2.077-.15.666.343 1.085 1.029 1.085 1.778v69.371c0 .749-.419 1.436-1.085 1.778-.288.148-.602.222-.915.222zm-19.983-18.72 17.983 12.835v-61.602l-17.983 12.836z" fill="#3762cc"/><path d="m206.859 137.089c-3.195 0-5.795-2.6-5.795-5.794v-70.362c0-3.194 2.6-5.794 5.795-5.794 3.194 0 5.794 2.6 5.794 5.794v70.362c0 3.194-2.599 5.794-5.794 5.794zm0-77.95c-.989 0-1.795.805-1.795 1.794v70.362c0 .989.806 1.794 1.795 1.794s1.794-.805 1.794-1.794v-70.362c0-.99-.804-1.794-1.794-1.794z" fill="#3762cc"/><path d="m181.081 115.03v-18.995-18.994h-31.135c-3.93 0-7.116 3.186-7.116 7.116v23.757c0 3.93 3.186 7.116 7.116 7.116z" fill="#4671c6"/><path d="m181.081 117.03h-31.134c-5.026 0-9.116-4.09-9.116-9.116v-23.757c0-5.026 4.09-9.116 9.116-9.116h31.135c.53 0 1.039.211 1.414.586s.586.884.586 1.414l-.001 37.989c0 1.105-.895 2-2 2zm-31.134-37.989c-2.821 0-5.116 2.295-5.116 5.116v23.757c0 2.821 2.295 5.116 5.116 5.116h29.134v-33.989z" fill="#3762cc"/><path d="m154.318 115.03v28.576c0 4.642 3.763 8.406 8.405 8.406h2.642c4.642 0 8.405-3.763 8.405-8.406v-28.576z" fill="#a4c9ff"/><path d="m165.365 154.011h-2.642c-5.737 0-10.405-4.668-10.405-10.405v-28.576c0-1.104.896-2 2-2h19.452c1.104 0 2 .896 2 2v28.575c.001 5.738-4.667 10.406-10.405 10.406zm-9.047-36.981v26.575c0 3.532 2.873 6.405 6.405 6.405h2.642c3.532 0 6.405-2.873 6.405-6.405v-26.575z" fill="#3762cc"/><path d="m112.218 144.591h-63.361c-3.566 0-6.457-2.891-6.457-6.457v-49.46c0-3.566 2.891-6.457 6.457-6.457h63.361c3.566 0 6.457 2.891 6.457 6.457v49.46c0 3.566-2.891 6.457-6.457 6.457z" fill="#6bdddd"/><path d="m50.818 32.317 12.551 18.991v-19.167c0-1.245.267-2.18.802-2.803.534-.622 1.256-.934 2.165-.934.938 0 1.678.311 2.22.934s.813 1.558.813 2.803v25.343c0 2.828-1.172 4.241-3.517 4.241-.586 0-1.114-.084-1.582-.252-.469-.169-.909-.436-1.319-.803-.41-.366-.791-.795-1.143-1.286-.351-.491-.703-.993-1.055-1.506l-12.243-18.77v18.881c0 1.232-.286 2.162-.858 2.792-.571.63-1.304.944-2.198.944-.924 0-1.664-.318-2.22-.956-.557-.637-.835-1.564-.835-2.781v-24.858c0-1.056.117-1.883.351-2.484.279-.66.74-1.198 1.385-1.616.645-.417 1.34-.626 2.088-.626.586 0 1.088.095 1.506.286.417.191.783.447 1.099.769.315.323.637.74.967 1.253s.671 1.048 1.023 1.605z" fill="#4671c6"/><path d="m97.745 33.987h-14.705v7.913h13.54c.996 0 1.74.223 2.231.67s.737 1.036.737 1.769-.242 1.33-.725 1.791-1.231.692-2.242.692h-13.541v9.165h15.21c1.026 0 1.799.239 2.319.714.52.477.78 1.111.78 1.901 0 .762-.26 1.382-.78 1.858-.52.477-1.294.714-2.319.714h-17.737c-1.422 0-2.444-.315-3.066-.945-.623-.63-.934-1.648-.934-3.055v-24.22c0-.938.139-1.704.418-2.297.278-.593.714-1.026 1.308-1.297.593-.271 1.352-.407 2.275-.407h17.232c1.04 0 1.813.231 2.319.693s.758 1.065.758 1.813c0 .762-.252 1.374-.758 1.836-.506.461-1.28.692-2.32.692z" fill="#4671c6"/><path d="m129.353 56.099-5.21-19.321-5.275 19.321c-.41 1.465-.737 2.516-.978 3.154-.241.637-.663 1.209-1.264 1.714-.601.506-1.4.758-2.396.758-.806 0-1.469-.15-1.989-.45-.52-.301-.942-.725-1.264-1.275-.322-.549-.586-1.202-.791-1.956-.205-.755-.388-1.454-.55-2.099l-5.363-21.694c-.323-1.261-.484-2.22-.484-2.88 0-.836.293-1.538.879-2.111.586-.571 1.311-.857 2.176-.857 1.187 0 1.985.381 2.396 1.143.41.762.769 1.868 1.077 3.318l4.22 18.815 4.726-17.606c.351-1.348.667-2.374.945-3.078.278-.703.733-1.311 1.363-1.824s1.487-.769 2.572-.769c1.099 0 1.953.268 2.561.802.608.536 1.029 1.118 1.263 1.748s.55 1.67.945 3.121l4.77 17.606 4.22-18.815c.205-.981.399-1.751.583-2.308.183-.556.498-1.055.945-1.494s1.096-.66 1.946-.66c.849 0 1.571.282 2.165.846.593.564.89 1.271.89 2.121 0 .601-.161 1.561-.483 2.88l-5.363 21.694c-.367 1.465-.67 2.538-.912 3.219-.242.682-.652 1.279-1.231 1.791-.579.513-1.396.769-2.451.769-.996 0-1.795-.249-2.396-.747s-1.019-1.058-1.253-1.681c-.235-.62-.565-1.685-.989-3.195z" fill="#4671c6"/><path d="m173.247 51.505c0 1.949-.502 3.7-1.506 5.253-1.004 1.554-2.473 2.77-4.407 3.649s-4.228 1.318-6.88 1.318c-3.18 0-5.803-.6-7.869-1.802-1.466-.865-2.656-2.019-3.572-3.462s-1.374-2.847-1.374-4.21c0-.791.275-1.469.824-2.033.55-.564 1.249-.846 2.099-.846.688 0 1.271.219 1.747.659s.883 1.092 1.22 1.957c.41 1.026.853 1.883 1.33 2.571.476.69 1.146 1.257 2.011 1.704.864.447 2 .67 3.407.67 1.935 0 3.506-.45 4.715-1.352 1.209-.901 1.813-2.026 1.813-3.374 0-1.069-.326-1.937-.978-2.604s-1.495-1.176-2.527-1.528c-1.033-.352-2.415-.725-4.143-1.121-2.316-.542-4.253-1.176-5.814-1.901-1.561-.726-2.799-1.714-3.714-2.967-.916-1.253-1.374-2.81-1.374-4.671 0-1.773.484-3.348 1.451-4.725.967-1.378 2.366-2.437 4.198-3.177 1.832-.739 3.985-1.11 6.462-1.11 1.978 0 3.689.246 5.132.737s2.641 1.142 3.594 1.956c.953.813 1.649 1.668 2.088 2.561.439.894.659 1.767.659 2.616 0 .776-.275 1.476-.824 2.099-.55.622-1.235.934-2.055.934-.747 0-1.315-.187-1.703-.561-.389-.373-.81-.985-1.264-1.836-.586-1.216-1.29-2.164-2.11-2.846-.821-.681-2.14-1.022-3.956-1.022-1.685 0-3.044.37-4.077 1.111s-1.55 1.63-1.55 2.67c0 .645.176 1.202.527 1.67.352.47.835.873 1.451 1.21.615.337 1.238.6 1.868.791.63.19 1.67.469 3.121.835 1.817.425 3.462.894 4.934 1.407 1.473.513 2.726 1.136 3.759 1.868 1.033.733 1.839 1.66 2.418 2.781s.869 2.494.869 4.121z" fill="#4671c6"/><path d="m237.394 100.249h-14.045c-1.939 0-3.511-1.572-3.511-3.511 0-1.939 1.572-3.511 3.511-3.511h14.045c1.939 0 3.511 1.572 3.511 3.511.001 1.939-1.571 3.511-3.511 3.511z" fill="#f9a7a7"/><path d="m237.82 64.103-9.932 9.932c-1.371 1.371-3.594 1.371-4.966 0-1.371-1.371-1.371-3.594 0-4.966l9.932-9.932c1.371-1.371 3.594-1.371 4.966 0 1.372 1.372 1.372 3.595 0 4.966z" fill="#f9a7a7"/><path d="m222.923 123.002 9.932 9.932c1.371 1.371 3.594 1.371 4.966 0 1.371-1.371 1.371-3.594 0-4.966l-9.932-9.932c-1.371-1.371-3.594-1.371-4.966 0-1.371 1.371-1.371 3.595 0 4.966z" fill="#f9a7a7"/></svg>