<?xml version="1.0" encoding="UTF-8" ?>
<!DOCTYPE svg PUBLIC "-//W3C//DTD SVG 1.1//EN" "http://www.w3.org/Graphics/SVG/1.1/DTD/svg11.dtd">
<svg width="1002pt" height="403pt" viewBox="0 0 1002 403" version="1.1" xmlns="http://www.w3.org/2000/svg">
<g id="#e1e1e1e1">
<path fill="#e1e1e1" opacity="0.88" d=" M 0.00 0.00 L 1002.00 0.00 L 1002.00 403.00 L 0.00 403.00 L 0.00 0.00 M 1.34 1.14 C 0.27 4.37 0.85 7.71 1.02 11.01 C 0.96 138.33 1.04 265.65 0.98 392.97 C 0.68 395.94 0.42 398.95 1.34 401.86 C 135.22 402.11 269.12 401.89 403.01 401.97 C 513.68 401.97 624.35 401.97 735.02 401.97 C 823.57 401.89 912.12 402.13 1000.66 401.85 C 1002.08 397.31 1000.57 392.63 1000.98 388.00 C 1001.03 262.01 1000.96 136.01 1001.02 10.02 C 1001.32 7.05 1001.57 4.04 1000.66 1.14 C 969.10 0.89 937.54 1.11 905.97 1.03 C 792.32 1.03 678.67 1.03 565.02 1.03 C 377.13 1.10 189.23 0.89 1.34 1.14 Z" />
</g>
<g id="#ffffffff">
</g>
<g id="#ff80abff">
<path fill="#ff80ab" opacity="1.00" d=" M 270.31 20.97 C 291.61 21.22 312.92 20.89 334.23 21.14 C 334.09 21.33 333.81 21.72 333.68 21.91 C 330.43 23.42 328.28 26.38 325.76 28.80 C 316.50 38.01 307.32 47.31 298.01 56.47 C 288.93 44.61 279.83 32.77 270.46 21.15 L 270.31 20.97 Z" />
</g>
<g id="#d81b60ff">
<path fill="#d81b60" opacity="1.00" d=" M 235.28 56.54 C 246.82 44.57 258.82 33.03 270.46 21.15 C 279.83 32.77 288.93 44.61 298.01 56.47 C 312.00 87.43 325.65 118.57 339.52 149.59 C 341.28 153.75 343.18 157.85 345.25 161.87 L 345.64 162.99 C 310.01 147.14 274.36 131.33 238.74 115.49 C 227.06 106.32 215.49 96.99 203.48 88.26 C 213.76 77.80 224.14 67.44 234.60 57.16 C 235.96 62.33 235.78 67.72 236.22 73.00 C 237.24 87.11 238.02 101.23 239.11 115.33 C 254.08 100.92 268.55 85.98 283.33 71.37 C 288.07 66.49 293.15 61.94 297.58 56.76 C 276.82 56.36 256.04 56.79 235.28 56.54 Z" />
</g>
<g id="#ff4081ff">
<path fill="#ff4081" opacity="1.00" d=" M 325.76 28.80 C 328.28 26.38 330.43 23.42 333.68 21.91 C 337.52 68.56 341.61 115.21 345.25 161.87 C 343.18 157.85 341.28 153.75 339.52 149.59 C 325.65 118.57 312.00 87.43 298.01 56.47 C 307.32 47.31 316.50 38.01 325.76 28.80 Z" />
<path fill="#ff4081" opacity="1.00" d=" M 234.48 56.65 C 234.68 56.62 235.08 56.57 235.28 56.54 C 256.04 56.79 276.82 56.36 297.58 56.76 C 293.15 61.94 288.07 66.49 283.33 71.37 C 268.55 85.98 254.08 100.92 239.11 115.33 C 238.02 101.23 237.24 87.11 236.22 73.00 C 235.78 67.72 235.96 62.33 234.60 57.16 L 234.48 56.65 Z" />
</g>
<g id="#ad1457ff">
<path fill="#ad1457" opacity="1.00" d=" M 203.48 88.26 C 215.49 96.99 227.06 106.32 238.74 115.49 C 236.23 118.38 233.59 121.14 230.84 123.80 C 221.78 132.69 213.04 141.91 203.75 150.57 C 203.25 129.81 203.78 109.03 203.48 88.26 Z" />
</g>
<g id="#880e4fff">
<path fill="#880e4f" opacity="1.00" d=" M 238.74 115.49 C 274.36 131.33 310.01 147.14 345.64 162.99 C 298.21 158.82 250.75 155.11 203.32 151.01 L 203.75 150.57 C 213.04 141.91 221.78 132.69 230.84 123.80 C 233.59 121.14 236.23 118.38 238.74 115.49 Z" />
</g>
<g id="#0089ffff">
<path fill="#0089ff" opacity="1.00" d=" M 373.41 136.93 C 386.84 136.90 400.26 136.91 413.68 136.92 C 413.69 158.04 413.68 179.16 413.69 200.29 C 420.70 194.50 428.24 189.09 436.80 185.86 C 447.44 182.36 459.35 182.27 469.90 186.17 C 479.89 189.93 487.53 198.26 492.17 207.70 C 498.75 221.07 500.53 236.25 500.32 250.99 C 500.36 266.18 496.99 281.79 488.49 294.57 C 481.33 305.33 470.67 314.30 457.88 317.29 C 442.94 320.84 426.90 317.79 413.86 309.84 C 413.18 311.93 412.57 314.05 412.04 316.18 C 399.18 316.21 386.33 316.15 373.47 316.21 C 373.33 256.45 373.45 196.69 373.41 136.93 M 413.68 221.75 C 413.69 243.29 413.70 264.83 413.68 286.37 C 420.44 289.01 427.90 289.64 435.08 288.82 C 441.77 288.07 448.26 284.64 452.12 279.03 C 457.17 271.76 458.59 262.67 458.90 254.01 C 459.05 244.87 458.85 235.37 455.21 226.83 C 452.90 221.33 447.97 217.03 442.15 215.66 C 432.34 213.22 421.91 216.22 413.68 221.75 Z" />
<path fill="#0089ff" opacity="1.00" d=" M 53.82 144.70 C 78.22 144.70 102.62 144.67 127.02 144.71 C 139.10 145.06 151.70 145.73 162.67 151.33 C 174.36 157.10 184.06 167.94 186.24 181.06 C 187.95 191.15 187.38 201.70 184.41 211.51 C 179.94 225.94 167.87 236.71 154.71 243.34 C 173.91 267.63 193.13 291.90 212.33 316.18 C 194.83 316.20 177.32 316.18 159.82 316.19 C 143.78 295.26 128.00 274.13 111.88 253.27 C 106.82 253.35 101.76 253.29 96.70 253.31 C 96.67 274.27 96.70 295.23 96.69 316.19 C 82.40 316.19 68.11 316.20 53.82 316.18 C 53.81 259.02 53.81 201.86 53.82 144.70 M 96.70 176.19 C 96.68 191.59 96.68 207.00 96.69 222.40 C 106.17 222.30 115.74 222.93 125.10 221.11 C 133.13 219.56 140.37 213.29 142.08 205.15 C 143.37 198.74 143.43 191.66 140.24 185.78 C 137.20 180.34 130.92 177.69 125.00 176.87 C 115.61 175.76 106.13 176.33 96.70 176.19 Z" />
<path fill="#0089ff" opacity="1.00" d=" M 221.51 186.82 C 235.03 186.81 248.56 186.80 262.08 186.82 C 262.13 210.23 262.02 233.64 262.13 257.05 C 262.43 264.07 262.20 271.41 265.07 277.98 C 266.92 282.38 271.32 285.27 275.98 285.85 C 285.33 287.67 294.63 283.72 302.35 278.73 C 302.54 248.08 302.28 217.43 302.47 186.79 C 315.88 186.85 329.28 186.79 342.69 186.82 C 342.59 229.97 342.89 273.13 342.54 316.28 C 329.17 316.08 315.80 316.24 302.43 316.19 C 302.39 311.48 302.42 306.77 302.41 302.06 C 295.43 307.68 288.22 313.27 279.90 316.79 C 271.39 320.08 261.92 320.49 252.98 319.01 C 243.41 317.43 234.48 311.88 229.27 303.64 C 223.05 294.01 221.66 282.20 221.50 270.98 C 221.51 242.93 221.49 214.87 221.51 186.82 Z" />
<path fill="#0089ff" opacity="1.00" d=" M 506.69 186.81 C 520.81 186.81 534.94 186.81 549.06 186.82 C 558.18 213.77 567.09 240.78 576.25 267.72 C 584.91 240.80 593.19 213.76 601.75 186.81 C 615.58 186.82 629.41 186.80 643.24 186.82 C 621.47 245.78 599.71 304.74 577.93 363.69 C 563.47 363.67 549.02 363.72 534.57 363.67 C 541.11 346.83 547.64 329.98 554.13 313.12 C 538.35 271.01 522.48 228.92 506.69 186.81 Z" />
</g>
<g id="#0fd186ff">
<path fill="#0fd186" opacity="1.00" d=" M 644.76 216.19 C 653.47 216.17 662.18 216.21 670.89 216.17 C 675.47 238.42 680.03 260.67 684.60 282.93 C 690.41 260.74 695.77 238.44 701.39 216.20 C 709.73 216.16 718.07 216.20 726.41 216.18 C 731.71 238.42 736.90 260.70 742.29 282.92 C 747.16 260.69 751.92 238.43 756.75 216.19 C 765.25 216.18 773.74 216.18 782.24 216.19 C 773.76 249.52 765.34 282.86 756.91 316.20 C 747.69 316.18 738.48 316.22 729.27 316.18 C 723.96 295.65 718.64 275.12 713.29 254.60 C 707.96 275.10 702.94 295.67 697.69 316.19 C 688.49 316.20 679.29 316.20 670.10 316.19 C 661.65 282.85 653.25 249.51 644.76 216.19 Z" />
<path fill="#0fd186" opacity="1.00" d=" M 794.51 216.18 C 817.07 216.19 839.63 216.18 862.20 216.19 C 862.19 222.56 862.20 228.94 862.19 235.31 C 848.02 235.36 833.85 235.25 819.68 235.37 C 819.72 241.18 819.67 246.99 819.71 252.80 C 832.74 252.80 845.78 252.80 858.81 252.80 C 858.82 259.20 858.81 265.59 858.82 271.99 C 845.78 272.02 832.74 271.98 819.70 272.01 C 819.69 280.33 819.69 288.66 819.70 296.99 C 833.86 297.01 848.03 296.98 862.19 297.01 C 862.20 303.40 862.20 309.79 862.19 316.19 C 839.63 316.20 817.07 316.20 794.51 316.19 C 794.49 282.85 794.49 249.52 794.51 216.18 Z" />
<path fill="#0fd186" opacity="1.00" d=" M 879.18 216.18 C 893.78 216.26 908.39 216.03 923.00 216.31 C 931.00 216.45 939.53 217.86 945.82 223.20 C 953.39 229.74 954.33 241.61 950.15 250.28 C 947.90 255.29 943.44 258.72 938.70 261.20 C 945.84 262.92 953.08 266.68 956.56 273.46 C 959.87 280.08 959.86 288.05 957.83 295.06 C 955.19 303.79 947.68 310.25 939.32 313.37 C 933.16 315.64 926.51 316.14 920.00 316.20 C 906.39 316.20 892.79 316.19 879.19 316.20 C 879.18 282.86 879.19 249.52 879.18 216.18 M 904.32 255.67 C 909.97 255.44 915.92 256.40 921.30 254.28 C 929.17 251.35 928.94 237.66 920.77 235.29 C 915.42 233.91 909.80 234.72 904.34 234.49 C 904.29 241.55 904.32 248.61 904.32 255.67 M 904.32 297.90 C 912.07 297.51 920.42 299.17 927.62 295.49 C 932.80 292.90 934.20 286.20 932.79 281.00 C 931.77 276.55 927.31 273.79 923.02 273.22 C 916.86 272.53 910.64 272.97 904.46 272.75 C 904.13 281.12 904.41 289.51 904.32 297.90 Z" />
</g>
</svg>
