<?xml version="1.0" encoding="UTF-8" ?>
<!DOCTYPE svg PUBLIC "-//W3C//DTD SVG 1.1//EN" "http://www.w3.org/Graphics/SVG/1.1/DTD/svg11.dtd">
<svg width="1002pt" height="403pt" viewBox="0 0 1002 403" version="1.1" xmlns="http://www.w3.org/2000/svg">
<g id="#e1e1e1e1">
<path fill="#e1e1e1" opacity="0.88" d=" M 0.00 0.00 L 1002.00 0.00 L 1002.00 403.00 L 0.00 403.00 L 0.00 0.00 M 1.32 1.17 C 0.43 4.07 0.68 7.07 0.98 10.04 C 1.04 136.02 0.96 262.01 1.02 387.99 C 1.42 392.63 -0.09 397.33 1.34 401.87 C 125.55 402.10 249.77 401.90 373.99 401.97 C 491.33 401.97 608.67 401.96 726.00 401.97 C 817.56 401.89 909.11 402.13 1000.66 401.85 C 1002.09 396.32 1000.44 390.61 1001.00 384.99 C 1000.99 260.33 1001.02 135.66 1000.98 11.00 C 1001.15 7.71 1001.72 4.38 1000.67 1.15 C 982.43 0.87 964.18 1.11 945.94 1.03 C 636.28 1.03 326.62 1.04 16.97 1.03 C 11.75 1.05 6.53 0.94 1.32 1.17 Z" />
</g>
<g id="#ffffffff">
<path fill="#ffffff" opacity="1.00" d=" M 1.32 1.17 C 6.53 0.94 11.75 1.05 16.97 1.03 C 326.62 1.04 636.28 1.03 945.94 1.03 C 964.18 1.11 982.43 0.87 1000.67 1.15 C 1001.72 4.38 1001.15 7.71 1000.98 11.00 C 1001.02 135.66 1000.99 260.33 1001.00 384.99 C 1000.44 390.61 1002.09 396.32 1000.66 401.85 C 909.11 402.13 817.56 401.89 726.00 401.97 C 608.67 401.96 491.33 401.97 373.99 401.97 C 249.77 401.90 125.55 402.10 1.34 401.87 C -0.09 397.33 1.42 392.63 1.02 387.99 C 0.96 262.01 1.04 136.02 0.98 10.04 C 0.68 7.07 0.43 4.07 1.32 1.17 M 270.32 20.97 L 270.46 21.15 C 258.82 33.03 246.82 44.57 235.28 56.55 C 235.08 56.57 234.69 56.60 234.50 56.62 L 234.61 57.16 C 224.14 67.44 213.73 77.81 203.47 88.30 C 203.79 109.03 203.25 129.79 203.75 150.51 L 203.27 150.99 C 250.73 155.09 298.22 158.88 345.68 162.94 L 345.23 161.77 C 341.63 115.24 337.52 68.73 333.71 22.21 C 333.83 21.94 334.05 21.39 334.16 21.11 C 312.88 20.93 291.59 21.20 270.32 20.97 M 373.40 136.98 C 373.42 196.70 373.42 256.42 373.40 316.14 C 386.28 316.25 399.16 316.16 412.04 316.18 C 412.56 314.05 413.18 311.93 413.88 309.85 C 427.48 318.15 444.41 321.10 459.85 316.77 C 473.93 312.72 485.09 301.66 491.82 288.93 C 500.65 272.13 501.44 252.45 499.52 233.93 C 497.73 218.88 492.66 203.17 480.97 192.86 C 471.31 184.25 457.53 182.00 445.05 183.85 C 433.03 185.47 422.85 192.81 413.69 200.29 C 413.68 179.16 413.69 158.04 413.69 136.92 C 400.26 136.95 386.83 136.83 373.40 136.98 M 53.81 144.70 C 53.81 201.86 53.80 259.02 53.82 316.18 C 68.06 316.24 82.30 316.09 96.55 316.26 C 96.85 295.32 96.65 274.35 96.64 253.40 C 101.72 253.18 106.81 253.39 111.89 253.27 C 127.99 274.15 143.79 295.26 159.82 316.19 C 177.32 316.18 194.83 316.20 212.34 316.19 C 193.12 291.91 173.91 267.63 154.72 243.34 C 167.86 236.71 179.92 225.96 184.39 211.54 C 187.37 201.75 187.95 191.21 186.25 181.12 C 184.00 167.45 173.61 156.28 161.28 150.66 C 150.62 145.65 138.59 145.06 127.01 144.71 C 102.61 144.67 78.21 144.70 53.81 144.70 M 221.51 186.82 C 221.49 214.89 221.51 242.97 221.50 271.05 C 221.67 282.26 223.06 294.05 229.29 303.67 C 234.50 311.89 243.41 317.43 252.97 319.01 C 262.38 320.56 272.40 320.05 281.24 316.23 C 288.98 312.63 295.81 307.40 302.41 302.06 C 302.47 306.79 302.27 311.52 302.53 316.24 C 315.92 316.10 329.31 316.27 342.70 316.16 C 342.67 273.04 342.69 229.93 342.69 186.82 C 329.38 186.84 316.07 186.75 302.76 186.85 C 301.96 187.97 302.60 189.69 302.39 191.02 C 302.40 220.25 302.47 249.48 302.36 278.71 C 293.30 284.75 281.28 289.07 270.77 284.19 C 263.03 279.86 262.71 269.89 262.29 262.07 C 261.83 236.99 262.22 211.90 262.08 186.82 C 248.56 186.80 235.03 186.81 221.51 186.82 M 506.69 186.81 C 522.48 228.92 538.33 271.00 554.13 313.10 C 547.66 329.98 541.09 346.82 534.58 363.69 C 549.02 363.70 563.47 363.67 577.92 363.70 C 599.72 304.75 621.47 245.78 643.24 186.82 C 629.41 186.80 615.58 186.82 601.75 186.81 C 593.23 213.80 584.82 240.82 576.29 267.81 C 567.10 240.85 558.19 213.80 549.06 186.82 C 534.94 186.81 520.81 186.81 506.69 186.81 M 644.76 216.19 C 653.25 249.51 661.65 282.86 670.10 316.19 C 679.30 316.20 688.49 316.21 697.69 316.18 C 702.94 295.68 707.94 275.11 713.30 254.63 C 718.64 275.15 723.96 295.66 729.27 316.18 C 738.48 316.22 747.69 316.18 756.91 316.20 C 765.34 282.86 773.76 249.52 782.24 216.19 C 773.74 216.18 765.25 216.18 756.75 216.19 C 751.92 238.42 747.16 260.67 742.30 282.90 C 736.88 260.69 731.72 238.41 726.41 216.18 C 718.07 216.20 709.73 216.16 701.39 216.20 C 695.78 238.45 690.39 260.75 684.61 282.95 C 680.03 260.69 675.47 238.43 670.89 216.17 C 662.18 216.21 653.47 216.17 644.76 216.19 M 794.51 216.18 C 794.49 249.52 794.49 282.85 794.51 316.19 C 817.07 316.20 839.63 316.20 862.19 316.19 C 862.20 309.79 862.20 303.40 862.19 297.01 C 848.03 296.99 833.86 297.01 819.70 296.99 C 819.69 288.66 819.69 280.34 819.70 272.01 C 832.74 271.98 845.78 272.02 858.82 271.99 C 858.81 265.59 858.82 259.20 858.81 252.80 C 845.78 252.80 832.74 252.81 819.71 252.80 C 819.67 247.00 819.73 241.19 819.66 235.39 C 833.84 235.22 848.01 235.38 862.19 235.31 C 862.20 228.94 862.19 222.56 862.19 216.19 C 839.63 216.18 817.07 216.19 794.51 216.18 M 879.18 216.18 C 879.19 249.52 879.18 282.86 879.19 316.20 C 892.43 316.20 905.67 316.19 918.92 316.20 C 925.77 316.19 932.79 315.77 939.28 313.39 C 947.64 310.27 955.15 303.83 957.81 295.10 C 959.92 287.86 959.90 279.56 956.21 272.82 C 952.59 266.38 945.57 262.86 938.64 261.18 C 940.45 260.10 942.34 259.13 944.05 257.85 C 953.72 250.39 955.56 234.65 947.81 225.21 C 941.85 218.44 932.34 216.52 923.72 216.34 C 908.88 216.00 894.03 216.27 879.18 216.18 Z" />
<path fill="#ffffff" opacity="1.00" d=" M 96.70 176.19 C 106.13 176.33 115.60 175.76 124.99 176.87 C 130.89 177.69 137.16 180.31 140.21 185.73 C 143.44 191.63 143.37 198.75 142.07 205.18 C 140.35 213.30 133.13 219.55 125.12 221.10 C 115.76 222.93 106.17 222.30 96.69 222.40 C 96.68 207.00 96.68 191.59 96.70 176.19 Z" />
<path fill="#ffffff" opacity="1.00" d=" M 413.68 221.75 C 421.89 216.23 432.29 213.24 442.09 215.64 C 447.95 217.01 452.92 221.33 455.23 226.87 C 458.85 235.40 459.05 244.88 458.90 254.00 C 458.59 262.67 457.17 271.76 452.12 279.03 C 448.26 284.66 441.75 288.08 435.04 288.83 C 427.87 289.63 420.41 289.01 413.67 286.36 C 413.70 264.82 413.69 243.29 413.68 221.75 Z" />
<path fill="#ffffff" opacity="1.00" d=" M 904.33 255.67 C 904.35 248.60 904.23 241.53 904.39 234.46 C 909.84 234.75 915.45 233.89 920.79 235.30 C 928.95 237.68 929.16 251.35 921.31 254.28 C 915.93 256.42 909.97 255.43 904.33 255.67 Z" />
<path fill="#ffffff" opacity="1.00" d=" M 904.32 272.83 C 910.55 272.88 916.81 272.57 923.03 273.22 C 927.31 273.80 931.78 276.55 932.79 281.01 C 934.20 286.22 932.79 292.92 927.60 295.50 C 920.40 299.16 912.07 297.51 904.32 297.90 C 904.32 289.54 904.32 281.19 904.32 272.83 Z" />
</g>
<g id="#ff80abff">
<path fill="#ff80ab" opacity="1.00" d=" M 270.32 20.97 C 291.59 21.20 312.88 20.93 334.16 21.11 C 334.05 21.39 333.83 21.94 333.71 22.21 C 333.34 22.28 332.59 22.40 332.21 22.46 C 320.68 33.66 309.49 45.23 298.00 56.48 C 288.95 44.61 279.82 32.78 270.46 21.15 L 270.32 20.97 Z" />
</g>
<g id="#d81b60ff">
<path fill="#d81b60" opacity="1.00" d=" M 235.28 56.55 C 246.82 44.57 258.82 33.03 270.46 21.15 C 279.82 32.78 288.95 44.61 298.00 56.48 C 310.88 84.89 323.39 113.47 336.11 141.95 C 339.15 148.56 341.80 155.35 345.23 161.77 L 345.68 162.94 C 309.99 147.22 274.39 131.29 238.74 115.49 C 227.04 106.36 215.53 96.95 203.47 88.30 C 213.73 77.81 224.14 67.44 234.61 57.16 C 235.93 62.34 235.80 67.72 236.22 73.01 C 237.24 87.10 238.03 101.20 239.09 115.28 C 253.33 101.80 266.87 87.60 280.84 73.85 C 286.37 68.11 292.35 62.82 297.55 56.78 C 276.80 56.35 256.03 56.79 235.28 56.55 Z" />
</g>
<g id="#ff4081ff">
<path fill="#ff4081" opacity="1.00" d=" M 332.21 22.46 C 332.59 22.40 333.34 22.28 333.71 22.21 C 337.52 68.73 341.63 115.24 345.23 161.77 C 341.80 155.35 339.15 148.56 336.11 141.95 C 323.39 113.47 310.88 84.89 298.00 56.48 C 309.49 45.23 320.68 33.66 332.21 22.46 Z" />
<path fill="#ff4081" opacity="1.00" d=" M 234.50 56.62 C 234.69 56.60 235.08 56.57 235.28 56.55 C 256.03 56.79 276.80 56.35 297.55 56.78 C 292.35 62.82 286.37 68.11 280.84 73.85 C 266.87 87.60 253.33 101.80 239.09 115.28 C 238.03 101.20 237.24 87.10 236.22 73.01 C 235.80 67.72 235.93 62.34 234.61 57.16 L 234.50 56.62 Z" />
</g>
<g id="#ad1457ff">
<path fill="#ad1457" opacity="1.00" d=" M 203.47 88.30 C 215.53 96.95 227.04 106.36 238.74 115.49 C 235.53 119.34 231.87 122.78 228.30 126.30 C 220.09 134.34 212.26 142.78 203.75 150.51 C 203.25 129.79 203.79 109.03 203.47 88.30 Z" />
</g>
<g id="#880e4fff">
<path fill="#880e4f" opacity="1.00" d=" M 238.74 115.49 C 274.39 131.29 309.99 147.22 345.68 162.94 C 298.22 158.88 250.73 155.09 203.27 150.99 L 203.75 150.51 C 212.26 142.78 220.09 134.34 228.30 126.30 C 231.87 122.78 235.53 119.34 238.74 115.49 Z" />
</g>
<g id="#0089ffff">
<path fill="#0089ff" opacity="1.00" d=" M 373.40 136.98 C 386.83 136.83 400.26 136.95 413.69 136.92 C 413.69 158.04 413.68 179.16 413.69 200.29 C 422.85 192.81 433.03 185.47 445.05 183.85 C 457.53 182.00 471.31 184.25 480.97 192.86 C 492.66 203.17 497.73 218.88 499.52 233.93 C 501.44 252.45 500.65 272.13 491.82 288.93 C 485.09 301.66 473.93 312.72 459.85 316.77 C 444.41 321.10 427.48 318.15 413.88 309.85 C 413.18 311.93 412.56 314.05 412.04 316.18 C 399.16 316.16 386.28 316.25 373.40 316.14 C 373.42 256.42 373.42 196.70 373.40 136.98 M 413.68 221.75 C 413.69 243.29 413.70 264.82 413.67 286.36 C 420.41 289.01 427.87 289.63 435.04 288.83 C 441.75 288.08 448.26 284.66 452.12 279.03 C 457.17 271.76 458.59 262.67 458.90 254.00 C 459.05 244.88 458.85 235.40 455.23 226.87 C 452.92 221.33 447.95 217.01 442.09 215.64 C 432.29 213.24 421.89 216.23 413.68 221.75 Z" />
<path fill="#0089ff" opacity="1.00" d=" M 53.81 144.70 C 78.21 144.70 102.61 144.67 127.01 144.71 C 138.59 145.06 150.62 145.65 161.28 150.66 C 173.61 156.28 184.00 167.45 186.25 181.12 C 187.95 191.21 187.37 201.75 184.39 211.54 C 179.92 225.96 167.86 236.71 154.72 243.34 C 173.91 267.63 193.12 291.91 212.34 316.19 C 194.83 316.20 177.32 316.18 159.82 316.19 C 143.79 295.26 127.99 274.15 111.89 253.27 C 106.81 253.39 101.72 253.18 96.64 253.40 C 96.65 274.35 96.85 295.32 96.55 316.26 C 82.30 316.09 68.06 316.24 53.82 316.18 C 53.80 259.02 53.81 201.86 53.81 144.70 M 96.70 176.19 C 96.68 191.59 96.68 207.00 96.69 222.40 C 106.17 222.30 115.76 222.93 125.12 221.10 C 133.13 219.55 140.35 213.30 142.07 205.18 C 143.37 198.75 143.44 191.63 140.21 185.73 C 137.16 180.31 130.89 177.69 124.99 176.87 C 115.60 175.76 106.13 176.33 96.70 176.19 Z" />
<path fill="#0089ff" opacity="1.00" d=" M 221.51 186.82 C 235.03 186.81 248.56 186.80 262.08 186.82 C 262.22 211.90 261.83 236.99 262.29 262.07 C 262.71 269.89 263.03 279.86 270.77 284.19 C 281.28 289.07 293.30 284.75 302.36 278.71 C 302.47 249.48 302.40 220.25 302.39 191.02 C 302.60 189.69 301.96 187.97 302.76 186.85 C 316.07 186.75 329.38 186.84 342.69 186.82 C 342.69 229.93 342.67 273.04 342.70 316.16 C 329.31 316.27 315.92 316.10 302.53 316.24 C 302.27 311.52 302.47 306.79 302.41 302.06 C 295.81 307.40 288.98 312.63 281.24 316.23 C 272.40 320.05 262.38 320.56 252.97 319.01 C 243.41 317.43 234.50 311.89 229.29 303.67 C 223.06 294.05 221.67 282.26 221.50 271.05 C 221.51 242.97 221.49 214.89 221.51 186.82 Z" />
<path fill="#0089ff" opacity="1.00" d=" M 506.69 186.81 C 520.81 186.81 534.94 186.81 549.06 186.82 C 558.19 213.80 567.10 240.85 576.29 267.81 C 584.82 240.82 593.23 213.80 601.75 186.81 C 615.58 186.82 629.41 186.80 643.24 186.82 C 621.47 245.78 599.72 304.75 577.92 363.70 C 563.47 363.67 549.02 363.70 534.58 363.69 C 541.09 346.82 547.66 329.98 554.13 313.10 C 538.33 271.00 522.48 228.92 506.69 186.81 Z" />
</g>
<g id="#0fd186ff">
<path fill="#0fd186" opacity="1.00" d=" M 644.76 216.19 C 653.47 216.17 662.18 216.21 670.89 216.17 C 675.47 238.43 680.03 260.69 684.61 282.95 C 690.39 260.75 695.78 238.45 701.39 216.20 C 709.73 216.16 718.07 216.20 726.41 216.18 C 731.72 238.41 736.88 260.69 742.30 282.90 C 747.16 260.67 751.92 238.42 756.75 216.19 C 765.25 216.18 773.74 216.18 782.24 216.19 C 773.76 249.52 765.34 282.86 756.91 316.20 C 747.69 316.18 738.48 316.22 729.27 316.18 C 723.96 295.66 718.64 275.15 713.30 254.63 C 707.94 275.11 702.94 295.68 697.69 316.18 C 688.49 316.21 679.30 316.20 670.10 316.19 C 661.65 282.86 653.25 249.51 644.76 216.19 Z" />
<path fill="#0fd186" opacity="1.00" d=" M 794.51 216.18 C 817.07 216.19 839.63 216.18 862.19 216.19 C 862.19 222.56 862.20 228.94 862.19 235.31 C 848.01 235.38 833.84 235.22 819.66 235.39 C 819.73 241.19 819.67 247.00 819.71 252.80 C 832.74 252.81 845.78 252.80 858.81 252.80 C 858.82 259.20 858.81 265.59 858.82 271.99 C 845.78 272.02 832.74 271.98 819.70 272.01 C 819.69 280.34 819.69 288.66 819.70 296.99 C 833.86 297.01 848.03 296.99 862.19 297.01 C 862.20 303.40 862.20 309.79 862.19 316.19 C 839.63 316.20 817.07 316.20 794.51 316.19 C 794.49 282.85 794.49 249.52 794.51 216.18 Z" />
<path fill="#0fd186" opacity="1.00" d=" M 879.18 216.18 C 894.03 216.27 908.88 216.00 923.72 216.34 C 932.34 216.52 941.85 218.44 947.81 225.21 C 955.56 234.65 953.72 250.39 944.05 257.85 C 942.34 259.13 940.45 260.10 938.64 261.18 C 945.57 262.86 952.59 266.38 956.21 272.82 C 959.90 279.56 959.92 287.86 957.81 295.10 C 955.15 303.83 947.64 310.27 939.28 313.39 C 932.79 315.77 925.77 316.19 918.92 316.20 C 905.67 316.19 892.43 316.20 879.19 316.20 C 879.18 282.86 879.19 249.52 879.18 216.18 M 904.33 255.67 C 909.97 255.43 915.93 256.42 921.31 254.28 C 929.16 251.35 928.95 237.68 920.79 235.30 C 915.45 233.89 909.84 234.75 904.39 234.46 C 904.23 241.53 904.35 248.60 904.33 255.67 M 904.32 272.83 C 904.32 281.19 904.32 289.54 904.32 297.90 C 912.07 297.51 920.40 299.16 927.60 295.50 C 932.79 292.92 934.20 286.22 932.79 281.01 C 931.78 276.55 927.31 273.80 923.03 273.22 C 916.81 272.57 910.55 272.88 904.32 272.83 Z" />
</g>
</svg>
