<?xml version="1.0" encoding="utf-8"?>
<!-- Generator: Adobe Illustrator 16.0.0, SVG Export Plug-In . SVG Version: 6.00 Build 0)  -->
<!DOCTYPE svg PUBLIC "-//W3C//DTD SVG 1.1//EN" "http://www.w3.org/Graphics/SVG/1.1/DTD/svg11.dtd">
<svg version="1.1" xmlns="http://www.w3.org/2000/svg" xmlns:xlink="http://www.w3.org/1999/xlink" x="0px" y="0px"
	 width="164.386px" height="207.571px" viewBox="0 0 164.386 207.571" enable-background="new 0 0 164.386 207.571"
	 xml:space="preserve">
<g id="Layer_2">
</g>
<g id="Layer_1">
	<polygon fill="#E6EDF2" points="50.44,51.273 51.6,68.094 51.487,68.178 	"/>
	<polygon fill="#D5E1E9" points="51.487,68.178 52.079,77.48 51.967,77.537 51.374,68.234 	"/>
	<g>
		<linearGradient id="SVGID_1_" gradientUnits="userSpaceOnUse" x1="273.6938" y1="191.6074" x2="273.7397" y2="191.5279">
			<stop  offset="0.1613" style="stop-color:#AD0700"/>
			<stop  offset="0.1633" style="stop-color:#F03131"/>
			<stop  offset="0.5593" style="stop-color:#F03131"/>
			<stop  offset="0.5622" style="stop-color:#FF908F"/>
			<stop  offset="0.8728" style="stop-color:#FF908F"/>
			<stop  offset="0.8739" style="stop-color:#FF7878"/>
		</linearGradient>
		<path fill="url(#SVGID_1_)" d="M271.688,190.449c-0.097-0.117,4.268,2.379,4.054,2.234
			C275.901,192.797,271.54,190.32,271.688,190.449z"/>
	</g>
	<defs>
		<filter id="Adobe_OpacityMaskFilter" filterUnits="userSpaceOnUse" x="54.639" y="167.373" width="66.212" height="40.198">
			<feFlood  style="flood-color:white;flood-opacity:1" result="back"/>
			<feBlend  in="SourceGraphic" in2="back" mode="normal"/>
		</filter>
	</defs>
	<mask maskUnits="userSpaceOnUse" x="54.639" y="167.373" width="66.212" height="40.198" id="SVGID_2_">
		<g filter="url(#Adobe_OpacityMaskFilter)">
			<defs>
				<filter id="Adobe_OpacityMaskFilter_1_" filterUnits="userSpaceOnUse" x="33.329" y="155.599" width="86.037" height="51.015">
					<feFlood  style="flood-color:white;flood-opacity:1" result="back"/>
					<feBlend  in="SourceGraphic" in2="back" mode="normal"/>
				</filter>
			</defs>
			<mask maskUnits="userSpaceOnUse" x="33.329" y="155.599" width="86.037" height="51.015" id="SVGID_2_">
				<g filter="url(#Adobe_OpacityMaskFilter_1_)">
				</g>
			</mask>
			<linearGradient id="SVGID_3_" gradientUnits="userSpaceOnUse" x1="76.3472" y1="206.6133" x2="76.3472" y2="155.5986">
				<stop  offset="0" style="stop-color:#FFFFFF"/>
				<stop  offset="0.016" style="stop-color:#F3F3F3"/>
				<stop  offset="0.0908" style="stop-color:#C1C1C1"/>
				<stop  offset="0.1709" style="stop-color:#939393"/>
				<stop  offset="0.2546" style="stop-color:#6B6B6B"/>
				<stop  offset="0.3429" style="stop-color:#4A4A4A"/>
				<stop  offset="0.437" style="stop-color:#2F2F2F"/>
				<stop  offset="0.539" style="stop-color:#1A1A1A"/>
				<stop  offset="0.6529" style="stop-color:#0B0B0B"/>
				<stop  offset="0.7881" style="stop-color:#030303"/>
				<stop  offset="1" style="stop-color:#000000"/>
			</linearGradient>
			<path mask="url(#SVGID_2_)" fill="url(#SVGID_3_)" d="M36.188,186.44L67.3,204.375c5.182,2.985,11.565,2.985,16.747,0
				l32.458-18.711c3.813-2.199,3.813-7.694,0-9.892l-31.111-17.934c-5.182-2.986-11.565-2.986-16.747,0L36.188,176.55
				C32.375,178.747,32.375,184.242,36.188,186.44z"/>
		</g>
	</mask>
	<linearGradient id="SVGID_4_" gradientUnits="userSpaceOnUse" x1="54.6392" y1="187.4727" x2="120.8511" y2="187.4727">
		<stop  offset="0" style="stop-color:#000000;stop-opacity:0.3"/>
		<stop  offset="1" style="stop-color:#000000;stop-opacity:0.2"/>
	</linearGradient>
	<path opacity="0.5" fill="url(#SVGID_4_)" d="M56.62,196.939l12.701,8.425c5.182,2.986,7.831,2.921,13.013-0.065l35.403-20.582
		c3.813-2.198,4.3-5.6,0.485-7.797l-13.918-7.947c-5.182-2.986-7.827-1.406-13.009,1.58l-32.459,18.711
		C55.023,191.461,52.807,194.74,56.62,196.939z"/>
	<path fill-rule="evenodd" clip-rule="evenodd" fill="#D2FFF5" d="M119.149,128.702l3.852-2.266c0.364-0.209,0.748-0.26,1.152-0.151
		c0.403,0.106,0.712,0.339,0.925,0.699c0.208,0.356,0.26,0.734,0.151,1.133c-0.101,0.404-0.328,0.712-0.681,0.925l-3.852,2.266
		c-0.364,0.209-0.748,0.26-1.151,0.152c-0.404-0.107-0.713-0.34-0.926-0.7c-0.209-0.356-0.26-0.734-0.15-1.133
		C118.57,129.226,118.795,128.916,119.149,128.702z"/>
	<path fill-rule="evenodd" clip-rule="evenodd" fill="#D2FFF5" d="M122.906,113.559l-3.927,2.266
		c-0.366,0.209-0.75,0.259-1.152,0.152c-0.398-0.107-0.701-0.341-0.906-0.7c-0.21-0.364-0.26-0.747-0.151-1.15
		c0.108-0.398,0.341-0.701,0.698-0.907l3.929-2.267c0.365-0.208,0.75-0.259,1.151-0.15c0.398,0.107,0.7,0.34,0.906,0.698
		c0.209,0.364,0.26,0.749,0.151,1.152C123.497,113.051,123.264,113.353,122.906,113.559z"/>
	<path fill-rule="evenodd" clip-rule="evenodd" fill="#D2FFF5" d="M121.584,102.72l-3.928,2.266
		c-0.366,0.21-0.749,0.261-1.151,0.152c-0.399-0.107-0.701-0.339-0.907-0.7c-0.209-0.363-0.26-0.747-0.151-1.152
		c0.108-0.397,0.341-0.699,0.699-0.904l3.927-2.267c0.366-0.209,0.751-0.26,1.152-0.151c0.398,0.107,0.701,0.339,0.907,0.698
		c0.209,0.365,0.26,0.748,0.15,1.152C122.174,102.212,121.942,102.515,121.584,102.72z"/>
	<path fill-rule="evenodd" clip-rule="evenodd" fill="#D2FFF5" d="M109.159,121.527c-0.365,0.209-0.749,0.259-1.15,0.15
		c-0.399-0.106-0.701-0.339-0.906-0.698c-0.21-0.365-0.26-0.749-0.152-1.152c0.108-0.398,0.342-0.699,0.699-0.906l3.928-2.266
		c0.365-0.209,0.75-0.259,1.152-0.151c0.397,0.106,0.699,0.34,0.906,0.699c0.209,0.365,0.26,0.748,0.15,1.152
		c-0.108,0.398-0.342,0.7-0.699,0.906L109.159,121.527z"/>
	<linearGradient id="SVGID_5_" gradientUnits="userSpaceOnUse" x1="108.2983" y1="154.5752" x2="67.2615" y2="195.6121">
		<stop  offset="0.0635" style="stop-color:#FFEFE5"/>
		<stop  offset="0.3915" style="stop-color:#A0C2DA"/>
		<stop  offset="0.6079" style="stop-color:#9EBFD7"/>
		<stop  offset="0.7634" style="stop-color:#97B6CE"/>
		<stop  offset="0.8994" style="stop-color:#8BA6BF"/>
		<stop  offset="1" style="stop-color:#7E95AE"/>
	</linearGradient>
	<path fill="url(#SVGID_5_)" d="M120.489,168.716c0-0.002,0-0.004,0-0.004v-1.946l-0.31,0.912c-0.278-0.457-0.74-0.894-1.387-1.267
		l-15.108-8.722c-2.119-1.224-5.402-1.313-7.331-0.198l-39.998,23.092c-0.402,0.232-0.713,0.5-0.935,0.786l-0.416-0.587v1.732l0,0
		v0.23l0.012-0.021c0.09,0.743,0.653,1.497,1.683,2.093l15.109,8.723c2.12,1.223,5.403,1.312,7.332,0.198l39.995-23.093
		c0.902-0.521,1.35-1.21,1.354-1.922l0,0V168.716z"/>
	<linearGradient id="SVGID_6_" gradientUnits="userSpaceOnUse" x1="55.0034" y1="173.7646" x2="120.4888" y2="173.7646">
		<stop  offset="0.0635" style="stop-color:#FFEFE5"/>
		<stop  offset="0.3915" style="stop-color:#A0C2DA"/>
		<stop  offset="0.6079" style="stop-color:#9EBFD7"/>
		<stop  offset="0.7634" style="stop-color:#97B6CE"/>
		<stop  offset="0.8994" style="stop-color:#8BA6BF"/>
		<stop  offset="1" style="stop-color:#7E95AE"/>
	</linearGradient>
	<path fill="url(#SVGID_6_)" d="M79.14,191.888c-1.929,1.115-5.212,1.024-7.332-0.197l-15.109-8.724
		c-2.118-1.225-2.273-3.119-0.344-4.232l39.998-23.094c1.929-1.113,5.212-1.024,7.331,0.198l15.108,8.726
		c2.12,1.223,2.274,3.117,0.343,4.232L79.14,191.888z"/>
	<linearGradient id="SVGID_7_" gradientUnits="userSpaceOnUse" x1="41.3501" y1="210.4297" x2="118.7582" y2="-2.2474">
		<stop  offset="0.0635" style="stop-color:#FFEFE5"/>
		<stop  offset="0.3915" style="stop-color:#A0C2DA"/>
		<stop  offset="0.4078" style="stop-color:#A3C4DB"/>
		<stop  offset="0.4195" style="stop-color:#ACC8DF"/>
		<stop  offset="0.4298" style="stop-color:#BCD1E5"/>
		<stop  offset="0.4392" style="stop-color:#D2DDEE"/>
		<stop  offset="0.4444" style="stop-color:#E2E5F4"/>
		<stop  offset="1" style="stop-color:#7E95AE"/>
	</linearGradient>
	<path fill="url(#SVGID_7_)" d="M157.527,12.61l-5.561-2.771v0.004c-0.437-0.202-1.015-0.149-1.647,0.218L10.032,91.056
		c-1.359,0.785-2.463,2.694-2.463,4.264v96.877v3.84c0,0.85,0.325,1.425,0.84,1.648l-0.004,0.002l5.625,2.799l-0.807-4.869
		l137.096-79.154c1.36-0.786,2.462-2.694,2.462-4.266v-3.841V15.081L157.527,12.61z"/>
	<linearGradient id="SVGID_8_" gradientUnits="userSpaceOnUse" x1="27.1841" y1="208.0879" x2="144.421" y2="5.0275">
		<stop  offset="0.0635" style="stop-color:#FFEFE5"/>
		<stop  offset="0.3915" style="stop-color:#A0C2DA"/>
		<stop  offset="0.5788" style="stop-color:#A3C4DB"/>
		<stop  offset="0.7134" style="stop-color:#ACC8DF"/>
		<stop  offset="0.8315" style="stop-color:#BCD1E5"/>
		<stop  offset="0.9395" style="stop-color:#D2DDEE"/>
		<stop  offset="1" style="stop-color:#E2E5F4"/>
	</linearGradient>
	<path fill="url(#SVGID_8_)" d="M155.946,12.859L15.659,93.853c-1.36,0.788-2.464,2.697-2.464,4.268v89.607v7.267v3.841
		c0,1.569,1.104,2.206,2.464,1.421l140.287-80.994c1.361-0.785,2.463-2.696,2.463-4.267v-3.84v-7.266V14.281
		C158.409,12.711,157.305,12.073,155.946,12.859z"/>
	<linearGradient id="SVGID_9_" gradientUnits="userSpaceOnUse" x1="81.9458" y1="161.9844" x2="88.4863" y2="173.3129">
		<stop  offset="0" style="stop-color:#DFE0E1"/>
		<stop  offset="0.5344" style="stop-color:#A0C2DA"/>
		<stop  offset="1" style="stop-color:#A0C1D9"/>
	</linearGradient>
	<path fill="url(#SVGID_9_)" d="M96.104,168.915c-5.623,3.216-13.068,7.381-18.757,10.513c1.896-4.959,0.002-14.788,0.002-14.788
		l15.599-9.007C92.948,155.633,93.666,166.86,96.104,168.915z"/>
	<linearGradient id="SVGID_10_" gradientUnits="userSpaceOnUse" x1="16.4653" y1="105.3359" x2="155.9282" y2="105.3359">
		<stop  offset="6.300000e-007" style="stop-color:#FFFFFF"/>
		<stop  offset="1" style="stop-color:#E1E6F0"/>
	</linearGradient>
	<path fill="url(#SVGID_10_)" d="M153.462,17.94L18.929,95.686c-1.36,0.785-2.464,2.694-2.464,4.266l0.002,93.116l139.461-80.588
		l-0.003-93.118C155.925,17.792,154.822,17.155,153.462,17.94z"/>
	<g>
		<defs>
			<filter id="Adobe_OpacityMaskFilter_2_" filterUnits="userSpaceOnUse" x="16.553" y="112.395" width="139.296" height="80.753">
				<feFlood  style="flood-color:white;flood-opacity:1" result="back"/>
				<feBlend  in="SourceGraphic" in2="back" mode="normal"/>
			</filter>
		</defs>
		<mask maskUnits="userSpaceOnUse" x="16.553" y="112.395" width="139.296" height="80.753" id="SVGID_11_">
			<g filter="url(#Adobe_OpacityMaskFilter_2_)">
				<defs>
					
						<filter id="Adobe_OpacityMaskFilter_3_" filterUnits="userSpaceOnUse" x="16.553" y="112.395" width="139.296" height="80.753">
						<feFlood  style="flood-color:white;flood-opacity:1" result="back"/>
						<feBlend  in="SourceGraphic" in2="back" mode="normal"/>
					</filter>
				</defs>
				<mask maskUnits="userSpaceOnUse" x="16.553" y="112.395" width="139.296" height="80.753" id="SVGID_11_">
					<g filter="url(#Adobe_OpacityMaskFilter_3_)">
					</g>
				</mask>
				<linearGradient id="SVGID_12_" gradientUnits="userSpaceOnUse" x1="16.5527" y1="152.7715" x2="155.8491" y2="152.7715">
					<stop  offset="0.0635" style="stop-color:#000000"/>
					<stop  offset="0.5397" style="stop-color:#FFFFFF"/>
					<stop  offset="0.6248" style="stop-color:#FCFCFC"/>
					<stop  offset="0.686" style="stop-color:#F3F3F3"/>
					<stop  offset="0.7397" style="stop-color:#E3E3E3"/>
					<stop  offset="0.7892" style="stop-color:#CDCDCD"/>
					<stop  offset="0.8357" style="stop-color:#B0B0B0"/>
					<stop  offset="0.88" style="stop-color:#8D8D8D"/>
					<stop  offset="0.9226" style="stop-color:#626262"/>
					<stop  offset="0.9628" style="stop-color:#333333"/>
					<stop  offset="1" style="stop-color:#000000"/>
				</linearGradient>
				<path mask="url(#SVGID_11_)" fill="url(#SVGID_12_)" d="M16.858,193.147c-0.105,0-0.208-0.056-0.264-0.153
					c-0.085-0.147-0.035-0.333,0.111-0.417l138.686-80.141c0.146-0.086,0.333-0.035,0.416,0.109c0.086,0.146,0.035,0.333-0.11,0.417
					L17.011,193.105C16.961,193.133,16.911,193.147,16.858,193.147z"/>
			</g>
		</mask>
		<linearGradient id="SVGID_13_" gradientUnits="userSpaceOnUse" x1="16.5527" y1="152.7715" x2="155.8491" y2="152.7715">
			<stop  offset="0.0635" style="stop-color:#FFEFE5"/>
			<stop  offset="0.5397" style="stop-color:#FFFFFF"/>
			<stop  offset="0.7328" style="stop-color:#FCFCFE"/>
			<stop  offset="0.8715" style="stop-color:#F3F4FA"/>
			<stop  offset="0.993" style="stop-color:#E3E6F4"/>
			<stop  offset="1" style="stop-color:#E2E5F4"/>
		</linearGradient>
		<path fill="url(#SVGID_13_)" d="M16.858,193.147c-0.105,0-0.208-0.056-0.264-0.153c-0.085-0.147-0.035-0.333,0.111-0.417
			l138.686-80.141c0.146-0.086,0.333-0.035,0.416,0.109c0.086,0.146,0.035,0.333-0.11,0.417L17.011,193.105
			C16.961,193.133,16.911,193.147,16.858,193.147z"/>
	</g>
	<g>
		<defs>
			<filter id="Adobe_OpacityMaskFilter_4_" filterUnits="userSpaceOnUse" x="16.553" y="12.89" width="139.296" height="80.752">
				<feFlood  style="flood-color:white;flood-opacity:1" result="back"/>
				<feBlend  in="SourceGraphic" in2="back" mode="normal"/>
			</filter>
		</defs>
		<mask maskUnits="userSpaceOnUse" x="16.553" y="12.89" width="139.296" height="80.752" id="SVGID_14_">
			<g filter="url(#Adobe_OpacityMaskFilter_4_)">
				<defs>
					<filter id="Adobe_OpacityMaskFilter_5_" filterUnits="userSpaceOnUse" x="16.553" y="12.89" width="139.296" height="80.752">
						<feFlood  style="flood-color:white;flood-opacity:1" result="back"/>
						<feBlend  in="SourceGraphic" in2="back" mode="normal"/>
					</filter>
				</defs>
				<mask maskUnits="userSpaceOnUse" x="16.553" y="12.89" width="139.296" height="80.752" id="SVGID_14_">
					<g filter="url(#Adobe_OpacityMaskFilter_5_)">
					</g>
				</mask>
				<linearGradient id="SVGID_15_" gradientUnits="userSpaceOnUse" x1="16.5527" y1="53.2656" x2="155.8491" y2="53.2656">
					<stop  offset="0.0635" style="stop-color:#000000"/>
					<stop  offset="0.5397" style="stop-color:#FFFFFF"/>
					<stop  offset="0.6248" style="stop-color:#FCFCFC"/>
					<stop  offset="0.686" style="stop-color:#F3F3F3"/>
					<stop  offset="0.7397" style="stop-color:#E3E3E3"/>
					<stop  offset="0.7892" style="stop-color:#CDCDCD"/>
					<stop  offset="0.8357" style="stop-color:#B0B0B0"/>
					<stop  offset="0.88" style="stop-color:#8D8D8D"/>
					<stop  offset="0.9226" style="stop-color:#626262"/>
					<stop  offset="0.9628" style="stop-color:#333333"/>
					<stop  offset="1" style="stop-color:#000000"/>
				</linearGradient>
				<path mask="url(#SVGID_14_)" fill="url(#SVGID_15_)" d="M16.858,93.642c-0.105,0-0.208-0.056-0.264-0.153
					c-0.085-0.145-0.035-0.331,0.111-0.416l138.686-80.142c0.146-0.084,0.333-0.035,0.416,0.111c0.086,0.146,0.035,0.332-0.11,0.417
					L17.011,93.601C16.961,93.627,16.911,93.642,16.858,93.642z"/>
			</g>
		</mask>
		<linearGradient id="SVGID_16_" gradientUnits="userSpaceOnUse" x1="16.5527" y1="53.2656" x2="155.8491" y2="53.2656">
			<stop  offset="0.0635" style="stop-color:#FFEFE5"/>
			<stop  offset="0.5397" style="stop-color:#FFFFFF"/>
			<stop  offset="0.7328" style="stop-color:#FCFCFE"/>
			<stop  offset="0.8715" style="stop-color:#F3F4FA"/>
			<stop  offset="0.993" style="stop-color:#E3E6F4"/>
			<stop  offset="1" style="stop-color:#E2E5F4"/>
		</linearGradient>
		<path fill="url(#SVGID_16_)" d="M16.858,93.642c-0.105,0-0.208-0.056-0.264-0.153c-0.085-0.145-0.035-0.331,0.111-0.416
			l138.686-80.142c0.146-0.084,0.333-0.035,0.416,0.111c0.086,0.146,0.035,0.332-0.11,0.417L17.011,93.601
			C16.961,93.627,16.911,93.642,16.858,93.642z"/>
	</g>
	<g opacity="0.2">
		<path fill="#7466A4" d="M117.103-200.626c-0.014,0-0.025,0-0.039-0.001l-3.49-0.196c-0.379-0.021-0.668-0.347-0.647-0.727
			c0.021-0.378,0.349-0.67,0.726-0.647l3.489,0.196c0.38,0.021,0.669,0.347,0.647,0.726
			C117.769-200.91,117.465-200.626,117.103-200.626z"/>
	</g>
	<path fill="#0FD186" d="M111.371,70.115c0-6.316-5.119-8.561-11.434-5.015L65.161,90.355c-6.316,3.547-11.435,11.541-11.435,17.856
		v34.776c0,6.314,5.118,8.561,11.435,5.014l34.776-19.527c6.314-3.547,11.434-11.541,11.434-17.855 M97.933,122.101
		c-4.029,5.044-8.898,9.168-14.596,12.367c-8.206,4.607-15.782,5.908-22.731,3.899l7.426-11.677
		c4.596,2.356,9.898,1.845,15.896-1.523c2.301-1.292,4.43-2.974,6.382-5.041c2.443-2.55,3.659-4.858,3.659-6.944
		c0-3.049-2.224-3.742-6.676-2.076l-6.148,2.283c-5.494,2.041-9.561,3.004-12.199,2.888c-3.959-0.212-5.945-2.57-5.945-7.092
		c0-5.145,2.09-10.421,6.259-15.822c3.685-4.851,8.203-8.776,13.555-11.782c6.812-3.825,13.486-5.242,20.023-4.257l-6.176,11.079
		c-4.464-1.247-9.003-0.574-13.605,2.009c-2.233,1.255-4.255,2.88-6.067,4.869c-2.164,2.397-3.246,4.636-3.246,6.724
		c0,2.713,2.221,3.235,6.676,1.572l10.944-4.063c8.901-3.334,13.351-1.344,13.351,5.955
		C104.713,110.893,102.452,116.434,97.933,122.101z"/>
</g>
</svg>
