<?xml version="1.0" encoding="utf-8"?>
<!-- Generator: Adobe Illustrator 16.0.0, SVG Export Plug-In . SVG Version: 6.00 Build 0)  -->
<!DOCTYPE svg PUBLIC "-//W3C//DTD SVG 1.1//EN" "http://www.w3.org/Graphics/SVG/1.1/DTD/svg11.dtd">
<svg version="1.1" xmlns="http://www.w3.org/2000/svg" xmlns:xlink="http://www.w3.org/1999/xlink" x="0px" y="0px"
	 width="169.66px" height="166.258px" viewBox="0 0 169.66 166.258" enable-background="new 0 0 169.66 166.258"
	 xml:space="preserve">
<g id="Layer_2">
</g>
<g id="Layer_1">
	<defs>
		<filter id="Adobe_OpacityMaskFilter" filterUnits="userSpaceOnUse" x="17.734" y="62.132" width="133.067" height="78.901">
			<feFlood  style="flood-color:white;flood-opacity:1" result="back"/>
			<feBlend  in="SourceGraphic" in2="back" mode="normal"/>
		</filter>
	</defs>
	<mask maskUnits="userSpaceOnUse" x="17.734" y="62.132" width="133.067" height="78.901" id="SVGID_1_">
		<g filter="url(#Adobe_OpacityMaskFilter)">
			<defs>
				<filter id="Adobe_OpacityMaskFilter_1_" filterUnits="userSpaceOnUse" x="17.734" y="62.132" width="133.067" height="78.901">
					<feFlood  style="flood-color:white;flood-opacity:1" result="back"/>
					<feBlend  in="SourceGraphic" in2="back" mode="normal"/>
				</filter>
			</defs>
			<mask maskUnits="userSpaceOnUse" x="17.734" y="62.132" width="133.067" height="78.901" id="SVGID_1_">
			</mask>
			<linearGradient id="SVGID_2_" gradientUnits="userSpaceOnUse" x1="84.2681" y1="141.0332" x2="84.2681" y2="62.1318">
				<stop  offset="0" style="stop-color:#FFFFFF"/>
				<stop  offset="0.016" style="stop-color:#F3F3F3"/>
				<stop  offset="0.0908" style="stop-color:#C1C1C1"/>
				<stop  offset="0.1709" style="stop-color:#939393"/>
				<stop  offset="0.2546" style="stop-color:#6B6B6B"/>
				<stop  offset="0.3429" style="stop-color:#4A4A4A"/>
				<stop  offset="0.437" style="stop-color:#2F2F2F"/>
				<stop  offset="0.539" style="stop-color:#1A1A1A"/>
				<stop  offset="0.6529" style="stop-color:#0B0B0B"/>
				<stop  offset="0.7881" style="stop-color:#030303"/>
				<stop  offset="1" style="stop-color:#000000"/>
			</linearGradient>
			<path mask="url(#SVGID_1_)" fill="url(#SVGID_2_)" d="M22.158,109.833l48.117,27.737c8.014,4.618,17.888,4.618,25.901,0
				l50.202-28.939c5.897-3.399,5.897-11.898,0-15.297L98.26,65.597c-8.015-4.62-17.888-4.62-25.901,0L22.158,94.535
				C16.259,97.934,16.259,106.434,22.158,109.833z"/>
		</g>
	</mask>
	<linearGradient id="SVGID_3_" gradientUnits="userSpaceOnUse" x1="84.2681" y1="141.0332" x2="84.2681" y2="62.1318">
		<stop  offset="0" style="stop-color:#000000;stop-opacity:0.3"/>
		<stop  offset="1" style="stop-color:#000000;stop-opacity:0.2"/>
	</linearGradient>
	<path opacity="0.6" fill="url(#SVGID_3_)" d="M22.158,109.833l48.117,27.737c8.014,4.618,17.888,4.618,25.901,0l50.202-28.939
		c5.897-3.399,5.897-11.898,0-15.297L98.26,65.597c-8.015-4.62-17.888-4.62-25.901,0L22.158,94.535
		C16.259,97.934,16.259,106.434,22.158,109.833z"/>
	<g>
		<linearGradient id="SVGID_4_" gradientUnits="userSpaceOnUse" x1="-0.6514" y1="95.9063" x2="174.2731" y2="95.9063">
			<stop  offset="0" style="stop-color:#DEE8FF"/>
			<stop  offset="1" style="stop-color:#788ACB"/>
		</linearGradient>
		<path fill="url(#SVGID_4_)" d="M93.796,120.201l55.15-31.792c2.043-1.176,3.063-3.236,3.063-5.296V69.212l-67.18,38.725V122.6
			C87.925,122.6,91.022,121.8,93.796,120.201z"/>
		<linearGradient id="SVGID_5_" gradientUnits="userSpaceOnUse" x1="-0.6523" y1="95.9063" x2="174.2747" y2="95.9063">
			<stop  offset="0" style="stop-color:#DEE8FF"/>
			<stop  offset="1" style="stop-color:#788ACB"/>
		</linearGradient>
		<path fill="url(#SVGID_5_)" d="M20.711,88.409l55.151,31.792c2.773,1.599,5.87,2.399,8.967,2.399v-14.663L17.649,69.212v13.901
			C17.649,85.173,18.669,87.233,20.711,88.409z"/>
	</g>
	<linearGradient id="SVGID_6_" gradientUnits="userSpaceOnUse" x1="17.6489" y1="69.2119" x2="152.0093" y2="69.2119">
		<stop  offset="6.300000e-007" style="stop-color:#FFFFFF"/>
		<stop  offset="1" style="stop-color:#E1E6F0"/>
	</linearGradient>
	<path fill="url(#SVGID_6_)" d="M20.711,74.508l55.151,31.792c5.548,3.198,12.385,3.198,17.934,0l55.15-31.792
		c4.084-2.354,4.084-8.238,0-10.592l-55.15-31.791c-5.549-3.198-12.386-3.198-17.934,0L20.711,63.916
		C16.628,66.27,16.628,72.154,20.711,74.508z"/>
	<g>
		<polygon fill="#6C9DA8" points="112.697,31.393 98.962,32.086 51.24,55.601 64.673,55.011 		"/>
		<g>
			<polygon fill="#B7C1C4" points="81.561,71.168 64.673,55.011 51.24,55.601 			"/>
		</g>
		<g>
			<polygon fill="#54666D" points="81.561,92.98 129.285,69.467 129.285,47.654 81.561,71.168 			"/>
		</g>
		<g>
			<polygon fill="#02424C" points="81.561,72.123 129.285,48.609 129.285,47.654 81.561,71.168 			"/>
		</g>
		<polygon fill="#44717F" points="129.285,47.654 112.697,31.393 64.673,55.011 81.561,71.168 129.285,47.654 		"/>
		<polygon fill="#6C9DA8" points="51.24,55.601 51.24,77.446 66.466,85.291 66.466,85.291 81.561,92.98 81.561,71.168 		"/>
		<polygon fill="#A7B3B7" points="51.24,56.665 51.24,77.446 81.561,92.98 81.561,72.123 		"/>
		<g>
			<polygon fill="#7A7A7A" points="79.439,70.08 64.673,55.725 52.641,56.332 51.929,55.955 64.673,55.011 80.933,70.848 			"/>
		</g>
		<g>
			<polygon fill="#EAEAEA" points="80.64,70.694 64.583,55.251 51.929,55.955 51.24,55.601 64.765,54.771 81.561,71.168 			"/>
		</g>
		<g>
			<g>
				<polygon fill="#FFFFFF" points="78.339,91.322 54.487,79.114 54.46,59.983 78.339,72.089 				"/>
				<polygon fill="#495151" points="78.022,91.171 54.823,79.285 54.823,67.054 78.022,78.813 				"/>
				<g>
					<polygon fill="#A8A8A8" points="78.022,84.358 54.823,72.525 54.823,60.883 78.022,72.644 					"/>
					<g>
						<polygon fill="#FFFFFF" points="54.823,61.355 54.823,62.603 78.022,74.362 78.022,73.115 						"/>
						<polygon fill="#FFFFFF" points="54.823,64.156 78.022,75.916 78.022,74.667 54.823,62.908 						"/>
						<polygon fill="#FFFFFF" points="54.823,65.717 78.022,77.475 78.022,76.226 54.823,64.468 						"/>
						<polygon fill="#FFFFFF" points="54.823,67.269 78.022,79.03 78.022,77.781 54.823,66.021 						"/>
						<polygon fill="#FFFFFF" points="54.823,68.807 78.022,80.565 78.022,79.318 54.823,67.556 						"/>
						<polygon fill="#FFFFFF" points="54.823,70.357 78.022,82.118 78.022,80.871 54.823,69.111 						"/>
						<polygon fill="#FFFFFF" points="54.823,71.918 78.022,83.677 78.022,82.431 54.823,70.669 						"/>
					</g>
					<g>
						<polygon fill="#D6D6D6" points="54.823,61.979 54.823,62.603 78.022,74.362 78.022,73.737 						"/>
						<polygon fill="#D6D6D6" points="54.823,64.156 78.022,75.916 78.022,75.293 54.823,63.533 						"/>
						<polygon fill="#D6D6D6" points="54.823,65.717 78.022,77.475 78.022,76.851 54.823,65.092 						"/>
						<polygon fill="#D6D6D6" points="54.823,67.269 78.022,79.03 78.022,78.403 54.823,66.646 						"/>
						<polygon fill="#D6D6D6" points="54.823,68.807 78.022,80.565 78.022,79.941 54.823,68.18 						"/>
						<polygon fill="#D6D6D6" points="54.823,70.357 78.022,82.118 78.022,81.495 54.823,69.734 						"/>
						<polygon fill="#D6D6D6" points="54.823,71.918 78.022,83.677 78.022,83.054 54.823,71.295 						"/>
					</g>
				</g>
			</g>
			<polygon fill="#5F6666" points="54.823,79.285 61.736,76.497 54.823,72.935 			"/>
		</g>
		<polygon fill="#EAEAEA" points="51.24,76.262 54.46,77.823 54.49,79.112 51.24,77.446 		"/>
		<polygon fill="#EAEAEA" points="78.329,90.076 81.569,91.737 81.561,92.98 78.329,91.325 		"/>
		<polygon fill="#A7B3B7" points="81.569,91.737 129.285,68.172 129.285,69.467 81.561,92.98 		"/>
		<g>
			<g>
				
					<rect x="63.545" y="61.967" transform="matrix(0.7047 0.7095 -0.7095 0.7047 66.2465 -34.9647)" fill="#02424C" width="23.164" height="0.267"/>
			</g>
			<g>
				
					<rect x="65.443" y="61.036" transform="matrix(0.7047 0.7095 -0.7095 0.7047 66.148 -36.5864)" fill="#02424C" width="23.165" height="0.269"/>
			</g>
			<g>
				
					<rect x="67.342" y="60.107" transform="matrix(0.7048 0.7095 -0.7095 0.7048 66.04 -38.2073)" fill="#02424C" width="23.164" height="0.267"/>
			</g>
			<g>
				
					<rect x="69.241" y="59.177" transform="matrix(0.7047 0.7095 -0.7095 0.7047 65.9485 -39.8292)" fill="#02424C" width="23.163" height="0.268"/>
			</g>
			<g>
				
					<rect x="71.14" y="58.249" transform="matrix(0.7047 0.7095 -0.7095 0.7047 65.8489 -41.4509)" fill="#02424C" width="23.163" height="0.268"/>
			</g>
			<g>
				
					<rect x="73.038" y="57.318" transform="matrix(0.7047 0.7095 -0.7095 0.7047 65.7526 -43.073)" fill="#02424C" width="23.165" height="0.268"/>
			</g>
			<g>
				
					<rect x="74.936" y="56.389" transform="matrix(0.7047 0.7095 -0.7095 0.7047 65.6461 -44.693)" fill="#02424C" width="23.165" height="0.267"/>
			</g>
			<g>
				
					<rect x="76.836" y="55.46" transform="matrix(0.7047 0.7095 -0.7095 0.7047 65.558 -46.317)" fill="#02424C" width="23.163" height="0.267"/>
			</g>
			<g>
				
					<rect x="78.734" y="54.53" transform="matrix(0.7047 0.7095 -0.7095 0.7047 65.4531 -47.9371)" fill="#02424C" width="23.163" height="0.268"/>
			</g>
			<g>
				
					<rect x="80.633" y="53.601" transform="matrix(0.7047 0.7095 -0.7095 0.7047 65.3522 -49.5578)" fill="#02424C" width="23.161" height="0.267"/>
			</g>
			<g>
				
					<rect x="82.531" y="52.67" transform="matrix(0.7047 0.7095 -0.7095 0.7047 65.2553 -51.1806)" fill="#02424C" width="23.166" height="0.268"/>
			</g>
			<g>
				
					<rect x="84.43" y="51.741" transform="matrix(0.7047 0.7095 -0.7095 0.7047 65.1544 -52.8018)" fill="#02424C" width="23.164" height="0.267"/>
			</g>
			<g>
				
					<rect x="86.329" y="50.81" transform="matrix(0.7047 0.7095 -0.7095 0.7047 65.0552 -54.4233)" fill="#02424C" width="23.164" height="0.268"/>
			</g>
			<g>
				
					<rect x="88.227" y="49.882" transform="matrix(0.7047 0.7095 -0.7095 0.7047 64.9555 -56.0439)" fill="#02424C" width="23.164" height="0.267"/>
			</g>
			<g>
				
					<rect x="90.126" y="48.953" transform="matrix(0.7047 0.7095 -0.7095 0.7047 64.8602 -57.6673)" fill="#02424C" width="23.166" height="0.268"/>
			</g>
			<g>
				
					<rect x="92.025" y="48.024" transform="matrix(0.7047 0.7095 -0.7095 0.7047 64.7695 -59.2915)" fill="#02424C" width="23.165" height="0.266"/>
			</g>
			<g>
				
					<rect x="93.923" y="47.093" transform="matrix(0.7047 0.7095 -0.7095 0.7047 64.6621 -60.9102)" fill="#02424C" width="23.166" height="0.268"/>
			</g>
			<g>
				
					<rect x="95.822" y="46.164" transform="matrix(0.7047 0.7095 -0.7095 0.7047 64.5612 -62.5308)" fill="#02424C" width="23.163" height="0.267"/>
			</g>
			<g>
				
					<rect x="97.721" y="45.234" transform="matrix(0.7047 0.7095 -0.7095 0.7047 64.4689 -64.1548)" fill="#02424C" width="23.163" height="0.267"/>
			</g>
			<g>
				
					<rect x="99.619" y="44.305" transform="matrix(0.7047 0.7095 -0.7095 0.7047 64.3689 -65.7762)" fill="#02424C" width="23.165" height="0.266"/>
			</g>
			<g>
				
					<rect x="101.518" y="43.376" transform="matrix(0.7047 0.7095 -0.7095 0.7047 64.2653 -67.3954)" fill="#02424C" width="23.164" height="0.267"/>
			</g>
			<g>
				
					<rect x="103.417" y="42.447" transform="matrix(0.7047 0.7095 -0.7095 0.7047 64.1698 -69.0183)" fill="#02424C" width="23.163" height="0.266"/>
			</g>
			<g>
				
					<rect x="105.316" y="41.515" transform="matrix(0.7047 0.7095 -0.7095 0.7047 64.0666 -70.6393)" fill="#02424C" width="23.164" height="0.268"/>
			</g>
			<g>
				
					<rect x="107.214" y="40.586" transform="matrix(0.7047 0.7095 -0.7095 0.7047 63.972 -72.2624)" fill="#02424C" width="23.165" height="0.268"/>
			</g>
		</g>
		<polygon fill="#44717F" points="112.506,31.283 110.449,32.287 110.448,32.265 97.294,32.948 96.689,33.245 109.886,32.562 
			108.55,33.212 108.55,33.203 95.39,33.886 94.784,34.185 107.962,33.5 106.652,34.14 93.487,34.824 92.881,35.124 106.039,34.439 
			104.725,35.081 91.583,35.762 90.978,36.06 90.978,36.061 104.113,35.378 102.801,36.019 89.679,36.701 89.082,36.995 
			89.082,36.999 102.189,36.318 100.876,36.958 87.775,37.638 87.185,37.93 87.185,37.938 100.264,37.256 98.953,37.896 
			85.871,38.578 85.287,38.865 85.287,38.875 98.339,38.196 97.027,38.836 83.967,39.515 83.39,39.799 83.39,39.812 96.414,39.135 
			95.103,39.776 82.063,40.454 81.494,40.734 81.494,40.75 94.49,40.075 93.177,40.715 80.16,41.393 79.595,41.669 79.596,41.687 
			92.566,41.014 91.253,41.655 78.254,42.33 77.699,42.603 77.699,42.625 90.641,41.952 89.33,42.593 76.351,43.268 75.8,43.54 
			75.801,43.563 88.716,42.892 87.406,43.531 74.448,44.205 73.902,44.473 73.905,44.501 86.792,43.832 85.481,44.471 
			72.543,45.144 72.005,45.407 72.007,45.438 84.868,44.769 83.556,45.41 70.64,46.083 70.111,46.344 70.111,46.377 82.943,45.709 
			81.631,46.35 68.735,47.021 68.211,47.279 68.212,47.313 81.019,46.649 79.707,47.288 66.832,47.958 66.314,48.212 66.316,48.252 
			79.095,47.588 77.783,48.228 64.927,48.897 64.417,49.148 64.419,49.19 77.17,48.528 75.857,49.168 63.023,49.833 62.52,50.083 
			62.522,50.126 75.246,49.466 73.934,50.106 61.121,50.773 60.623,51.018 60.625,51.066 73.322,50.405 72.009,51.046 
			59.215,51.709 58.726,51.953 58.728,52.003 71.398,51.343 70.085,51.985 57.312,52.649 56.829,52.887 56.832,52.94 69.472,52.284 
			68.161,52.924 55.408,53.585 54.931,53.82 54.935,53.877 67.548,53.222 66.236,53.863 53.504,54.524 53.034,54.756 53.037,54.815 
			65.623,54.163 64.362,54.776 64.761,55 112.735,31.539 		"/>
		<g>
			<polygon fill="#02424C" points="64.881,55.01 64.483,54.79 112.626,31.293 112.855,31.549 			"/>
		</g>
	</g>
</g>
</svg>
