<?xml version="1.0" encoding="utf-8"?>
<!-- Generator: Adobe Illustrator 16.0.0, SVG Export Plug-In . SVG Version: 6.00 Build 0)  -->
<!DOCTYPE svg PUBLIC "-//W3C//DTD SVG 1.1//EN" "http://www.w3.org/Graphics/SVG/1.1/DTD/svg11.dtd">
<svg version="1.1" xmlns="http://www.w3.org/2000/svg" xmlns:xlink="http://www.w3.org/1999/xlink" x="0px" y="0px"
	 width="169.66px" height="166.258px" viewBox="0 0 169.66 166.258" enable-background="new 0 0 169.66 166.258"
	 xml:space="preserve">
<g id="Layer_2">
</g>
<g id="Layer_1">
	<defs>
		<filter id="Adobe_OpacityMaskFilter" filterUnits="userSpaceOnUse" x="18.845" y="71.388" width="133.067" height="78.902">
			<feFlood  style="flood-color:white;flood-opacity:1" result="back"/>
			<feBlend  in="SourceGraphic" in2="back" mode="normal"/>
		</filter>
	</defs>
	<mask maskUnits="userSpaceOnUse" x="18.845" y="71.388" width="133.067" height="78.902" id="SVGID_1_">
		<g filter="url(#Adobe_OpacityMaskFilter)">
			<defs>
				<filter id="Adobe_OpacityMaskFilter_1_" filterUnits="userSpaceOnUse" x="18.845" y="71.388" width="133.067" height="78.902">
					<feFlood  style="flood-color:white;flood-opacity:1" result="back"/>
					<feBlend  in="SourceGraphic" in2="back" mode="normal"/>
				</filter>
			</defs>
			<mask maskUnits="userSpaceOnUse" x="18.845" y="71.388" width="133.067" height="78.902" id="SVGID_1_">
			</mask>
			<linearGradient id="SVGID_2_" gradientUnits="userSpaceOnUse" x1="85.3779" y1="150.29" x2="85.3779" y2="71.3877">
				<stop  offset="0" style="stop-color:#FFFFFF"/>
				<stop  offset="0.016" style="stop-color:#F3F3F3"/>
				<stop  offset="0.0908" style="stop-color:#C1C1C1"/>
				<stop  offset="0.1709" style="stop-color:#939393"/>
				<stop  offset="0.2546" style="stop-color:#6B6B6B"/>
				<stop  offset="0.3429" style="stop-color:#4A4A4A"/>
				<stop  offset="0.437" style="stop-color:#2F2F2F"/>
				<stop  offset="0.539" style="stop-color:#1A1A1A"/>
				<stop  offset="0.6529" style="stop-color:#0B0B0B"/>
				<stop  offset="0.7881" style="stop-color:#030303"/>
				<stop  offset="1" style="stop-color:#000000"/>
			</linearGradient>
			<path mask="url(#SVGID_1_)" fill="url(#SVGID_2_)" d="M23.268,119.089l48.118,27.736c8.014,4.62,17.887,4.62,25.901,0
				l50.202-28.938c5.897-3.399,5.897-11.898,0-15.298L99.371,74.854c-8.014-4.621-17.887-4.621-25.901,0l-50.202,28.938
				C17.37,107.191,17.37,115.69,23.268,119.089z"/>
		</g>
	</mask>
	<linearGradient id="SVGID_3_" gradientUnits="userSpaceOnUse" x1="85.3779" y1="150.29" x2="85.3779" y2="71.3877">
		<stop  offset="0" style="stop-color:#000000;stop-opacity:0.3"/>
		<stop  offset="1" style="stop-color:#000000;stop-opacity:0.2"/>
	</linearGradient>
	<path opacity="0.6" fill="url(#SVGID_3_)" d="M23.268,119.089l48.118,27.736c8.014,4.62,17.887,4.62,25.901,0l50.202-28.938
		c5.897-3.399,5.897-11.898,0-15.298L99.371,74.854c-8.014-4.621-17.887-4.621-25.901,0l-50.202,28.938
		C17.37,107.191,17.37,115.69,23.268,119.089z"/>
	<g>
		<linearGradient id="SVGID_4_" gradientUnits="userSpaceOnUse" x1="0.458" y1="105.1631" x2="175.3838" y2="105.1631">
			<stop  offset="0" style="stop-color:#DEE8FF"/>
			<stop  offset="1" style="stop-color:#788ACB"/>
		</linearGradient>
		<path fill="url(#SVGID_4_)" d="M94.906,129.458l55.151-31.793c2.042-1.177,3.062-3.235,3.062-5.296v-13.9l-67.18,38.724v14.663
			C89.036,131.856,92.133,131.056,94.906,129.458z"/>
		<linearGradient id="SVGID_5_" gradientUnits="userSpaceOnUse" x1="0.458" y1="105.1631" x2="175.3838" y2="105.1631">
			<stop  offset="0" style="stop-color:#DEE8FF"/>
			<stop  offset="1" style="stop-color:#788ACB"/>
		</linearGradient>
		<path fill="url(#SVGID_5_)" d="M21.822,97.665l55.151,31.793c2.774,1.598,5.87,2.398,8.966,2.398v-14.663l-67.18-38.724v13.9
			C18.759,94.43,19.78,96.488,21.822,97.665z"/>
	</g>
	<linearGradient id="SVGID_6_" gradientUnits="userSpaceOnUse" x1="16.5405" y1="77.5439" x2="150.9009" y2="77.5439">
		<stop  offset="6.300000e-007" style="stop-color:#FFFFFF"/>
		<stop  offset="1" style="stop-color:#E1E6F0"/>
	</linearGradient>
	<path fill="url(#SVGID_6_)" d="M19.603,82.839l55.152,31.792c5.547,3.198,12.384,3.198,17.933,0l55.151-31.792
		c4.083-2.354,4.083-8.238,0-10.592L92.688,40.457c-5.548-3.198-12.385-3.198-17.933,0L19.603,72.248
		C15.52,74.601,15.52,80.486,19.603,82.839z"/>
	<g>
		<polygon fill="#E0E0E0" points="102.102,13.245 102.283,76.821 66.356,97.565 66.176,33.99 		"/>
	</g>
	<polygon fill="#F86775" points="99.7,28.45 74.639,42.92 74.65,46.596 99.71,32.127 99.7,28.45 	"/>
	<polygon fill="#F86775" points="99.7,21.938 74.639,36.408 74.65,40.084 99.71,25.613 99.7,21.938 	"/>
	<g>
		<g>
			<polygon fill="#6C9DA8" points="66.176,33.99 64.548,33.044 100.476,12.303 102.102,13.245 			"/>
		</g>
		<polygon fill="#6C9DA8" points="72.861,51.36 69.69,53.193 69.702,56.836 72.871,55.005 72.861,51.36 		"/>
		<polygon fill="#6C9DA8" points="72.873,55.933 69.705,57.767 69.714,61.404 72.883,59.577 72.873,55.933 		"/>
		<polygon fill="#6C9DA8" points="72.889,60.526 69.716,62.357 69.727,65.998 72.896,64.167 72.889,60.526 		"/>
		<polygon fill="#6C9DA8" points="72.92,72.281 69.751,74.111 69.761,77.755 72.93,75.925 72.92,72.281 		"/>
		<polygon fill="#6C9DA8" points="72.934,76.857 69.762,78.687 69.773,82.331 72.943,80.496 72.934,76.857 		"/>
		<polygon fill="#6C9DA8" points="72.945,81.446 69.777,83.279 69.787,86.918 72.957,85.09 72.945,81.446 		"/>
		<polygon fill="#6C9DA8" points="99.766,51.318 74.703,65.792 74.712,69.468 99.775,54.997 99.766,51.318 		"/>
		<polygon fill="#6C9DA8" points="99.726,37.311 74.664,51.78 74.667,52.798 99.728,38.327 99.726,37.311 		"/>
		<polygon fill="#6C9DA8" points="99.739,41.819 74.678,56.284 74.679,57.302 99.742,42.836 99.739,41.819 		"/>
		<polygon fill="#6C9DA8" points="99.75,46.34 74.689,60.811 74.692,61.807 99.753,47.339 99.75,46.34 		"/>
		<polygon fill="#6C9DA8" points="99.809,66.751 74.748,81.222 74.751,82.221 99.813,67.751 99.809,66.751 		"/>
		<polygon fill="#6C9DA8" points="99.786,58.518 74.724,72.991 74.727,74.003 99.788,59.539 99.786,58.518 		"/>
		<polygon fill="#6C9DA8" points="99.797,62.635 74.735,77.105 74.739,78.123 99.799,63.655 99.797,62.635 		"/>
	</g>
	<linearGradient id="SVGID_7_" gradientUnits="userSpaceOnUse" x1="64.5483" y1="65.3047" x2="66.356" y2="65.3047">
		<stop  offset="6.300000e-007" style="stop-color:#FFFFFF"/>
		<stop  offset="1" style="stop-color:#E1E6F0"/>
	</linearGradient>
	<polygon fill="url(#SVGID_7_)" points="64.548,33.044 64.548,94.925 66.356,97.565 66.176,33.99 	"/>
</g>
</svg>
