<?xml version="1.0" encoding="utf-8"?>
<!-- Generator: Adobe Illustrator 24.0.2, SVG Export Plug-In . SVG Version: 6.00 Build 0)  -->
<svg version="1.1" id="Layer_1" xmlns="http://www.w3.org/2000/svg" xmlns:xlink="http://www.w3.org/1999/xlink" x="0px" y="0px"
	 viewBox="0 0 250.6 165" style="enable-background:new 0 0 250.6 165;" xml:space="preserve">
<style type="text/css">
	.st0{clip-path:url(#SVGID_4_);}
	.st1{filter:url(#Adobe_OpacityMaskFilter);}
	.st2{clip-path:url(#SVGID_5_);}
	.st3{clip-path:url(#SVGID_9_);}
	.st4{clip-path:url(#SVGID_10_);fill:url(#SVGID_11_);}
	.st5{clip-path:url(#SVGID_5_);mask:url(#SVGID_6_);fill:url(#SVGID_12_);}
	.st6{opacity:0.5;fill:url(#SVGID_13_);enable-background:new    ;}
	.st7{fill:url(#SVGID_14_);}
	.st8{fill:url(#SVGID_15_);}
	.st9{fill:#D4CFE9;}
	.st10{opacity:0.3;fill:#FFFFFF;enable-background:new    ;}
	.st11{fill:#000039;}
	.st12{fill:#FFFFFF;}
	.st13{fill:url(#SVGID_16_);}
	.st14{opacity:0.2;fill:#FF4A5E;enable-background:new    ;}
	.st15{fill:#FFD657;}
	.st16{fill:#1487DD;}
	.st17{opacity:0.4;fill:#CF234B;}
	.st18{fill:#1B6EC7;}
</style>
<g id="Layer_2_1_">
</g>
<g id="Layer_1_1_">
	<g>
		<g>
			<defs>
				<polygon id="SVGID_1_" points="1,1 2,1 1,2 				"/>
			</defs>
			<defs>
				<polygon id="SVGID_3_" points="-1,-1 -2,-1 -1,-2 				"/>
			</defs>
			<clipPath id="SVGID_4_">
				<use xlink:href="#SVGID_1_"  style="overflow:visible;"/>
			</clipPath>
			<clipPath id="SVGID_5_" class="st0">
				<use xlink:href="#SVGID_3_"  style="overflow:visible;"/>
			</clipPath>
			<defs>
				<filter id="Adobe_OpacityMaskFilter" filterUnits="userSpaceOnUse" x="16.2" y="33.1" width="133.1" height="78.9">
					<feColorMatrix  type="matrix" values="1 0 0 0 0  0 1 0 0 0  0 0 1 0 0  0 0 0 1 0"/>
				</filter>
			</defs>
			<mask maskUnits="userSpaceOnUse" x="16.2" y="33.1" width="133.1" height="78.9" id="SVGID_6_">
				<g class="st1">
					<g>
						<defs>
							<polygon id="SVGID_7_" points="1,1 2,1 1,2 							"/>
						</defs>
						<defs>
							<polygon id="SVGID_8_" points="-1,-1 -2,-1 -1,-2 							"/>
						</defs>
						<clipPath id="SVGID_9_" class="st2">
							<use xlink:href="#SVGID_7_"  style="overflow:visible;"/>
						</clipPath>
						<clipPath id="SVGID_10_" class="st3">
							<use xlink:href="#SVGID_8_"  style="overflow:visible;"/>
						</clipPath>
						
							<linearGradient id="SVGID_11_" gradientUnits="userSpaceOnUse" x1="82.6852" y1="54.0287" x2="82.6852" y2="132.929" gradientTransform="matrix(1 0 0 -1 0 166)">
							<stop  offset="0" style="stop-color:#FFFFFF"/>
							<stop  offset="1.600000e-02" style="stop-color:#F3F3F3"/>
							<stop  offset="9.080000e-02" style="stop-color:#C1C1C1"/>
							<stop  offset="0.1709" style="stop-color:#939393"/>
							<stop  offset="0.2546" style="stop-color:#6B6B6B"/>
							<stop  offset="0.3429" style="stop-color:#4A4A4A"/>
							<stop  offset="0.437" style="stop-color:#2F2F2F"/>
							<stop  offset="0.539" style="stop-color:#1A1A1A"/>
							<stop  offset="0.6529" style="stop-color:#0B0B0B"/>
							<stop  offset="0.7881" style="stop-color:#030303"/>
							<stop  offset="1" style="stop-color:#000000"/>
						</linearGradient>
						<path class="st4" d="M20.6,80.8l48.1,27.7c8,4.6,17.9,4.6,25.9,0l50.2-28.9c5.9-3.4,5.9-11.9,0-15.3L96.7,36.5
							c-8-4.6-17.9-4.6-25.9,0L20.6,65.5C14.7,68.9,14.7,77.4,20.6,80.8z"/>
					</g>
				</g>
			</mask>
			
				<linearGradient id="SVGID_12_" gradientUnits="userSpaceOnUse" x1="82.6852" y1="54.0287" x2="82.6852" y2="132.929" gradientTransform="matrix(1 0 0 -1 0 166)">
				<stop  offset="0" style="stop-color:#FFFFFF"/>
				<stop  offset="1.600000e-02" style="stop-color:#F3F3F3"/>
				<stop  offset="9.080000e-02" style="stop-color:#C1C1C1"/>
				<stop  offset="0.1709" style="stop-color:#939393"/>
				<stop  offset="0.2546" style="stop-color:#6B6B6B"/>
				<stop  offset="0.3429" style="stop-color:#4A4A4A"/>
				<stop  offset="0.437" style="stop-color:#2F2F2F"/>
				<stop  offset="0.539" style="stop-color:#1A1A1A"/>
				<stop  offset="0.6529" style="stop-color:#0B0B0B"/>
				<stop  offset="0.7881" style="stop-color:#030303"/>
				<stop  offset="1" style="stop-color:#000000"/>
			</linearGradient>
			<path class="st5" d="M20.6,80.8l48.1,27.7c8,4.6,17.9,4.6,25.9,0l50.2-28.9c5.9-3.4,5.9-11.9,0-15.3L96.7,36.5
				c-8-4.6-17.9-4.6-25.9,0L20.6,65.5C14.7,68.9,14.7,77.4,20.6,80.8z"/>
		</g>
	</g>
	
		<linearGradient id="SVGID_13_" gradientUnits="userSpaceOnUse" x1="122.949" y1="9.3717" x2="122.949" y2="132.929" gradientTransform="matrix(1 0 0 -1 0 166)">
		<stop  offset="0" style="stop-color:#000000;stop-opacity:0.3"/>
		<stop  offset="1" style="stop-color:#000000;stop-opacity:0.2"/>
	</linearGradient>
	<path class="st6" d="M20.6,80.8l128.6,72.4c8,4.6,17.9,4.6,25.9,0l50.2-28.9c5.9-3.4,5.9-11.9,0-15.3L96.7,36.5
		c-8-4.6-17.9-4.6-25.9,0L20.6,65.5C14.7,68.9,14.7,77.4,20.6,80.8z"/>
	
		<linearGradient id="SVGID_14_" gradientUnits="userSpaceOnUse" x1="233.986" y1="86.1707" x2="19.0398" y2="86.1707" gradientTransform="matrix(1 0 0 -1 0 166)">
		<stop  offset="0" style="stop-color:#7E95AE"/>
		<stop  offset="0.5556" style="stop-color:#B8D0DB"/>
		<stop  offset="1" style="stop-color:#FFEFE5"/>
	</linearGradient>
	<path class="st7" d="M234,94c0,2.6,0,5.2,0,7.3c0,1.5-0.6,3-2.6,4.1L171,140.4c-3.5,2-9.1,2-12.6,0L21.7,61.4
		c-1.8-1-2.6-2.4-2.6-3.8c0-2,0-5.2,0-7.3l63-31.1c3.5-2,9.1-2,12.6,0L234,94z"/>
	
		<linearGradient id="SVGID_15_" gradientUnits="userSpaceOnUse" x1="83.1096" y1="50.1124" x2="169.9553" y2="136.9581" gradientTransform="matrix(1 0 0 -1 0 166)">
		<stop  offset="0" style="stop-color:#CCD8E0"/>
		<stop  offset="0.582" style="stop-color:#FFFFFF"/>
		<stop  offset="1" style="stop-color:#E8E2E5"/>
	</linearGradient>
	<path class="st8" d="M231.4,90.8c3.5,2,3.5,5.3,0,7.3L171,133c-3.5,2-9.1,2-12.6,0L21.7,54.1c-3.5-2-3.5-5.3,0-7.3l60.4-34.9
		c3.5-2,9.1-2,12.6,0L231.4,90.8z"/>
	<polygon class="st9" points="213.6,84.7 147.7,122.7 32.3,56.1 98.2,18.1 	"/>
	<path class="st10" d="M231.2,95.3l-60.4,34.9c-3.5,2-9.1,2-12.6,0L21.5,51.3c-1-0.6-1.8-1.3-2.2-2c-0.7,1.7,0.1,3.5,2.4,4.8
		L158.4,133c3.5,2,9.1,2,12.6,0l60.4-34.9c2.5-1.4,3.2-3.5,2.2-5.3C233.2,93.8,232.4,94.6,231.2,95.3z"/>
	<path class="st11" d="M165.6,118.1C165.6,118.1,165.7,118.1,165.6,118.1L165.6,118.1L165.6,118.1z"/>
	<polygon class="st12" points="58.1,78 57,77.3 57,70 58.1,70.6 	"/>
	<polygon class="st12" points="148.2,134.5 147.1,133.9 147.1,126.5 148.2,127.2 	"/>
	<path class="st12" d="M196.2,106.2c3.1,1.8,3.1,4.7,0,6.5c-3.1,1.8-8.2,1.8-11.3,0c-3.1-1.8-3.1-4.7,0-6.5
		C188.1,104.4,193.1,104.4,196.2,106.2z"/>
	
		<linearGradient id="SVGID_16_" gradientUnits="userSpaceOnUse" x1="182.614" y1="57.253" x2="198.5778" y2="57.253" gradientTransform="matrix(1 0 0 -1 0 166)">
		<stop  offset="0" style="stop-color:#CCD8E0"/>
		<stop  offset="1" style="stop-color:#FFFFFF"/>
	</linearGradient>
	<path class="st13" d="M196.2,105.5c3.1,1.8,3.1,4.7,0,6.5c-3.1,1.8-8.2,1.8-11.3,0c-3.1-1.8-3.1-4.7,0-6.5
		C188.1,103.7,193.1,103.7,196.2,105.5z"/>
	<path class="st14" d="M109.9,95.1C109.9,95.1,109.9,95.1,109.9,95.1l0.5,0.1l-0.6-0.2C109.7,95.1,109.8,95.1,109.9,95.1z"/>
	<path class="st15" d="M200.9,47.1l0.1,0.1l0,0C200.9,47.1,200.9,47.1,200.9,47.1z"/>
	<g>
		<path class="st16" d="M153.2,71.3l0-2.3l-0.8,1c-0.1-0.1-0.2-0.1-0.3-0.2l-23.4-14.8c-1.4-0.8-3.8-0.8-5.2,0l-21.1,12.2
			c-0.1,0-0.1,0.1-0.2,0.1l-0.9-0.8v2.2v0v0l0,0c0,0.5,0.4,1.1,1.1,1.5l23.4,14.8c1.4,0.8,3.8,0.8,5.2,0l5.1-2.9l10.9-6.3l5.1-2.9
			C152.8,72.4,153.2,71.8,153.2,71.3L153.2,71.3z"/>
		<path class="st17" d="M153.2,73.6l0-2.3l-0.8,1c-0.1-0.1-0.2-0.1-0.3-0.2l-23.4-14.8c-1.4-0.8-3.8-0.8-5.2,0l-21.1,12.2
			c-0.1,0-0.1,0.1-0.2,0.1l-0.9-0.8V71l0,0v0v0c0,0.5,0.4,1.1,1.1,1.5l23.4,14.8c1.4,0.8,3.8,0.8,5.2,0l5.1-2.9l10.9-6.3l5.1-2.9
			C152.8,74.7,153.2,74.2,153.2,73.6L153.2,73.6z"/>
		<path class="st18" d="M123.5,52.6l-21.1,12.2c-1.4,0.8-1.4,2.2,0,3l23.4,14.8c1.4,0.8,3.8,0.8,5.2,0l16-9.2l5.1-2.9
			c1.4-0.8,1.4-2.2,0-3l-23.4-14.8C127.3,51.8,125,51.8,123.5,52.6z"/>
		<path class="st17" d="M139.5,74.2c-3.4-2-6.8-4.1-10.2-6.1c0,0,0,0-0.1,0c0,0,0,0,0-0.1c0,0,0,0,0.1,0c0.8-0.4,1.6-0.8,2.5-1.1
			c0.1,0,0.1,0,0-0.1c-0.3-0.2-0.6-0.5-1-0.7c-0.3-0.2-0.6-0.4-0.9-0.7c-0.3-0.2-0.6-0.4-0.9-0.7c-0.2-0.2-0.5-0.3-0.7-0.5
			c0,0,0,0-0.1,0c0,0-0.1,0-0.1,0c-1,0.4-1.9,0.9-2.9,1.3c-0.1,0-0.1,0-0.2,0c-0.9-0.6-1.9-1.1-2.8-1.7c-0.2-0.1-0.4-0.3-0.6-0.5
			c-0.4-0.3-0.4-0.6-0.2-0.9c0.2-0.2,0.4-0.3,0.6-0.4c0.5-0.2,1-0.5,1.5-0.7c0,0,0,0,0.1,0c-1.2-0.7-2.4-1.4-3.7-2.2
			c-0.1,0-0.2,0.1-0.3,0.1c-0.3,0.1-0.7,0.2-1,0.4c-0.5,0.2-1,0.4-1.5,0.6c-0.6,0.3-1,0.7-1.2,1.1c-0.3,0.7,0,1.5,0.9,2.3
			c0.3,0.3,0.7,0.6,1.1,0.9c0.3,0.2,0.6,0.4,0.9,0.6c1,0.6,1.9,1.1,2.9,1.7c0.1,0.1,0.1,0.1,0,0.1c-0.8,0.4-1.7,0.8-2.5,1.1
			c0,0,0,0-0.1,0c0,0,0,0,0.1,0c1.3,0.8,2.6,1.6,3.9,2.3c0.1,0,0.1,0,0.2,0c0.8-0.4,1.7-0.8,2.5-1.1c0.1,0,0.1,0,0.2,0
			c3.4,2,6.8,4.1,10.2,6.1c0.1,0.1,0.1,0.1,0.1,0.1l3.3-1.5C139.7,74.3,139.6,74.3,139.5,74.2z"/>
		<path class="st12" d="M140.5,74.5c-3.4-2-6.8-4.1-10.2-6.1c0,0,0,0-0.1,0c0,0,0,0,0-0.1c0,0,0,0,0.1,0c0.8-0.4,1.6-0.8,2.5-1.1
			c0.1,0,0.1,0,0-0.1c-0.3-0.2-0.6-0.5-1-0.7c-0.3-0.2-0.6-0.4-0.9-0.7c-0.3-0.2-0.6-0.4-0.9-0.7c-0.2-0.2-0.5-0.3-0.7-0.5
			c0,0,0,0-0.1,0c0,0-0.1,0-0.1,0c-1,0.4-1.9,0.9-2.9,1.3c-0.1,0-0.1,0-0.2,0c-0.9-0.6-1.9-1.1-2.8-1.7c-0.2-0.1-0.4-0.3-0.6-0.5
			c-0.4-0.3-0.4-0.6-0.2-0.9c0.2-0.2,0.4-0.3,0.6-0.4c0.5-0.2,1-0.5,1.5-0.7c0,0,0,0,0.1,0c-1.2-0.7-2.4-1.4-3.7-2.2
			c-0.1,0-0.2,0.1-0.3,0.1c-0.3,0.1-0.7,0.2-1,0.4c-0.5,0.2-1,0.4-1.5,0.6c-0.6,0.3-1,0.7-1.2,1.1c-0.3,0.7,0,1.5,0.9,2.3
			c0.3,0.3,0.7,0.6,1.1,0.9c0.3,0.2,0.6,0.4,0.9,0.6c1,0.6,1.9,1.1,2.9,1.7c0.1,0.1,0.1,0.1,0,0.1c-0.8,0.4-1.7,0.8-2.5,1.1
			c0,0,0,0-0.1,0c0,0,0,0,0.1,0c1.3,0.8,2.6,1.6,3.9,2.3c0.1,0,0.1,0,0.2,0c0.8-0.4,1.7-0.8,2.5-1.1c0.1,0,0.1,0,0.2,0
			c3.4,2,6.8,4.1,10.2,6.1c0.1,0.1,0.1,0.1,0.1,0.1l3.3-1.5C140.6,74.5,140.6,74.5,140.5,74.5z"/>
	</g>
</g>
</svg>
