<?xml version="1.0" encoding="utf-8"?>
<!-- Generator: Adobe Illustrator 16.0.0, SVG Export Plug-In . SVG Version: 6.00 Build 0)  -->
<!DOCTYPE svg PUBLIC "-//W3C//DTD SVG 1.1//EN" "http://www.w3.org/Graphics/SVG/1.1/DTD/svg11.dtd">
<svg version="1.1" xmlns="http://www.w3.org/2000/svg" xmlns:xlink="http://www.w3.org/1999/xlink" x="0px" y="0px"
	 width="169.66px" height="166.258px" viewBox="0 0 169.66 166.258" enable-background="new 0 0 169.66 166.258"
	 xml:space="preserve">
<g id="Layer_2">
</g>
<g id="Layer_1">
	<g>
		<path fill="#8001E4" d="M50.073,111.589l6.189,9.052c2.314,3.385,7.027,4.092,10.25,1.539l0,0
			c3.353-2.656,3.605-7.643,0.538-10.607c0,0-6.935-4.818-9.422-6.124C50.711,101.818,46.019,105.658,50.073,111.589z"/>
		<path fill="#E361C7" d="M50.85,109.972l6.188,9.052c2.314,3.384,7.026,4.092,10.25,1.539l0,0
			c3.353-2.656,3.605-7.643,0.537-10.607c0,0-6.934-4.818-9.421-6.124C51.487,100.2,46.795,104.041,50.85,109.972z"/>
		<path fill="#FBB47E" d="M62.383,118.732c-1.664-1.186-2.378-3.389-1.601-5.379l5.426-13.904c0.917-2.35,3.565-3.512,5.915-2.594
			c2.351,0.917,3.512,3.565,2.594,5.915l-5.426,13.905c-0.917,2.35-3.565,3.512-5.915,2.594
			C63.016,119.128,62.685,118.947,62.383,118.732z"/>
		<path fill="#2298F4" d="M68.784,106.235l-0.629-0.251c-3.743-1.494-5.565-5.74-4.071-9.483l2.136-5.351
			c1.079-2.703,4.145-4.019,6.848-2.94l4.395,1.754c2.703,1.079,4.02,4.146,2.94,6.848l-2.137,5.351
			C76.772,105.907,72.526,107.729,68.784,106.235z"/>
		<path fill="#D4CFE9" d="M70.386,107.903c0,0,13.34,12.107,29.9,10.296c17.159-1.877,23.827-15.07,15.763-18.76
			c-6.875-3.145-18.595-7.165-18.595-7.165L70.386,107.903z"/>
		<defs>
			<filter id="Adobe_OpacityMaskFilter" filterUnits="userSpaceOnUse" x="55.135" y="103.542" width="88.943" height="52.737">
				<feFlood  style="flood-color:white;flood-opacity:1" result="back"/>
				<feBlend  in="SourceGraphic" in2="back" mode="normal"/>
			</filter>
		</defs>
		<mask maskUnits="userSpaceOnUse" x="55.135" y="103.542" width="88.943" height="52.737" id="SVGID_1_">
			<g filter="url(#Adobe_OpacityMaskFilter)">
				<defs>
					<filter id="Adobe_OpacityMaskFilter_1_" filterUnits="userSpaceOnUse" x="55.135" y="103.542" width="88.943" height="52.737">
						<feFlood  style="flood-color:white;flood-opacity:1" result="back"/>
						<feBlend  in="SourceGraphic" in2="back" mode="normal"/>
					</filter>
				</defs>
				<mask maskUnits="userSpaceOnUse" x="55.135" y="103.542" width="88.943" height="52.737" id="SVGID_1_">
				</mask>
				<linearGradient id="SVGID_2_" gradientUnits="userSpaceOnUse" x1="99.6069" y1="156.2793" x2="99.6069" y2="103.542">
					<stop  offset="0" style="stop-color:#FFFFFF"/>
					<stop  offset="0.016" style="stop-color:#F3F3F3"/>
					<stop  offset="0.0908" style="stop-color:#C1C1C1"/>
					<stop  offset="0.1709" style="stop-color:#939393"/>
					<stop  offset="0.2546" style="stop-color:#6B6B6B"/>
					<stop  offset="0.3429" style="stop-color:#4A4A4A"/>
					<stop  offset="0.437" style="stop-color:#2F2F2F"/>
					<stop  offset="0.539" style="stop-color:#1A1A1A"/>
					<stop  offset="0.6529" style="stop-color:#0B0B0B"/>
					<stop  offset="0.7881" style="stop-color:#030303"/>
					<stop  offset="1" style="stop-color:#000000"/>
				</linearGradient>
				<path mask="url(#SVGID_1_)" fill="url(#SVGID_2_)" d="M58.092,135.425l32.163,18.539c5.356,3.087,11.956,3.087,17.312,0
					l33.555-19.342c3.942-2.272,3.942-7.953,0-10.225l-32.163-18.539c-5.356-3.088-11.956-3.088-17.312,0L58.092,125.2
					C54.15,127.473,54.15,133.153,58.092,135.425z"/>
			</g>
		</mask>
		<linearGradient id="SVGID_3_" gradientUnits="userSpaceOnUse" x1="99.6069" y1="156.2793" x2="99.6069" y2="103.542">
			<stop  offset="0" style="stop-color:#000000;stop-opacity:0.3"/>
			<stop  offset="1" style="stop-color:#000000;stop-opacity:0.2"/>
		</linearGradient>
		<path fill="url(#SVGID_3_)" d="M58.092,135.425l32.163,18.539c5.356,3.087,11.956,3.087,17.312,0l33.555-19.342
			c3.942-2.272,3.942-7.953,0-10.225l-32.163-18.539c-5.356-3.088-11.956-3.088-17.312,0L58.092,125.2
			C54.15,127.473,54.15,133.153,58.092,135.425z"/>
		<g>
			<linearGradient id="SVGID_4_" gradientUnits="userSpaceOnUse" x1="42.8452" y1="126.1172" x2="159.7671" y2="126.1172">
				<stop  offset="0" style="stop-color:#DEE8FF"/>
				<stop  offset="1" style="stop-color:#788ACB"/>
			</linearGradient>
			<path fill="url(#SVGID_4_)" d="M105.975,142.355l36.864-21.25c1.365-0.787,2.047-2.163,2.047-3.54v-9.292l-44.904,25.883v9.801
				C102.052,143.959,104.121,143.425,105.975,142.355z"/>
			<linearGradient id="SVGID_5_" gradientUnits="userSpaceOnUse" x1="42.8462" y1="126.1172" x2="159.7668" y2="126.1172">
				<stop  offset="0" style="stop-color:#DEE8FF"/>
				<stop  offset="1" style="stop-color:#788ACB"/>
			</linearGradient>
			<path fill="url(#SVGID_5_)" d="M57.126,121.106l36.863,21.25c1.854,1.07,3.924,1.604,5.993,1.604v-9.801l-44.903-25.883v9.292
				C55.079,118.943,55.761,120.319,57.126,121.106z"/>
		</g>
		<linearGradient id="SVGID_6_" gradientUnits="userSpaceOnUse" x1="55.0791" y1="108.2744" x2="144.8857" y2="108.2744">
			<stop  offset="6.300000e-007" style="stop-color:#FFFFFF"/>
			<stop  offset="1" style="stop-color:#E1E6F0"/>
		</linearGradient>
		<path fill="url(#SVGID_6_)" d="M57.126,111.814l36.863,21.25c3.708,2.137,8.278,2.137,11.986,0l36.864-21.25
			c2.729-1.573,2.729-5.506,0-7.08l-36.864-21.249c-3.708-2.138-8.278-2.138-11.986,0l-36.863,21.249
			C54.396,106.308,54.396,110.241,57.126,111.814z"/>
		<path fill="#464982" d="M67.799,93.542c-0.025,0.527,0.023,1.051,0.141,1.556C67.822,94.544,67.78,94.028,67.799,93.542z"/>
		<polygon fill="#CBD9D9" points="67.94,95.097 67.94,95.097 67.94,95.097 		"/>
		<path fill="#575FE5" d="M102.297,89.236c-0.271-0.211,0.342-1.96,0.067-2.176c-5.002-3.945-11.855-15.977-20.223-13.647
			c-2.268,0.631-7.189,1.693-13.192,17.267c-0.046,0.119-0.086,0.238-0.124,0.358l0,0c-0.025,0.079-0.047,0.159-0.069,0.24
			c-0.051,0.189-0.091,0.379-0.122,0.57c-0.001,0.009-0.003,0.019-0.004,0.028c-0.015,0.101-0.027,0.203-0.037,0.304
			c-0.007,0.072-0.014,0.143-0.018,0.216c-0.001,0.021-0.002,0.043-0.003,0.065c-0.02,0.486,0.023,1.002,0.141,1.556v0
			c0.31,1.337,1.097,2.545,2.246,3.364c0.382,0.272,0.805,0.501,1.263,0.678c2.942,1.134,6.247-0.332,7.38-3.274
			c0.345-0.896,0.686-1.747,1.022-2.561c0.36-0.872,0.715-1.697,1.064-2.479c1.542-3.214,2.301-3.525,3.917-3.453
			c3.236,0.146,5.202,8.427,8.804,11.267c0.284,0.225,0.567,0.447,0.847,0.667c2.483,1.945,6.071,1.507,8.015-0.975
			C105.216,94.769,104.779,91.18,102.297,89.236z"/>
		<path fill="#8001E4" d="M28.479,127.686l9.686,5.142c3.621,1.922,8.123,0.36,9.792-3.399l0,0c1.735-3.909-0.357-8.442-4.452-9.642
			c0,0-8.378-1.046-11.188-1.047C24.505,118.736,22.133,124.317,28.479,127.686z"/>
		<path fill="#E361C7" d="M28.416,125.893l9.686,5.142c3.621,1.922,8.124,0.36,9.792-3.398v0c1.736-3.909-0.357-8.442-4.452-9.642
			c0,0-8.378-1.046-11.188-1.047C24.441,116.943,22.07,122.524,28.416,125.893z"/>
		<path fill="#FBB47E" d="M39.364,127.618c-1.664-1.186-2.378-3.39-1.602-5.379l5.426-13.905c0.917-2.35,3.565-3.511,5.915-2.594
			c2.351,0.917,3.512,3.565,2.594,5.916l-5.425,13.904c-0.917,2.35-3.565,3.512-5.916,2.594
			C39.997,128.013,39.665,127.832,39.364,127.618z"/>
		<path fill="#2298F4" d="M45.764,115.12l-0.628-0.251c-3.742-1.494-5.566-5.74-4.071-9.483l2.136-5.351
			c1.08-2.703,4.146-4.02,6.848-2.94l4.395,1.754c2.703,1.079,4.02,4.145,2.94,6.848l-2.136,5.352
			C53.752,114.792,49.506,116.615,45.764,115.12z"/>
		<path fill="#464982" d="M44.78,102.426c-0.025,0.527,0.023,1.051,0.141,1.556C44.802,103.429,44.76,102.913,44.78,102.426z"/>
		<path fill="#575FE5" d="M80.78,94.1c-0.27-0.211-0.543-0.426-0.817-0.643c-5.003-3.945-13.247-12.409-21.615-10.079
			c-2.269,0.632-7.19,1.693-13.192,17.267c-0.046,0.12-0.086,0.239-0.124,0.358l12.876-1.322l-0.013,0.03
			c1.542-3.214,3.437-4.285,5.052-4.212c3.236,0.145,6.343,4.083,9.945,6.923c0.285,0.225,0.567,0.447,0.847,0.666
			c2.482,1.945,6.071,1.508,8.015-0.974C83.699,99.632,83.262,96.043,80.78,94.1z"/>
		<path fill="#575FE5" d="M44.92,103.982c0.31,1.337,1.097,2.546,2.246,3.365c0.382,0.272,0.806,0.501,1.263,0.678
			c2.942,1.134,6.247-0.333,7.38-3.274c0.345-0.896,0.686-1.748,1.022-2.561l-0.01,0.023
			C52.305,102.047,48.178,102.417,44.92,103.982z"/>
		<polygon fill="#CBD9D9" points="44.92,103.982 44.92,103.982 44.92,103.982 		"/>
		<path fill="#464982" d="M45.032,101.003L45.032,101.003c-0.025,0.08-0.047,0.16-0.069,0.24c-0.05,0.19-0.091,0.38-0.122,0.57
			c-0.001,0.009-0.002,0.019-0.004,0.028c-0.016,0.101-0.027,0.203-0.037,0.304c-0.007,0.072-0.014,0.143-0.018,0.216
			c-0.001,0.021-0.002,0.043-0.003,0.065c-0.02,0.486,0.022,1.003,0.141,1.556v0c3.257-1.565,7.384-1.935,11.901-1.769l0.01-0.023
			c0.36-0.872,0.715-1.697,1.064-2.479l0.013-0.03L45.032,101.003z"/>
		<path fill="#575FE5" d="M45.032,101.003L45.032,101.003c-0.025,0.08-0.047,0.16-0.069,0.24c-0.05,0.19-0.091,0.38-0.122,0.57
			c-0.001,0.009-0.002,0.019-0.004,0.028c-0.016,0.101-0.027,0.203-0.037,0.304c-0.007,0.072-0.014,0.143-0.018,0.216
			c-0.001,0.021-0.002,0.043-0.003,0.065c-0.02,0.486,0.022,1.003,0.141,1.556v0c3.257-1.565,7.384-1.935,11.901-1.769l0.01-0.023
			c0.36-0.872,0.715-1.697,1.064-2.479l0.013-0.03L45.032,101.003z"/>
		<g>
			<path fill="#2298F4" d="M47.559,79.718L75.76,63.436c1.026-0.592,2.291-0.592,3.317,0l17.675,10.205
				c0.937,0.541,0.937,1.893,0,2.434L69.209,91.976c-1.493,0.862-3.333,0.862-4.826,0l-16.824-9.713
				C46.58,81.697,46.58,80.284,47.559,79.718z"/>
			<path fill="#96D1FF" d="M47.559,78.41L75.76,62.127c1.026-0.592,2.291-0.592,3.317,0l17.675,10.205
				c0.937,0.541,0.937,1.894,0,2.434L69.209,90.667c-1.493,0.862-3.333,0.862-4.826,0l-16.824-9.713
				C46.58,80.389,46.58,78.975,47.559,78.41z"/>
			<path fill="#2298F4" d="M41.553,55.114L70.45,38.43c0.741-0.428,1.686-0.019,1.879,0.815l4.669,20.025
				c0.262,1.122-0.242,2.282-1.238,2.857L46.864,78.81c-0.741,0.428-1.686,0.019-1.879-0.814L40.315,57.97
				C40.054,56.849,40.557,55.689,41.553,55.114z"/>
			<polygon fill="#FFFFFF" points="42.499,56.341 70.546,40.148 75.357,60.781 47.31,76.974 			"/>
			<g>
				<path fill="#575FE5" d="M70.698,81.151l4.758,2.747c0.533,0.308,1.189,0.308,1.722,0l7.19-4.151c0.416-0.24,0.416-0.841,0-1.081
					l-4.757-2.747c-0.533-0.308-1.189-0.308-1.722,0l-7.19,4.151C70.282,80.311,70.282,80.911,70.698,81.151z"/>
				<polygon fill="#575FE5" points="83.878,68.7 85.492,69.631 87.705,68.354 86.091,67.422 				"/>
				<polygon fill="#575FE5" points="81.161,70.269 82.775,71.2 84.988,69.922 83.374,68.991 				"/>
				<polygon fill="#575FE5" points="67.882,77.935 69.496,78.867 82.271,71.491 80.657,70.56 				"/>
				<polygon fill="#575FE5" points="64.86,79.68 66.474,80.611 68.687,79.334 67.073,78.402 				"/>
				<polygon fill="#575FE5" points="62.143,81.249 63.757,82.18 65.97,80.903 64.356,79.971 				"/>
				<polygon fill="#575FE5" points="59.426,82.817 61.041,83.749 63.253,82.471 61.639,81.54 				"/>
				<polygon fill="#575FE5" points="56.601,84.448 58.215,85.38 60.536,84.04 58.922,83.108 				"/>
				<polygon fill="#575FE5" points="81.466,67.307 83.08,68.239 85.292,66.962 83.679,66.03 				"/>
				<polygon fill="#575FE5" points="78.75,68.876 80.363,69.808 82.576,68.53 80.962,67.598 				"/>
				<polygon fill="#575FE5" points="76.032,70.445 77.646,71.376 79.859,70.099 78.245,69.167 				"/>
				<polygon fill="#575FE5" points="73.316,72.013 74.929,72.945 77.143,71.667 75.529,70.736 				"/>
				<polygon fill="#575FE5" points="70.599,73.582 72.213,74.514 74.425,73.236 72.812,72.304 				"/>
				<polygon fill="#575FE5" points="67.882,75.15 69.496,76.082 71.709,74.804 70.095,73.873 				"/>
				<polygon fill="#575FE5" points="65.166,76.719 66.779,77.65 68.992,76.373 67.378,75.441 				"/>
				<polygon fill="#575FE5" points="62.448,78.288 64.063,79.219 66.275,77.941 64.661,77.01 				"/>
				<polygon fill="#575FE5" points="59.731,79.856 61.345,80.788 63.558,79.51 61.944,78.579 				"/>
				<polygon fill="#575FE5" points="57.014,81.424 58.628,82.356 60.841,81.079 59.227,80.147 				"/>
				<polygon fill="#575FE5" points="54.19,83.056 55.804,83.987 58.125,82.647 56.51,81.715 				"/>
				<polygon fill="#575FE5" points="79.055,65.915 80.668,66.846 82.881,65.569 81.267,64.637 				"/>
				<polygon fill="#575FE5" points="76.338,67.484 77.952,68.416 80.165,67.138 78.551,66.206 				"/>
				<polygon fill="#575FE5" points="73.621,69.052 75.235,69.984 77.447,68.707 75.833,67.774 				"/>
				<polygon fill="#575FE5" points="70.904,70.621 72.518,71.552 74.731,70.275 73.117,69.343 				"/>
				<polygon fill="#575FE5" points="68.187,72.189 69.801,73.121 72.014,71.843 70.4,70.912 				"/>
				<polygon fill="#575FE5" points="65.47,73.758 67.084,74.69 69.297,73.412 67.683,72.48 				"/>
				<polygon fill="#575FE5" points="62.753,75.326 64.367,76.258 66.58,74.981 64.966,74.049 				"/>
				<polygon fill="#575FE5" points="60.037,76.895 61.65,77.827 63.863,76.549 62.25,75.617 				"/>
				<polygon fill="#575FE5" points="57.32,78.463 58.933,79.395 61.147,78.117 59.533,77.186 				"/>
				<polygon fill="#575FE5" points="54.603,80.032 56.217,80.964 58.43,79.686 56.815,78.754 				"/>
				<polygon fill="#575FE5" points="51.777,81.663 53.392,82.595 55.713,81.255 54.099,80.323 				"/>
				<polygon fill="#575FE5" points="76.642,64.522 78.256,65.454 80.469,64.177 78.855,63.245 				"/>
				<polygon fill="#575FE5" points="73.926,66.091 75.54,67.023 77.752,65.746 76.138,64.813 				"/>
				<polygon fill="#575FE5" points="71.209,67.66 72.823,68.591 75.036,67.313 73.422,66.382 				"/>
				<polygon fill="#575FE5" points="68.493,69.229 70.106,70.16 72.319,68.882 70.706,67.951 				"/>
				<polygon fill="#575FE5" points="65.775,70.797 67.39,71.729 69.602,70.451 67.988,69.519 				"/>
				<polygon fill="#575FE5" points="63.058,72.365 64.672,73.297 66.885,72.02 65.271,71.088 				"/>
				<polygon fill="#575FE5" points="60.342,73.934 61.956,74.866 64.168,73.588 62.554,72.656 				"/>
				<polygon fill="#575FE5" points="57.625,75.502 59.238,76.435 61.452,75.157 59.837,74.225 				"/>
				<polygon fill="#575FE5" points="54.908,77.071 56.522,78.003 58.734,76.726 57.121,75.793 				"/>
				<polygon fill="#575FE5" points="52.191,78.64 53.805,79.571 56.017,78.294 54.404,77.362 				"/>
				<polygon fill="#575FE5" points="49.366,80.271 50.98,81.203 53.301,79.863 51.687,78.93 				"/>
			</g>
			<g>
				<polygon fill="#E1E2F5" points="67.691,63.943 54.065,71.534 49.489,56.019 63.115,48.429 				"/>
				<polygon fill="#FFFFFF" points="68.662,61.596 55.036,69.187 50.459,53.672 64.085,46.082 				"/>
				<polygon fill="#96D1FF" points="64.49,47.451 50.864,55.041 50.459,53.672 64.085,46.082 				"/>
				<path fill="#D4CFE9" d="M64.762,56.785c-0.07-0.167-0.385-0.25-0.568-0.148l-9.127,4.932c-0.277,0.154-0.382,0.407-0.274,0.661
					c0.069,0.167,0.385,0.25,0.567,0.148l9.128-4.931C64.765,57.292,64.87,57.04,64.762,56.785z"/>
				<path fill="#D4CFE9" d="M65.277,58.479c-0.07-0.167-0.386-0.25-0.568-0.148l-9.128,4.931c-0.277,0.155-0.382,0.406-0.274,0.662
					c0.07,0.167,0.386,0.25,0.568,0.148l9.127-4.932C65.28,58.986,65.384,58.734,65.277,58.479z"/>
				<path fill="#D4CFE9" d="M65.792,60.174c-0.07-0.168-0.386-0.25-0.568-0.149l-9.127,4.932c-0.277,0.154-0.381,0.406-0.275,0.661
					c0.071,0.167,0.386,0.25,0.568,0.148l9.127-4.932C65.794,60.681,65.899,60.429,65.792,60.174z"/>
				
					<ellipse transform="matrix(0.9238 0.3829 -0.3829 0.9238 25.5672 -18.3658)" fill="#96D1FF" cx="58.918" cy="55.041" rx="2.388" ry="3.01"/>
			</g>
		</g>
		<g>
			
				<linearGradient id="SVGID_7_" gradientUnits="userSpaceOnUse" x1="1678.1885" y1="683.2651" x2="1685.6377" y2="683.2651" gradientTransform="matrix(-0.9406 -0.3396 -0.3396 0.9406 1928.9363 -51.5644)">
				<stop  offset="0.3323" style="stop-color:#EBB381"/>
				<stop  offset="1" style="stop-color:#A36BAA"/>
			</linearGradient>
			<path fill="url(#SVGID_7_)" d="M113.845,14.419c0.009-0.002,0.018-0.003,0.025-0.004l0.013-0.002l0,0
				c0.785-0.129,1.66,0.253,2.442,1.182c1.583,1.876,2.189,5.269,1.356,7.578c-0.447,1.238-1.217,1.913-2.08,1.983l-0.849,0.151
				l1.167-1.157l0.087-0.102l0.405-0.743l0.388-1.595l-0.176-3.141l-1.526-2.819l-0.684-0.451l-0.479-0.316l-1.076-0.389
				L113.845,14.419z"/>
			<path fill="#2298F4" d="M114.754,25.307l3.02-0.54c0.863-0.071,1.633-0.746,2.08-1.983c0.834-2.309,0.227-5.702-1.356-7.579
				c-0.783-0.928-1.658-1.311-2.443-1.182l0,0l-0.013,0.002c-0.009,0.001-0.017,0.003-0.026,0.004l-3.156,0.564L114.754,25.307z"/>
			<path fill="#FFFFFF" d="M110.927,16.561c-0.833,2.309-0.227,5.702,1.356,7.578c1.583,1.877,3.542,1.526,4.375-0.782
				c0.834-2.31,0.227-5.702-1.355-7.579C113.72,13.901,111.761,14.252,110.927,16.561z"/>
		</g>
		<path fill="#575FE5" d="M96.406,115.452c5.257-0.198,19.149-5.094,23.821-16.842c5.753-14.469,10.639-63.354-14.056-58.461
			c-5.629,1.115-11.965,5.056-13.683,11.421c-3.083,11.421-3.788,13.047-0.138,19.532c7.609,13.521,2.814,14.89-11.945,18.159
			C63.376,93.034,73.534,116.315,96.406,115.452z"/>
		<g>
			<path fill="#FBB47E" d="M104.412,45.141c-1.59-0.302-2.841-1.641-2.961-3.331l-0.898-12.589
				c-0.144-2.013,1.372-3.761,3.385-3.904s3.761,1.372,3.904,3.384l0.898,12.59c0.143,2.013-1.372,3.761-3.384,3.904
				C105.032,45.218,104.715,45.199,104.412,45.141z"/>
		</g>
		<path fill="#FBCCA7" d="M107.865,36.789c5.679-2.024,8.646-8.285,6.628-13.983c-2.018-5.698-8.257-8.675-13.936-6.651
			c-5.678,2.025-8.646,8.286-6.627,13.983C95.947,35.836,102.187,38.813,107.865,36.789z"/>
		<path fill="#7B1AB5" d="M93.5,21.891c0.992,2.353,5.654,2.874,8.54,2.566c3.087-0.329,4.621-0.288,6.48-0.037
			c4.703,0.636,4.727,7.442,7.473,7.154c1.599-0.167,2.588-3.042,2.888-4.575c0.981-5.023-2.529-10.571-7.144-13.191
			c-1.059-0.602-6.063-3.255-11.322-1.067C96.142,14.518,92.371,19.213,93.5,21.891z"/>
		<path fill="#3809A3" d="M102.919,11.802c6.972-1.457,13.49,3.439,16.196,8.058c2.819,4.813-0.707,6.735,2.075,10.526
			c3.381,4.608,4.699,4.656,6.356,9.386c1.947,5.557-2.099,6.821,1.246,12.686c2.766,4.849,4.852,4.15,6.328,8.281
			c1.634,4.571-0.356,11.232-5.016,14.03c-6.685,4.014-16.083-1.594-18.894-7.619c-1.888-4.047-0.36-8.232-1.779-12.75
			c-1.274-4.06-1.502-4.954-7.009-8.449c-4.201-2.667,3.749-11.017,0.494-14.368c-2.815-2.899-11.243-6.241-10.364-9.998
			C93.786,16.318,98.419,12.742,102.919,11.802z"/>
		<path fill="#FBB47E" d="M93.784,57.537c0.915,4.293,3.93,6.171,6.736,6.503c2.806,0.333,5.521-3.559,4.607-7.852
			c-0.914-4.293-3.909-8.055-7.917-7.694C94.396,48.748,92.871,53.245,93.784,57.537z"/>
		<path fill="#C1BCD4" d="M71.209,90.651c4.302,2.514,12.776,8.912,17.952,8.56c5.175-0.354,14.053-1.302,16.148-13.571
			c2.094-12.27-2.887-26.539-2.887-26.539l-4.463,24.061L87.705,89.93l-10.562-2.514L71.209,90.651z"/>
		<g>
			<g>
				
					<linearGradient id="SVGID_8_" gradientUnits="userSpaceOnUse" x1="-137.0488" y1="-124.4004" x2="-129.5996" y2="-124.4004" gradientTransform="matrix(-0.9852 0.1717 0.1717 0.9852 -14.2517 173.7438)">
					<stop  offset="0.3323" style="stop-color:#EBB381"/>
					<stop  offset="1" style="stop-color:#A36BAA"/>
				</linearGradient>
				<path fill="url(#SVGID_8_)" d="M92.094,24.019c0.007-0.006,0.014-0.011,0.02-0.017l0.01-0.009l0,0
					c0.618-0.501,1.567-0.603,2.707-0.185c2.305,0.844,4.516,3.489,4.937,5.907c0.226,1.296-0.108,2.264-0.822,2.753l-0.663,0.554
					l0.439-1.584l0.026-0.132l-0.017-0.845l-0.455-1.578l-1.712-2.64l-2.724-1.69l-0.817-0.052l-0.573-0.036l-1.126,0.196
					L92.094,24.019z"/>
				<path fill="#2298F4" d="M91.326,24.661l2.46-2.056c0.006-0.005,0.013-0.011,0.02-0.017l0.01-0.008h0
					c0.618-0.502,1.567-0.603,2.708-0.186c2.305,0.845,4.515,3.489,4.937,5.908c0.226,1.296-0.108,2.264-0.822,2.753l-2.354,1.967
					L91.326,24.661z"/>
				<path fill="#08D9EE" d="M90.624,27.326c0.421,2.418,2.631,5.063,4.937,5.907c2.305,0.845,3.832-0.432,3.41-2.85
					c-0.421-2.418-2.632-5.063-4.937-5.908C91.729,23.631,90.202,24.907,90.624,27.326z"/>
			</g>
			<g>
				<path fill="#575FE5" d="M116.041,15.418c0,0-0.638-0.832-1.36-1.148c0,0-1.839-2.521-3.7-2.474
					c-1.86,0.046,1.86-0.046,1.86-0.046l2.124,1.352l1.122,1.796L116.041,15.418z"/>
				<path fill="#2298F4" d="M108.674,12.002c0.15-0.058,0.3-0.111,0.447-0.161c0.069-0.023,0.138-0.042,0.206-0.063
					c0.078-0.024,0.156-0.051,0.232-0.072c0.081-0.023,0.161-0.042,0.241-0.063c0.063-0.016,0.125-0.034,0.188-0.049
					c0.096-0.022,0.189-0.041,0.283-0.06c0.044-0.009,0.091-0.021,0.135-0.028c0.105-0.019,0.208-0.034,0.31-0.049
					c0.033-0.005,0.066-0.011,0.098-0.016c0.113-0.014,0.224-0.025,0.334-0.035c0.021-0.001,0.042-0.005,0.063-0.006
					c0.116-0.009,0.229-0.014,0.342-0.017c0.014,0,0.03-0.001,0.044-0.002c0.12-0.002,0.238,0,0.355,0.003c0.007,0,0.014,0,0.021,0
					c0.121,0.004,0.241,0.013,0.358,0.025c0.002,0,0.003,0,0.005,0c0.835,0.085,1.571,0.348,2.188,0.77
					c0.994,0.678,1.677,1.77,1.965,3.195l-0.449,0.042c-0.968-2.896-3.586-4.055-7.367-2.609
					c-4.893,1.871-9.416,7.127-10.847,12.536l-0.333,0.133C98.713,19.879,103.592,13.946,108.674,12.002z"/>
				<path fill="#08D9EE" d="M112.332,11.41c-0.117-0.012-0.237-0.021-0.358-0.025c-0.007,0-0.014,0-0.021,0
					c-0.117-0.004-0.235-0.006-0.355-0.003c-0.015,0-0.03,0.002-0.044,0.002c-0.113,0.003-0.227,0.008-0.342,0.017
					c-0.021,0.001-0.042,0.005-0.063,0.006c-0.11,0.01-0.221,0.021-0.334,0.035c-0.032,0.004-0.065,0.011-0.098,0.016
					c-0.103,0.015-0.205,0.03-0.31,0.049c-0.044,0.008-0.091,0.019-0.135,0.028c-0.094,0.019-0.188,0.037-0.283,0.06
					c-0.062,0.015-0.125,0.033-0.188,0.049c-0.08,0.021-0.16,0.04-0.241,0.063c-0.076,0.021-0.154,0.048-0.232,0.072
					c-0.068,0.021-0.136,0.041-0.206,0.063c-0.147,0.05-0.297,0.103-0.447,0.161c-5.082,1.943-9.961,7.876-11.18,13.476
					c-0.506-0.589-1.269-1.354-2.129-1.806c1.36-5.478,6.127-11.173,11.086-13.07c2.289-0.875,4.242-0.796,5.643,0.044l0.001-0.001
					l0.021,0.013c0.016,0.01,0.031,0.02,0.046,0.029l2.363,1.491v0.002c0,0,0,0-0.001,0c-0.617-0.422-1.353-0.685-2.188-0.77
					C112.335,11.41,112.333,11.41,112.332,11.41z"/>
			</g>
		</g>
		<path fill="#08D9EE" d="M68,104.903c-0.208,0-0.421-0.011-0.636-0.033c-3.907-0.402-6.746-2.461-7.786-5.648
			c-1.028-3.151-0.106-6.83,2.242-8.946l0.26,0.289c-2.238,2.017-3.115,5.527-2.133,8.537c0.582,1.783,2.325,4.854,7.457,5.383
			c3.063,0.317,5.492-1.878,8.066-4.199c2.72-2.453,5.532-4.99,9.506-5.231c1.526-0.093,2.912-0.917,4.117-2.448
			c4.316-5.482,5.246-18.51,4.013-25.438c-1.724-9.684,0.02-15.081,2.296-20.648c2.083-5.093,2.897-9.974,2.491-14.921l0.387-0.032
			c0.411,5.01-0.413,9.95-2.519,15.1c-2.253,5.51-3.979,10.851-2.274,20.433c1.246,6.998,0.292,20.179-4.09,25.746
			c-1.277,1.622-2.757,2.495-4.398,2.595c-3.838,0.233-6.599,2.724-9.27,5.132C73.266,102.796,70.929,104.903,68,104.903z"/>
		<path fill="#FBCCA7" d="M84.069,92.134c6.035,0,12.027-2.195,15.512-6.32c2.597-3.074,4.249-6.932,4.629-12.167
			c0.354-4.856-0.275-10.849-1.922-18.321c-0.435-1.971-2.385-3.216-4.355-2.781c-1.97,0.434-3.216,2.384-2.781,4.354
			c2.749,12.47,2.857,16.198,1.233,20.894c-1.275,3.688-11.265,11.123-19.398,5.026c-0.024-0.033-1.427-1.341-2.027-2.832
			c-0.604-1.503-0.531-2.464-0.831-4.187c-0.173-0.992-1.84-1.12-1.787,0.357c0.045,1.298,0.204,2.513,0.204,2.513
			s-0.652-0.391-2.808-2.677c-3.002-3.184-8.504,1.163-3.692,6.006c0.816,0.821,1.146,1.312,4.221,4.785
			S78.035,92.134,84.069,92.134z"/>
	</g>
</g>
</svg>
