<?xml version="1.0" encoding="utf-8"?>
<!-- Generator: Adobe Illustrator 21.1.0, SVG Export Plug-In . SVG Version: 6.00 Build 0)  -->
<svg version="1.1" id="Layer_1" xmlns="http://www.w3.org/2000/svg" xmlns:xlink="http://www.w3.org/1999/xlink" x="0px" y="0px"
	 viewBox="0 0 548.539 161.01" enable-background="new 0 0 548.539 161.01" xml:space="preserve">
<path fill="none" d="M178.176,72.079c-2.141-2.245-4.735-4.002-7.773-5.275c-3.039-1.274-6.329-1.91-9.87-1.91
	c-7.422,0-13.514,2.459-18.272,7.373c-4.758,4.917-7.14,11.142-7.14,18.677c0,6.887,2.466,12.701,7.399,17.439
	c4.934,4.743,10.837,7.112,17.719,7.112c4.781,0,9.066-1.106,12.854-3.333c3.787-2.219,6.72-5.266,8.783-9.131
	c2.066-3.866,3.104-8.196,3.104-12.99c0-3.591-0.602-6.921-1.795-9.99C181.986,76.982,180.32,74.326,178.176,72.079z"/>
<path fill="none" d="M362.019,68.297c-3.84-2.267-8.022-3.404-12.559-3.404c-3.039,0-6.168,0.699-9.381,2.097
	c-3.213,1.396-5.914,3.292-8.109,5.687c-4.682,4.742-7.024,10.631-7.024,17.668c0,4.44,1.084,8.62,3.252,12.538
	c2.168,3.92,5.133,7,8.894,9.245c3.758,2.245,7.885,3.369,12.369,3.369c4.734,0,8.994-1.107,12.777-3.333
	c3.789-2.218,6.756-5.276,8.897-9.169c2.146-3.895,3.211-8.107,3.211-12.648s-1.094-8.785-3.286-12.726
	C368.869,73.678,365.857,70.571,362.019,68.297z"/>
<path fill="none" d="M267.011,68.375c-3.74-2.324-7.883-3.482-12.425-3.482c-4.689,0-8.933,1.124-12.724,3.368
	c-3.792,2.245-6.778,5.316-8.949,9.208c-2.168,3.894-3.255,8.136-3.255,12.729c0,7.837,2.645,14.125,7.934,18.862
	c2.295,1.998,4.895,3.567,7.785,4.715c2.895,1.151,5.715,1.724,8.46,1.724c4.691,0,8.971-1.132,12.838-3.406
	c3.87-2.27,6.89-5.351,9.06-9.243c2.171-3.893,3.255-8.16,3.255-12.804c0-4.339-1.06-8.456-3.179-12.349
	C273.687,73.8,270.756,70.693,267.011,68.375z"/>
<path fill="#0FD186" d="M114.719,86.706v-44.83c0-12.151-9.85-22-21.998-22L25.818,30.895c-12.151,0-21.996,9.85-21.996,22v66.901
	c0,12.149,9.845,21.998,21.996,21.998H92.72c12.148,0,21.998-9.85,21.998-21.998V93.629c-0.066-1.129-0.109-2.27-0.109-3.433
	C114.609,89.024,114.648,87.86,114.719,86.706z M88.867,127.368c-7.754,5.349-17.118,8.023-28.08,8.023
	c-15.785,0-30.36-5.684-43.73-17.054l14.287-14.442c8.84,9.498,19.043,14.241,30.58,14.241c4.427,0,8.521-0.936,12.279-2.804
	c4.699-2.268,7.038-5.396,7.038-9.405c0-5.864-4.278-9.603-12.843-11.206l-11.829-2.25c-10.567-2.011-18.391-4.55-23.468-7.623
	c-7.616-4.685-11.438-11.369-11.438-20.065c0-9.897,4.021-17.789,12.042-23.676c7.09-5.35,15.781-8.024,26.074-8.024
	c13.106,0,25.945,4.486,38.521,13.441L86.422,61.167C77.833,53.944,69.1,50.335,60.248,50.335c-4.297,0-8.187,0.942-11.674,2.81
	c-4.162,2.274-6.243,5.412-6.243,9.429c0,5.217,4.272,8.623,12.842,10.236l21.053,4.007c17.126,3.205,25.685,11.838,25.685,25.879
	C101.91,113.13,97.561,121.349,88.867,127.368z"/>
<path fill="#0089FF" d="M185.653,59.653c-3.346-4.788-7.474-8.432-12.393-10.93c-4.913-2.495-10.289-3.741-16.131-3.741
	c-6.238,0-11.992,1.197-17.257,3.592c-5.265,2.394-10.042,6.091-14.332,11.079c-2.697,3.096-4.829,6.201-6.401,9.321
	c-1.571,3.121-2.724,6.489-3.443,10.105c-0.5,2.5-0.823,5.043-0.978,7.626v6.924c0.614,10.648,4.117,19.812,10.522,27.483
	c3.843,4.541,8.433,8.059,13.773,10.554c5.339,2.495,11.181,3.741,17.519,3.741c5.39,0,10.765-1.299,16.133-3.891
	c5.362-2.595,9.592-6.065,12.686-10.404h0.302v11.527h18.788V47.676h-18.788V59.653z M181.875,103.033
	c-2.063,3.866-4.996,6.913-8.783,9.131c-3.787,2.226-8.072,3.333-12.854,3.333c-6.882,0-12.785-2.369-17.719-7.112
	c-4.934-4.739-7.399-10.554-7.399-17.44c0-7.535,2.382-13.759,7.14-18.676c4.759-4.914,10.851-7.373,18.273-7.373
	c3.541,0,6.83,0.636,9.87,1.91c3.038,1.273,5.633,3.03,7.773,5.275c2.145,2.247,3.811,4.903,5.008,7.975
	c1.193,3.069,1.795,6.399,1.795,9.99C184.979,94.837,183.941,99.167,181.875,103.033z"/>
<path fill="#0089FF" d="M114.609,90.196c0,1.162,0.043,2.304,0.109,3.433v-6.924C114.648,87.86,114.609,89.024,114.609,90.196z"/>
<path fill="#0089FF" d="M293.96,67.625c-1.843-3.466-3.967-6.424-6.361-8.869c-4.243-4.841-8.846-8.348-13.812-10.52
	c-4.966-2.17-10.64-3.253-17.028-3.253c-11.98,0-21.061,4.59-27.247,13.773h-0.377v-11.08h-18.639V161.01h20.361v-37.579h0.299
	c6.24,7.987,14.771,11.979,25.603,11.979c5.988,0,11.61-1.198,16.877-3.594c5.267-2.394,9.846-5.727,13.739-9.993
	c3.893-4.267,6.86-9.119,8.908-14.56c2.045-5.438,3.069-11.128,3.069-17.065c0-3.896-0.438-7.765-1.31-11.604
	C297.169,74.75,295.81,71.093,293.96,67.625z M275.734,102.845c-2.17,3.896-5.189,6.978-9.06,9.245
	c-3.867,2.274-8.146,3.406-12.838,3.406c-2.745,0-5.565-0.571-8.46-1.722c-2.891-1.148-5.49-2.719-7.785-4.715
	c-5.288-4.74-7.934-11.027-7.934-18.863c0-4.594,1.087-8.834,3.255-12.729c2.171-3.891,5.157-6.963,8.949-9.208
	c3.791-2.245,8.034-3.368,12.724-3.368c4.542,0,8.685,1.159,12.425,3.482c3.745,2.318,6.676,5.425,8.8,9.319
	c2.119,3.893,3.179,8.01,3.179,12.349C278.989,94.686,277.905,98.955,275.734,102.845z"/>
<path fill="#0089FF" d="M391.529,72.868c-2.227-5.466-5.386-10.295-9.479-14.486c-4.096-4.195-8.853-7.474-14.271-9.843
	c-5.422-2.37-11.229-3.556-17.422-3.556c-6.392,0-12.361,1.159-17.902,3.48c-5.543,2.32-10.414,5.54-14.611,9.656
	c-4.192,4.117-7.478,8.935-9.852,14.447c-2.371,5.515-3.557,11.44-3.557,17.781c0,8.034,2.031,15.521,6.105,22.457
	c4.068,6.938,9.56,12.438,16.478,16.508c6.921,4.064,14.397,6.099,22.439,6.099c6.094,0,11.896-1.136,17.42-3.404
	c5.52-2.27,10.412-5.528,14.68-9.771c4.273-4.241,7.56-9.082,9.857-14.522c2.297-5.441,3.445-11.23,3.445-17.365
	C394.863,84.156,393.75,78.329,391.529,72.868z M371.138,102.995c-2.144,3.893-5.108,6.952-8.897,9.169
	c-3.785,2.226-8.043,3.333-12.777,3.333c-4.484,0-8.611-1.124-12.369-3.369c-3.764-2.244-6.728-5.324-8.896-9.245
	c-2.168-3.918-3.252-8.098-3.252-12.538c0-7.037,2.346-12.926,7.024-17.668c2.195-2.395,4.898-4.291,8.109-5.687
	c3.215-1.398,6.344-2.097,9.383-2.097c4.533,0,8.719,1.137,12.559,3.404c3.839,2.274,6.851,5.381,9.041,9.324
	c2.193,3.94,3.287,8.185,3.287,12.726C374.347,94.888,373.281,99.101,371.138,102.995z"/>
<g id="Layer_2">
</g>
<g>
	<path fill="#0089FF" d="M441.298,135.41h-5.537l-8.135-25.464h-0.137l-7.964,25.464h-5.537l-14.561-38.281h5.127l12.031,32.061
		h0.137l8.75-27.446h4.272l8.818,27.446h0.137l12.168-32.061h5.059L441.298,135.41z"/>
	<path fill="#0089FF" d="M497.378,118.047h-34.863c0.182,3.76,1.766,7.019,4.751,9.775c2.962,2.734,6.334,4.102,10.117,4.102
		c3.008,0,5.765-0.797,8.271-2.393c2.598-1.663,4.409-3.885,5.435-6.665h5.195c-1.413,4.011-3.852,7.258-7.314,9.741
		c-3.464,2.484-7.304,3.726-11.519,3.726c-5.515,0-10.231-1.971-14.15-5.913c-3.874-3.896-5.811-8.602-5.811-14.116
		c0-5.491,1.937-10.22,5.811-14.185c3.919-3.987,8.613-5.981,14.082-5.981c5.56,0,10.299,2.04,14.219,6.118
		c3.896,4.033,5.845,8.83,5.845,14.39L497.378,118.047z M492.422,113.638c-0.639-3.782-2.336-6.904-5.093-9.365
		c-2.78-2.483-6.073-3.726-9.878-3.726c-3.783,0-7.075,1.242-9.878,3.726c-2.758,2.461-4.443,5.583-5.059,9.365H492.422z"/>
	<path fill="#0089FF" d="M537.839,130.557c-3.965,3.852-8.83,5.776-14.595,5.776c-6.449,0-11.428-2.552-14.937-7.656h-0.137v6.733
		h-4.888V83.594h4.888v20.234h0.137c3.6-5.127,8.579-7.69,14.937-7.69c5.696,0,10.527,1.903,14.492,5.708
		c4.056,3.852,6.084,8.625,6.084,14.321C543.82,121.909,541.826,126.706,537.839,130.557z M534.489,105.059
		c-2.963-3.008-6.711-4.512-11.245-4.512c-4.307,0-7.953,1.562-10.938,4.683c-2.939,3.076-4.409,6.768-4.409,11.074
		s1.47,7.976,4.409,11.006c2.984,3.076,6.631,4.614,10.938,4.614c4.488,0,8.214-1.47,11.177-4.409
		c2.984-2.962,4.478-6.676,4.478-11.143C538.898,111.838,537.429,108.066,534.489,105.059z"/>
</g>
</svg>
