<?xml version="1.0" encoding="utf-8"?>
<!-- Generator: Adobe Illustrator 16.0.0, SVG Export Plug-In . SVG Version: 6.00 Build 0)  -->
<!DOCTYPE svg PUBLIC "-//W3C//DTD SVG 1.1//EN" "http://www.w3.org/Graphics/SVG/1.1/DTD/svg11.dtd">
<svg version="1.1" xmlns="http://www.w3.org/2000/svg" xmlns:xlink="http://www.w3.org/1999/xlink" x="0px" y="0px"
	 width="169.66px" height="166.258px" viewBox="0 0 169.66 166.258" enable-background="new 0 0 169.66 166.258"
	 xml:space="preserve">
<g id="Layer_2">
</g>
<g id="Layer_1">
	<defs>
		<filter id="Adobe_OpacityMaskFilter" filterUnits="userSpaceOnUse" x="19.61" y="72.472" width="133.067" height="78.902">
			<feFlood  style="flood-color:white;flood-opacity:1" result="back"/>
			<feBlend  in="SourceGraphic" in2="back" mode="normal"/>
		</filter>
	</defs>
	<mask maskUnits="userSpaceOnUse" x="19.61" y="72.472" width="133.067" height="78.902" id="SVGID_1_">
		<g filter="url(#Adobe_OpacityMaskFilter)">
			<defs>
				<filter id="Adobe_OpacityMaskFilter_1_" filterUnits="userSpaceOnUse" x="19.61" y="72.472" width="133.067" height="78.902">
					<feFlood  style="flood-color:white;flood-opacity:1" result="back"/>
					<feBlend  in="SourceGraphic" in2="back" mode="normal"/>
				</filter>
			</defs>
			<mask maskUnits="userSpaceOnUse" x="19.61" y="72.472" width="133.067" height="78.902" id="SVGID_1_">
			</mask>
			<linearGradient id="SVGID_2_" gradientUnits="userSpaceOnUse" x1="86.1436" y1="151.373" x2="86.1436" y2="72.4717">
				<stop  offset="0" style="stop-color:#FFFFFF"/>
				<stop  offset="0.016" style="stop-color:#F3F3F3"/>
				<stop  offset="0.0908" style="stop-color:#C1C1C1"/>
				<stop  offset="0.1709" style="stop-color:#939393"/>
				<stop  offset="0.2546" style="stop-color:#6B6B6B"/>
				<stop  offset="0.3429" style="stop-color:#4A4A4A"/>
				<stop  offset="0.437" style="stop-color:#2F2F2F"/>
				<stop  offset="0.539" style="stop-color:#1A1A1A"/>
				<stop  offset="0.6529" style="stop-color:#0B0B0B"/>
				<stop  offset="0.7881" style="stop-color:#030303"/>
				<stop  offset="1" style="stop-color:#000000"/>
			</linearGradient>
			<path mask="url(#SVGID_1_)" fill="url(#SVGID_2_)" d="M24.033,120.172l48.118,27.736c8.014,4.619,17.887,4.619,25.901,0
				l50.202-28.938c5.897-3.399,5.897-11.898,0-15.297l-48.118-27.737c-8.014-4.619-17.887-4.619-25.901,0l-50.202,28.938
				C18.135,108.273,18.135,116.773,24.033,120.172z"/>
		</g>
	</mask>
	<linearGradient id="SVGID_3_" gradientUnits="userSpaceOnUse" x1="86.1436" y1="151.373" x2="86.1436" y2="72.4717">
		<stop  offset="0" style="stop-color:#000000;stop-opacity:0.3"/>
		<stop  offset="1" style="stop-color:#000000;stop-opacity:0.2"/>
	</linearGradient>
	<path opacity="0.6" fill="url(#SVGID_3_)" d="M24.033,120.172l48.118,27.736c8.014,4.619,17.887,4.619,25.901,0l50.202-28.938
		c5.897-3.399,5.897-11.898,0-15.297l-48.118-27.737c-8.014-4.619-17.887-4.619-25.901,0l-50.202,28.938
		C18.135,108.273,18.135,116.773,24.033,120.172z"/>
	<g>
		<linearGradient id="SVGID_4_" gradientUnits="userSpaceOnUse" x1="1.2227" y1="106.2451" x2="176.1484" y2="106.2451">
			<stop  offset="0" style="stop-color:#DEE8FF"/>
			<stop  offset="1" style="stop-color:#788ACB"/>
		</linearGradient>
		<path fill="url(#SVGID_4_)" d="M95.671,130.541l55.151-31.792c2.042-1.176,3.062-3.236,3.062-5.296V79.551l-67.18,38.726v14.662
			C89.8,132.939,92.897,132.14,95.671,130.541z"/>
		<linearGradient id="SVGID_5_" gradientUnits="userSpaceOnUse" x1="1.2236" y1="106.2451" x2="176.1481" y2="106.2451">
			<stop  offset="0" style="stop-color:#DEE8FF"/>
			<stop  offset="1" style="stop-color:#788ACB"/>
		</linearGradient>
		<path fill="url(#SVGID_5_)" d="M22.587,98.749l55.151,31.792c2.774,1.6,5.87,2.398,8.966,2.398v-14.662l-67.18-38.726v13.901
			C19.524,95.512,20.544,97.573,22.587,98.749z"/>
	</g>
	<linearGradient id="SVGID_6_" gradientUnits="userSpaceOnUse" x1="19.5249" y1="79.5513" x2="153.8848" y2="79.5513">
		<stop  offset="6.300000e-007" style="stop-color:#FFFFFF"/>
		<stop  offset="1" style="stop-color:#E1E6F0"/>
	</linearGradient>
	<path fill="url(#SVGID_6_)" d="M22.587,84.847l55.151,31.791c5.548,3.198,12.384,3.198,17.933,0l55.151-31.791
		c4.083-2.354,4.083-8.238,0-10.592L95.671,42.464c-5.548-3.198-12.385-3.198-17.933,0L22.587,74.255
		C18.504,76.609,18.504,82.494,22.587,84.847z"/>
	<g>
		<g>
			<path d="M93.677,101.525l-4.211-6.872l0.963-0.563l0.004,0.006c0.515-0.288,1.227-0.246,2.019,0.196
				c1.598,0.896,2.911,3.083,2.934,4.883c0.009,0.865-0.28,1.48-0.759,1.792l0.001,0.003l-0.043,0.025
				c-0.011,0.008-0.022,0.015-0.035,0.021L93.677,101.525z"/>
			<path fill="#1F1F1F" d="M90.215,95.077l1.728-1.017c0.165,0.061,0.335,0.135,0.508,0.231c1.598,0.896,2.911,3.083,2.934,4.883
				c0.003,0.333-0.038,0.626-0.115,0.882l-1.06,0.619c-0.248-0.069-0.505-0.173-0.772-0.323c-0.294-0.164-0.581-0.372-0.854-0.61
				l-2.212-3.608C90.282,95.776,90.227,95.42,90.215,95.077z"/>
			<path fill="#2A2A2A" d="M88.702,96.458c0.02,1.803,1.334,3.988,2.932,4.884c1.597,0.895,2.875,0.157,2.852-1.645
				c-0.021-1.803-1.334-3.988-2.931-4.884C89.957,93.919,88.679,94.657,88.702,96.458z"/>
			<path fill="#1D1D1D" d="M88.812,96.522c0.021,1.732,1.284,3.833,2.82,4.694c1.536,0.859,2.764,0.149,2.744-1.582
				c-0.022-1.731-1.284-3.834-2.82-4.693C90.02,94.081,88.791,94.788,88.812,96.522z"/>
			<path fill="#3B3B3B" d="M89.434,96.869c0.017,1.347,0.998,2.978,2.19,3.646c1.191,0.667,2.144,0.117,2.129-1.228
				c-0.017-1.345-0.997-2.977-2.188-3.644C90.371,94.973,89.417,95.524,89.434,96.869z"/>
			<path fill="#FF4F4F" d="M89.581,96.952c0.015,1.254,0.929,2.774,2.038,3.396c1.113,0.623,2.003,0.11,1.987-1.144
				c-0.016-1.254-0.93-2.776-2.041-3.397C90.454,95.185,89.565,95.698,89.581,96.952z"/>
			<path fill="#D12700" d="M91.592,95.824c1.099,0.631,2,2.137,2.014,3.381c0.002,0.178-0.016,0.34-0.047,0.488l-1.45,0.859
				c-0.156-0.043-0.32-0.109-0.49-0.204c-1.09-0.612-1.99-2.092-2.034-3.333L91.592,95.824z"/>
			<path fill="#E9EAE7" d="M92.697,96.828c0.398,0.52,0.695,1.139,0.83,1.742l-2.404,1.428c-0.476-0.401-0.886-0.953-1.165-1.546
				L92.697,96.828z"/>
			<path fill="#FF8372" d="M92.697,96.828c0.398,0.52,0.695,1.139,0.83,1.742l-2.404,1.428c-0.476-0.401-0.886-0.953-1.165-1.546
				L92.697,96.828z"/>
			<path fill="#B01300" d="M89.955,97.019c0.014,1.08,0.8,2.391,1.758,2.926c0.958,0.536,1.725,0.096,1.711-0.984
				s-0.801-2.392-1.759-2.928C90.707,95.498,89.942,95.937,89.955,97.019z"/>
			<path fill="#990F0F" d="M89.955,97.477c0.011,0.855,0.634,1.894,1.392,2.317c0.758,0.425,1.364,0.076,1.354-0.78
				c-0.011-0.854-0.633-1.893-1.391-2.316C90.551,96.273,89.944,96.622,89.955,97.477z"/>
		</g>
		<polygon fill="#C4C4C4" points="92.365,93.376 91.852,99.118 92.946,98.341 95.387,95.003 		"/>
		<polygon fill="#828282" points="91.269,94.155 90.721,98.163 91.852,99.118 94.292,95.78 		"/>
		<g>
			<path d="M109.049,92.629l-4.211-6.872l0.964-0.563l0.003,0.005c0.515-0.29,1.227-0.247,2.019,0.197
				c1.598,0.895,2.911,3.079,2.933,4.882c0.011,0.865-0.279,1.48-0.759,1.792L110,92.075l-0.042,0.024
				c-0.012,0.007-0.024,0.014-0.035,0.021L109.049,92.629z"/>
			<path fill="#1F1F1F" d="M105.587,86.18l1.728-1.017c0.165,0.061,0.335,0.136,0.509,0.233c1.598,0.895,2.911,3.079,2.933,4.882
				c0.004,0.332-0.037,0.626-0.115,0.882l-1.058,0.619c-0.248-0.07-0.505-0.173-0.773-0.323c-0.295-0.165-0.581-0.373-0.853-0.61
				l-2.212-3.61C105.656,86.88,105.601,86.525,105.587,86.18z"/>
			<path fill="#2A2A2A" d="M104.074,87.563c0.021,1.802,1.334,3.988,2.932,4.883c1.598,0.894,2.875,0.157,2.854-1.645
				c-0.022-1.803-1.336-3.988-2.934-4.881C105.33,85.024,104.051,85.759,104.074,87.563z"/>
			<path fill="#1D1D1D" d="M104.186,87.625c0.021,1.732,1.283,3.835,2.818,4.694c1.536,0.86,2.766,0.153,2.743-1.58
				c-0.022-1.732-1.283-3.834-2.819-4.693C105.392,85.185,104.165,85.892,104.186,87.625z"/>
			<path fill="#3B3B3B" d="M104.807,87.973c0.016,1.346,0.996,2.977,2.189,3.645c1.191,0.669,2.146,0.118,2.129-1.227
				c-0.016-1.346-0.997-2.978-2.188-3.645C105.744,86.079,104.791,86.628,104.807,87.973z"/>
			<path fill="#CA0D00" d="M104.953,88.056c0.015,1.254,0.929,2.773,2.041,3.396c1.111,0.622,2,0.108,1.984-1.145
				c-0.017-1.254-0.927-2.774-2.04-3.397C105.826,86.289,104.939,86.801,104.953,88.056z"/>
			<path fill="#FF644F" d="M106.965,86.927c1.1,0.631,1.999,2.137,2.013,3.381c0.003,0.18-0.017,0.34-0.048,0.487l-1.447,0.861
				c-0.157-0.043-0.321-0.109-0.489-0.204c-1.094-0.611-1.992-2.093-2.038-3.334L106.965,86.927z"/>
			<path fill="#E9EAE7" d="M108.068,87.931c0.401,0.521,0.699,1.14,0.832,1.744l-2.403,1.427c-0.476-0.402-0.886-0.954-1.164-1.548
				L108.068,87.931z"/>
			<path fill="#FF8372" d="M108.068,87.931c0.401,0.521,0.699,1.14,0.832,1.744l-2.403,1.427c-0.476-0.402-0.886-0.954-1.164-1.548
				L108.068,87.931z"/>
			<path fill="#B01300" d="M105.328,88.123c0.013,1.081,0.799,2.391,1.757,2.927c0.957,0.537,1.724,0.095,1.71-0.985
				c-0.013-1.08-0.799-2.39-1.757-2.927S105.315,87.042,105.328,88.123z"/>
			<path fill="#990F0F" d="M105.328,88.583c0.011,0.854,0.633,1.893,1.391,2.317c0.758,0.424,1.365,0.074,1.354-0.78
				c-0.01-0.855-0.632-1.894-1.391-2.317C105.924,87.376,105.318,87.727,105.328,88.583z"/>
		</g>
		<g>
			<path d="M83.633,75.184l-4.212-6.871l0.963-0.563l0.005,0.006c0.514-0.288,1.227-0.247,2.018,0.197
				c1.597,0.893,2.91,3.08,2.933,4.882c0.009,0.864-0.281,1.481-0.759,1.792l0,0.003l-0.042,0.025
				c-0.012,0.008-0.023,0.016-0.036,0.021L83.633,75.184z"/>
			<path fill="#1F1F1F" d="M80.17,68.737l1.728-1.016c0.166,0.06,0.334,0.136,0.509,0.232c1.597,0.893,2.91,3.08,2.933,4.882
				c0.003,0.331-0.037,0.626-0.116,0.881l-1.059,0.62c-0.246-0.07-0.504-0.174-0.771-0.322c-0.296-0.166-0.581-0.374-0.855-0.611
				l-2.212-3.609C80.238,69.436,80.182,69.081,80.17,68.737z"/>
			<path fill="#2A2A2A" d="M78.656,70.119c0.022,1.803,1.335,3.989,2.933,4.885c1.597,0.894,2.875,0.157,2.854-1.645
				c-0.023-1.803-1.336-3.989-2.933-4.884C79.911,67.581,78.634,68.317,78.656,70.119z"/>
			<path fill="#1D1D1D" d="M78.768,70.182c0.022,1.732,1.284,3.834,2.819,4.692c1.536,0.861,2.765,0.153,2.742-1.579
				c-0.021-1.731-1.284-3.834-2.819-4.694C79.976,67.741,78.746,68.45,78.768,70.182z"/>
			<path fill="#3B3B3B" d="M79.39,70.531c0.016,1.345,0.997,2.976,2.188,3.644c1.194,0.667,2.146,0.118,2.13-1.227
				c-0.016-1.345-0.997-2.977-2.188-3.646C80.327,68.635,79.373,69.183,79.39,70.531z"/>
			<path fill="#FF4F4F" d="M79.538,70.612c0.015,1.254,0.928,2.775,2.039,3.397c1.112,0.623,2,0.11,1.985-1.144
				c-0.016-1.255-0.929-2.775-2.041-3.397S79.521,69.359,79.538,70.612z"/>
			<path fill="#D12700" d="M81.546,69.483c1.101,0.633,2,2.138,2.016,3.383c0.003,0.177-0.016,0.339-0.048,0.487l-1.449,0.86
				c-0.157-0.043-0.32-0.108-0.488-0.204c-1.092-0.613-1.991-2.092-2.036-3.333L81.546,69.483z"/>
			<path fill="#E9EAE7" d="M82.652,70.488c0.398,0.521,0.697,1.141,0.831,1.744L81.08,73.66c-0.476-0.403-0.887-0.954-1.164-1.547
				L82.652,70.488z"/>
			<path fill="#FFC123" d="M82.652,70.488c0.398,0.521,0.697,1.141,0.831,1.744L81.08,73.66c-0.476-0.403-0.887-0.954-1.164-1.547
				L82.652,70.488z"/>
			<path fill="#B01300" d="M79.911,70.678c0.013,1.081,0.801,2.392,1.759,2.928c0.957,0.535,1.722,0.096,1.71-0.985
				c-0.014-1.08-0.801-2.391-1.758-2.927C80.664,69.158,79.898,69.599,79.911,70.678z"/>
			<path fill="#D92800" d="M79.911,71.139c0.011,0.854,0.634,1.892,1.392,2.316c0.759,0.425,1.364,0.075,1.354-0.781
				c-0.009-0.854-0.633-1.892-1.391-2.315C80.507,69.934,79.901,70.284,79.911,71.139z"/>
		</g>
		<g>
			<path d="M63.376,86.726l-4.211-6.872l0.964-0.563l0.002,0.007c0.516-0.289,1.229-0.246,2.019,0.196
				c1.598,0.895,2.911,3.079,2.933,4.884c0.011,0.862-0.279,1.479-0.759,1.79l0.002,0.004l-0.042,0.024
				c-0.012,0.007-0.023,0.015-0.035,0.021L63.376,86.726z"/>
			<path fill="#1F1F1F" d="M59.914,80.279l1.729-1.018c0.164,0.06,0.334,0.135,0.508,0.232c1.598,0.895,2.911,3.079,2.933,4.884
				c0.004,0.33-0.036,0.624-0.115,0.879l-1.058,0.619c-0.248-0.068-0.505-0.171-0.773-0.322c-0.295-0.164-0.581-0.374-0.854-0.61
				l-2.212-3.609C59.983,80.977,59.926,80.622,59.914,80.279z"/>
			<path fill="#2A2A2A" d="M58.401,81.66c0.021,1.802,1.334,3.988,2.932,4.883c1.598,0.894,2.875,0.158,2.853-1.645
				c-0.022-1.802-1.336-3.988-2.933-4.884C59.656,79.12,58.378,79.858,58.401,81.66z"/>
			<path fill="#1D1D1D" d="M58.513,81.723c0.021,1.73,1.284,3.833,2.818,4.692c1.537,0.86,2.764,0.153,2.743-1.58
				c-0.022-1.732-1.284-3.834-2.819-4.692C59.719,79.283,58.491,79.989,58.513,81.723z"/>
			<path fill="#3B3B3B" d="M59.134,82.07c0.018,1.345,0.997,2.978,2.189,3.646s2.145,0.119,2.129-1.229
				c-0.017-1.344-0.998-2.976-2.189-3.644C60.071,80.176,59.117,80.726,59.134,82.07z"/>
			<path fill="#CA0D00" d="M59.28,82.152c0.015,1.256,0.929,2.775,2.04,3.398c1.112,0.621,2,0.109,1.986-1.146
				c-0.016-1.253-0.93-2.774-2.041-3.397C60.153,80.385,59.266,80.898,59.28,82.152z"/>
			<path fill="#FF644F" d="M61.291,81.025c1.1,0.631,2,2.136,2.015,3.38c0.002,0.18-0.016,0.341-0.048,0.487l-1.449,0.86
				c-0.158-0.044-0.32-0.107-0.489-0.202c-1.093-0.612-1.992-2.093-2.037-3.334L61.291,81.025z"/>
			<path fill="#E9EAE7" d="M62.397,82.027c0.397,0.522,0.696,1.142,0.83,1.745l-2.405,1.427c-0.475-0.401-0.885-0.953-1.164-1.546
				L62.397,82.027z"/>
			<path fill="#FF8372" d="M62.397,82.027c0.397,0.522,0.696,1.142,0.83,1.745l-2.405,1.427c-0.475-0.401-0.885-0.953-1.164-1.546
				L62.397,82.027z"/>
			<path fill="#B01300" d="M59.655,82.219c0.014,1.08,0.8,2.392,1.757,2.927c0.959,0.537,1.724,0.097,1.71-0.985
				c-0.012-1.08-0.799-2.391-1.757-2.926C60.407,80.698,59.642,81.138,59.655,82.219z"/>
			<path fill="#990F0F" d="M59.655,82.68c0.011,0.854,0.634,1.891,1.392,2.315c0.758,0.426,1.364,0.076,1.353-0.779
				c-0.01-0.855-0.633-1.893-1.391-2.316C60.251,81.475,59.645,81.824,59.655,82.68z"/>
		</g>
		<polygon fill="#C4C4C4" points="61.956,78.603 61.441,84.344 62.539,83.566 64.979,80.228 		"/>
		<polygon fill="#828282" points="60.862,79.379 60.312,83.389 61.441,84.344 63.882,81.005 		"/>
		<polygon fill="#C4C4C4" points="107.722,83.532 106.7,83.918 108.239,89.049 110.678,85.712 		"/>
		<polygon fill="#828282" points="106.625,84.31 106.013,88.873 107.142,89.827 109.583,86.489 		"/>
		<g>
			<path fill="#C4C4C4" d="M95.201,96.007c-0.659,0-1.318-0.144-1.932-0.432L61.31,80.539c-0.588-0.274-0.971-0.852-0.998-1.5
				c-0.028-0.649,0.305-1.255,0.87-1.579l17.722-10.234c1.501-0.865,3.397-0.795,4.829,0.184l26.233,17.898
				c0.497,0.339,0.78,0.9,0.758,1.502c-0.022,0.603-0.349,1.141-0.869,1.441L97.472,95.4C96.772,95.804,95.988,96.007,95.201,96.007
				z M81.172,68.052c-0.537,0-1.075,0.138-1.552,0.413L61.896,78.699c-0.141,0.082-0.157,0.21-0.154,0.28
				c0.003,0.07,0.029,0.194,0.176,0.265l31.96,15.037c0.92,0.431,1.998,0.388,2.878-0.121l12.381-7.15
				c0.13-0.074,0.152-0.191,0.155-0.255c0.003-0.061-0.011-0.183-0.133-0.265L82.925,68.591
				C82.402,68.233,81.787,68.052,81.172,68.052z"/>
			<path fill="#E0E0E0" d="M95.477,95.551c-0.618,0-1.238-0.138-1.795-0.4L61.722,80.113c-0.48-0.225-0.791-0.692-0.813-1.223
				c-0.022-0.529,0.248-1.021,0.707-1.286L79.34,67.373c0.634-0.368,1.364-0.562,2.107-0.562c0.858,0,1.68,0.251,2.381,0.729
				l26.232,17.9c0.404,0.276,0.636,0.731,0.618,1.224c-0.019,0.49-0.283,0.929-0.708,1.174l-12.382,7.148
				C96.946,95.355,96.217,95.551,95.477,95.551z M81.447,67.596c-0.604,0-1.195,0.158-1.713,0.456L62.009,78.286
				c-0.207,0.121-0.324,0.336-0.313,0.573c0.008,0.236,0.143,0.438,0.358,0.541l31.963,15.038c0.454,0.213,0.959,0.325,1.461,0.325
				c0.602,0,1.194-0.159,1.714-0.459l12.383-7.149c0.194-0.112,0.308-0.302,0.314-0.523c0.007-0.221-0.092-0.418-0.274-0.542
				L83.383,68.19C82.814,67.801,82.143,67.596,81.447,67.596z"/>
		</g>
		<polygon fill="#828282" points="81.145,67.574 80.596,71.582 81.726,72.536 84.166,69.198 		"/>
		<g>
			<path fill="#C4C4C4" d="M97.021,95.511c-0.93,0-1.754-1.132-2.497-2.154c-0.402-0.554-0.955-1.314-1.254-1.455L63.397,77.848
				l-1.501,0.866c-0.411,0.24-1.034,1.608-1.292,1.219c-1.112-1.683,1.494-4.177,1.946-3.963l0.78,0.264l15.573-8.991
				c0.363-0.212,0.89-0.912,1.355-1.527c0.963-1.283,2.162-2.876,3.474-1.98l26.233,17.898c0.95,0.647,0.861,3.807,0.847,4.166
				c-0.064,1.742-0.427,2.182-0.771,2.381l-12.383,7.148C97.442,95.456,97.228,95.511,97.021,95.511z M64.908,76.976l28.971,13.631
				c0.631,0.296,1.201,1.078,1.804,1.909c0.357,0.491,1.007,1.382,1.326,1.535L109.22,87c0.284-0.681,0.196-3.591-0.132-4.232
				L82.925,64.917c-0.301,0.035-1.096,1.092-1.524,1.66c-0.6,0.797-1.166,1.55-1.781,1.905L64.908,76.976z"/>
			<path fill="#E0E0E0" d="M97.245,95.077c-0.766,0-1.547-1.073-2.236-2.02c-0.572-0.786-1.033-1.396-1.378-1.559L63.778,77.46
				c-0.279-0.131-0.608-0.055-0.805,0.179l-0.535,0.645c-0.108,0.063-0.677,1.491-0.792,1.491c-0.178,0-0.456-0.151-0.581-0.291
				c-0.417-0.473,1.736-3.403,1.835-3.356l0.669,0.357l15.719-9.076c0.421-0.244,0.944-0.94,1.45-1.612
				c0.708-0.941,1.589-2.113,2.434-2.113c0.204,0,0.4,0.068,0.604,0.206l26.231,17.898c0.544,0.371,0.769,2.236,0.708,3.887
				c-0.067,1.802-0.461,2.03-0.611,2.115l-12.382,7.148C97.56,95.032,97.404,95.077,97.245,95.077z M83.111,64.485
				c-0.333,0.039-0.756,0.474-1.744,1.785c-0.581,0.772-1.126,1.499-1.686,1.821l-15.244,8.802l29.527,13.893
				c0.558,0.263,1.103,1.014,1.68,1.807c0.667,0.918,1.119,1.48,1.448,1.639l0.152,0.072l12.455-7.19l0.042-0.1
				c0.326-0.784,0.23-3.772-0.144-4.505l-0.039-0.072L83.231,64.471L83.111,64.485z"/>
		</g>
		<g>
			<path fill="#828282" d="M66.341,77.701c0,0-0.243,0.334-0.827,0.122c-0.703-0.254-0.606-0.476-0.606-0.476l1.827-7.711
				l-2.319-1.004l-1.645,7.675l-0.734,0.928l-0.92-0.164l2.232-10.509l5.106,2.211L66.341,77.701z"/>
			<path fill="#B8B8B8" d="M66.071,77.823c-0.053,0-0.114-0.014-0.182-0.036c-0.447-0.162-0.38-0.532-0.371-0.573l1.816-7.661
				l-2.877-1.242l-1.706,7.96l-0.582,0.733l-0.447-0.08l2.096-9.855l4.548,1.969l-2.059,8.688c0.001-0.004,0.001-0.006,0-0.006
				C66.298,77.718,66.222,77.823,66.071,77.823z"/>
		</g>
		<g>
			<path fill="#828282" d="M85.43,68.726c0,0-0.22,0.484-0.805,0.272c-0.703-0.256-0.561-0.914-0.561-0.914l1.759-7.424
				l-2.319-1.003l-1.644,7.675l-0.735,0.927l-0.919-0.163l2.232-10.508l5.108,2.209L85.43,68.726z"/>
		</g>
		<g>
			<g>
				<path fill="#B8B8B8" d="M81.995,37.191c-0.472-0.275-0.984-0.473-1.516-0.591l-0.344-5.759l-0.039-0.679l1.958-0.118
					l0.108,1.841l0.334,5.591L81.995,37.191z"/>
				<path fill="#B8B8B8" d="M82.871,43.756l-0.777-0.443c-0.394-0.228-0.817-0.404-1.251-0.521l-0.304-5.118
					c0.334,0.089,0.65,0.225,0.944,0.403l1.084,0.63L82.871,43.756z"/>
				<path fill="#B8B8B8" d="M83.246,50.194l-0.974-0.562c-0.119-0.069-0.246-0.117-0.364-0.177c-0.227-0.108-0.454-0.196-0.69-0.266
					l-0.314-5.306c0.236,0.08,0.462,0.177,0.68,0.305l1.358,0.788L83.246,50.194z"/>
				<path fill="#B8B8B8" d="M83.582,55.766l-1.97,0.118l-0.335-5.642c0.167,0.07,0.335,0.148,0.501,0.247l0.188,0.108l1.357,0.787
					L83.582,55.766z"/>
			</g>
			<g>
				<path fill="#828282" d="M113.534,72.833l-0.08,0.049c0,0,0,0-0.008,0l-0.148,0.089l-3.002,1.731
					c-0.009,0-0.009,0.011-0.02,0.011c-0.021,0.01-0.04,0.021-0.06,0.029l-2.923,1.703c-0.039,0.02-0.088,0.039-0.128,0.06
					c-0.02,0.008-0.04,0.029-0.068,0.039l-2.767,1.605c-0.079,0.049-0.167,0.087-0.254,0.137l-0.247,0.119
					c-0.668,0.295-1.399,0.452-2.126,0.452c-0.521,0-1.023-0.069-1.527-0.227c-0.108-0.03-0.216-0.069-0.323-0.107l-33.96-12.699
					c-0.827-0.314-1.397-1.004-1.546-1.841c-0.039-0.218-0.048-0.442-0.029-0.68l0.098-1.022c0.021-0.217,0.04-0.434,0.069-0.649
					l1.388-0.809c-0.038,0.543-0.097,1.063-0.146,1.595l-0.08,0.818l-0.019,0.196c-0.041,0.433,0.167,0.954,0.718,1.162
					l33.97,12.698c0.58,0.217,1.191,0.295,1.792,0.226c0.443-0.049,0.875-0.168,1.279-0.363l0.147-0.07
					c0.05-0.02,0.089-0.039,0.138-0.068l0.256-0.148l2.667-1.545l0.04-0.02l0.561-0.325l2.579-1.486l0.68-0.394l2.421-1.397
					l0.01,0.02l0.01,0.02L113.534,72.833z"/>
				<path fill="#828282" d="M113.791,72.695l-0.069,0.021v0.01l-0.119,0.09l-0.117,0.067l-0.079,0.05h-0.01l-0.01,0.01l-0.06,0.029
					l-2.785,1.614c-0.01,0.011-0.03,0.011-0.04,0.019l-2.884,1.675c-0.119,0.069-0.227,0.118-0.325,0.167
					c-0.039,0.02-0.088,0.039-0.128,0.06c-0.02,0.008-0.04,0.029-0.068,0.039c-0.03,0.01-0.069,0.03-0.098,0.038l-0.128,0.051
					c-0.61,0.226-1.25,0.344-1.889,0.344c-0.354,0-0.71-0.039-1.054-0.108c-0.167-0.028-0.326-0.069-0.482-0.127
					c-0.099-0.021-0.196-0.05-0.294-0.089L69.18,63.946c-0.837-0.316-1.408-1.015-1.546-1.861c-0.039-0.216-0.049-0.443-0.03-0.668
					l0.099-0.986c0.03-0.235,0.049-0.473,0.069-0.699l1.398-0.806c-0.048,0.55-0.1,1.103-0.158,1.643l-0.08,0.768l-0.019,0.217
					c-0.04,0.423,0.167,0.954,0.719,1.162l33.98,12.708c0.55,0.206,1.142,0.286,1.732,0.228c0.394-0.031,0.787-0.13,1.152-0.276
					l0.098-0.05l0.04-0.02l0.256-0.118c0.018-0.009,0.049-0.03,0.078-0.039l0.266-0.158l2.756-1.584l0.01-0.011l0.492-0.285
					l2.392-1.388l0.295-0.167l0.02,0.01h0.01l0.088,0.019v0.591L113.791,72.695z"/>
				<path fill="#828282" d="M113.849,72.586l0.049,0.079l-0.365,0.207l-0.009,0.01h-0.01l-0.147,0.089l-2.451,1.428
					c-0.127,0.068-0.245,0.138-0.374,0.187c-0.01,0.011-0.03,0.011-0.04,0.019c-0.069,0.04-0.138,0.07-0.207,0.099
					c-0.009,0-0.009,0.011-0.02,0.011c-0.021,0.01-0.04,0.021-0.06,0.029l-0.07,0.03c-0.028,0-0.047,0.011-0.076,0.02
					c-0.582,0.206-1.183,0.314-1.793,0.314c-0.354,0-0.698-0.039-1.043-0.118c-0.019,0.01-0.029,0-0.039-0.01h-0.01
					c-0.138-0.029-0.266-0.059-0.393-0.099c-0.021,0-0.04,0-0.061-0.009c-0.008-0.011-0.008-0.011-0.019-0.011
					c-0.089-0.029-0.177-0.06-0.265-0.088L72.477,62.076c-0.846-0.315-1.417-1.044-1.555-1.891
					c-0.029-0.207-0.039-0.415-0.021-0.631l0.119-1.17c0.02-0.189,0.04-0.377,0.049-0.562h0.01l1.389-0.798
					c-0.04,0.502-0.09,0.993-0.139,1.486l-0.088,0.916l-0.029,0.244c-0.039,0.435,0.167,0.967,0.718,1.173l33.97,12.697
					c0.552,0.207,1.132,0.285,1.704,0.228c0.364-0.021,0.728-0.099,1.072-0.236l0.099-0.04l0.098-0.038
					c0.011,0,0.02-0.013,0.02-0.013l0.099-0.037l0.01-0.011c0.099-0.039,0.187-0.088,0.276-0.138l0.236-0.147h0.01l2.372-1.368
					l0.305-0.177h0.01l0.057-0.04l0.278-0.059v0.619l0.629,0.307L113.849,72.586z"/>
				<path fill="#828282" d="M113.849,72.586l0.049,0.079l-0.296,0.207h-0.069l-0.009,0.01h-0.07c0,0,0,0-0.008,0l-0.039,0.05h-0.01
					l-0.01,0.01l-0.02,0.029h-0.178c-0.521,0.167-1.072,0.256-1.613,0.256c-0.356,0-0.71-0.04-1.054-0.118h-0.01
					c-0.01,0-0.01,0-0.02,0c-0.011,0-0.03,0-0.039-0.01c-0.158-0.029-0.316-0.079-0.474-0.128c-0.088-0.021-0.166-0.05-0.246-0.078
					l-33.97-12.698c-0.856-0.315-1.428-1.044-1.555-1.901v-0.009c-0.03-0.196-0.04-0.402-0.021-0.609l0.1-0.984
					c0.029-0.257,0.048-0.514,0.078-0.77l1.389-0.796c-0.05,0.571-0.109,1.131-0.158,1.693l-0.07,0.708l-0.029,0.265
					c-0.04,0.435,0.167,0.966,0.719,1.172l33.979,12.699c0.532,0.196,1.093,0.275,1.645,0.236c0.305-0.021,0.61-0.08,0.895-0.168
					l0.079-0.068l0.365-0.108l0.02,0.01h0.01l0.057-0.04l0.052-0.03l0.226-0.028v0.619l0.629,0.307L113.849,72.586z"/>
				<path fill="#828282" d="M115.995,71.209c-0.375,0.087-0.756,0.139-1.152,0.139c-0.53,0-1.071-0.091-1.594-0.257
					c-0.08-0.029-0.148-0.05-0.227-0.078L79.063,58.314c-0.856-0.314-1.438-1.063-1.546-1.939c-0.039-0.187-0.039-0.385-0.021-0.591
					l0.07-0.619c0.039-0.346,0.078-0.689,0.109-1.024c0.432-0.157,0.875-0.246,1.329-0.284c-0.031,0.492-0.089,0.974-0.139,1.457
					l-0.058,0.562l-0.011,0.047c-0.039,0.425,0.158,0.957,0.719,1.162l33.97,12.699c0.501,0.187,1.024,0.265,1.545,0.235
					c0.226,0,0.453-0.038,0.67-0.089l0.146-0.009v0.679L115.995,71.209z"/>
			</g>
			<g>
				<path fill="#E0E0E0" d="M101.899,78.366c-0.512,0-0.982-0.068-1.438-0.214c-0.109-0.03-0.212-0.066-0.312-0.104L66.193,65.351
					c-0.72-0.273-1.229-0.877-1.358-1.614c-0.035-0.19-0.044-0.394-0.026-0.604c0,0,0.128-1.352,0.147-1.517l0.772-0.447
					c-0.016,0.166-0.198,2.036-0.198,2.036c-0.049,0.545,0.212,1.207,0.909,1.468l33.97,12.698c0.48,0.18,0.975,0.271,1.474,0.271
					c0.152,0,0.304-0.01,0.454-0.026c0.494-0.057,0.957-0.188,1.377-0.393l0.142-0.067c0.048-0.017,0.099-0.044,0.166-0.084
					l8.944-5.165l0.364,0.623l-2.915,1.682h-0.042l-0.065,0.061l-2.965,1.723l-0.138,0.058l-0.059,0.039l-2.765,1.605
					c-0.049,0.03-0.251,0.134-0.251,0.134l-0.231,0.109C103.271,78.218,102.578,78.366,101.899,78.366z"/>
				<path fill="#E0E0E0" d="M105.178,76.485c-0.319,0-0.654-0.034-0.997-0.102c-0.156-0.028-0.296-0.063-0.436-0.115
					c-0.126-0.03-0.208-0.054-0.289-0.087L69.48,63.472c-0.728-0.274-1.236-0.885-1.359-1.631c-0.034-0.198-0.043-0.396-0.026-0.598
					l0.098-0.98c0.023-0.182,0.041-0.368,0.057-0.551l0.771-0.445c-0.033,0.361-0.066,0.719-0.105,1.072l-0.098,0.989
					c-0.051,0.541,0.211,1.205,0.908,1.466l33.98,12.707c0.465,0.174,0.955,0.266,1.453,0.266c0.137,0,0.274-0.008,0.412-0.021
					c0.403-0.03,0.832-0.133,1.234-0.296l0.405-0.191l0.033-0.011l0.339-0.202l2.752-1.582l2.865-1.666v0.298l0.323,0.343
					l-0.041,0.002l-0.098,0.087l-2.793,1.606l-0.073,0.025l-0.037,0.05l-2.813,1.618c-0.085,0.049-0.163,0.087-0.236,0.122
					l-0.149,0.071l-0.111,0.06l-0.21,0.081C106.384,76.375,105.781,76.485,105.178,76.485z"/>
				<path fill="#E0E0E0" d="M108.476,74.616c-0.317,0-0.624-0.034-0.935-0.102l-0.025-0.025h-0.092l-0.028-0.008l-0.01,0.004
					c-0.077-0.02-0.195-0.048-0.311-0.083l-0.061-0.031l-0.106-0.001l-0.173-0.074L72.778,61.601
					c-0.731-0.272-1.242-0.894-1.368-1.661c-0.027-0.19-0.033-0.375-0.017-0.555c0,0,0.147-1.442,0.159-1.578l0.771-0.44
					c-0.028,0.306-0.178,1.835-0.178,1.835l-0.028,0.239c-0.052,0.554,0.211,1.222,0.908,1.483l33.97,12.698
					c0.467,0.175,0.949,0.263,1.432,0.263c0.135,0,0.271-0.006,0.404-0.02c0.387-0.021,0.781-0.107,1.153-0.256l0.144-0.06h0.064
					l0.056-0.049l0.105-0.043l0.012-0.011c0.088-0.04,0.169-0.084,0.25-0.129l0.202-0.126l2.628-1.512v0.392l0.307,0.148
					l-0.116,0.071l0.045,0.071l-2.718,1.584c-0.155,0.084-0.24,0.131-0.331,0.165l-0.078,0.03l-0.074,0.065
					c0.007-0.007,0.005-0.011-0.001-0.011c-0.012,0-0.041,0.011-0.069,0.021l-0.148,0.069c-0.032,0.007-0.059,0.015-0.078,0.021
					C109.612,74.514,109.042,74.616,108.476,74.616z"/>
				<path fill="#E0E0E0" d="M111.772,72.735c-0.333,0-0.666-0.037-0.987-0.111c-0.227-0.039-0.372-0.085-0.52-0.13
					c-0.098-0.023-0.163-0.048-0.229-0.074L76.065,59.721c-0.741-0.272-1.251-0.896-1.365-1.667
					c-0.029-0.197-0.035-0.379-0.02-0.549l0.162-1.601l0.762-0.437l-0.172,1.833l-0.03,0.263c-0.05,0.552,0.212,1.218,0.908,1.479
					l33.98,12.698c0.475,0.177,0.969,0.266,1.47,0.266c0.101,0,0.2-0.004,0.299-0.012c0.323-0.021,0.647-0.081,0.962-0.18
					l0.059-0.019l0.076-0.066l0.239-0.069h0.049v0.411l0.307,0.148l-0.116,0.071l0.057,0.089h-0.02l-0.018,0.01h-0.076l-0.074,0.049
					h-0.024l-0.043,0.04h-0.051C112.803,72.652,112.276,72.735,111.772,72.735z"/>
				<path fill="#E0E0E0" d="M115.041,70.855c-0.499,0-1.005-0.082-1.505-0.241l-0.212-0.075L79.361,57.84
					c-0.739-0.271-1.258-0.923-1.354-1.698c-0.035-0.164-0.04-0.324-0.02-0.525c0,0,0.134-1.182,0.161-1.454
					c0.233-0.074,0.475-0.131,0.731-0.17c-0.021,0.25-0.049,0.497-0.074,0.745l-0.097,0.907c-0.061,0.598,0.201,1.26,0.9,1.518
					l33.968,12.698c0.464,0.174,0.949,0.262,1.439,0.262c0.075,0,0.229-0.006,0.229-0.006c0.175,0,0.349-0.022,0.502-0.052v0.337
					l0.088,0.382C115.569,70.832,115.301,70.855,115.041,70.855z"/>
			</g>
			<g>
				<g>
					
						<rect x="74.121" y="50.931" transform="matrix(0.5184 0.8552 -0.8552 0.5184 89.1652 -34.0115)" fill="#AEAEAE" width="1.312" height="22.444"/>
				</g>
				<g>
					
						<rect x="77.332" y="52.125" transform="matrix(0.5189 0.8549 -0.8549 0.5189 91.6761 -36.1904)" fill="#AEAEAE" width="1.314" height="22.445"/>
				</g>
				<g>
					
						<rect x="81.279" y="53.318" transform="matrix(0.5177 0.8556 -0.8556 0.5177 94.7343 -38.9731)" fill="#AEAEAE" width="1.314" height="22.445"/>
				</g>
				<g>
					
						<rect x="84.282" y="54.81" transform="matrix(0.5181 0.8553 -0.8553 0.5181 97.4092 -40.8281)" fill="#AEAEAE" width="1.312" height="22.443"/>
				</g>
				<g>
					
						<rect x="87.973" y="55.864" transform="matrix(0.5184 0.8552 -0.8552 0.5184 100.0559 -43.4806)" fill="#AEAEAE" width="1.312" height="22.446"/>
				</g>
				<g>
					
						<rect x="91.245" y="57.229" transform="matrix(0.5186 0.855 -0.855 0.5186 102.7617 -45.6252)" fill="#AEAEAE" width="1.312" height="22.445"/>
				</g>
				<g>
					
						<rect x="94.517" y="58.96" transform="matrix(0.5185 0.8551 -0.8551 0.5185 105.8342 -47.588)" fill="#AEAEAE" width="1.315" height="22.447"/>
				</g>
				<g>
					
						<rect x="98.176" y="60.063" transform="matrix(0.5186 0.855 -0.855 0.5186 108.5302 -50.1862)" fill="#AEAEAE" width="1.313" height="22.446"/>
				</g>
				<g>
					
						<rect x="101.834" y="61.165" transform="matrix(0.5189 0.8548 -0.8548 0.5189 111.1853 -52.7869)" fill="#AEAEAE" width="1.313" height="22.446"/>
				</g>
			</g>
			<g>
				
					<rect x="63.748" y="61.538" transform="matrix(-0.8553 0.5182 -0.5182 -0.8553 170.618 76.1481)" fill="#E0E0E0" width="21.855" height="0.723"/>
				
					<rect x="66.96" y="62.732" transform="matrix(-0.8553 0.5181 -0.5181 -0.8553 177.1931 76.6989)" fill="#E0E0E0" width="21.854" height="0.721"/>
				
					<rect x="70.906" y="63.924" transform="matrix(-0.8553 0.5182 -0.5182 -0.8553 185.1345 76.863)" fill="#E0E0E0" width="21.854" height="0.723"/>
				
					<rect x="73.908" y="65.415" transform="matrix(-0.8553 0.5181 -0.5181 -0.8553 191.4757 78.0783)" fill="#E0E0E0" width="21.854" height="0.722"/>
				
					<rect x="77.599" y="66.471" transform="matrix(-0.8553 0.5181 -0.5181 -0.8553 198.8712 78.129)" fill="#E0E0E0" width="21.855" height="0.723"/>
				
					<rect x="80.872" y="67.835" transform="matrix(-0.8553 0.5181 -0.5181 -0.8553 205.6481 78.9634)" fill="#E0E0E0" width="21.853" height="0.722"/>
				
					<rect x="84.144" y="69.568" transform="matrix(-0.8553 0.5181 -0.5181 -0.8553 212.6176 80.4799)" fill="#E0E0E0" width="21.854" height="0.722"/>
				
					<rect x="87.802" y="70.67" transform="matrix(-0.8553 0.5181 -0.5181 -0.8553 219.9759 80.6273)" fill="#E0E0E0" width="21.855" height="0.722"/>
				
					<rect x="91.462" y="71.773" transform="matrix(-0.8553 0.5181 -0.5181 -0.8553 227.3368 80.7827)" fill="#E0E0E0" width="21.853" height="0.722"/>
			</g>
			<g>
				<g>
					
						<rect x="87.896" y="35.097" transform="matrix(0.9974 0.0714 -0.0714 0.9974 3.535 -6.1947)" fill="#828282" width="0.984" height="22.471"/>
				</g>
				<g>
					
						<rect x="91.372" y="37.333" transform="matrix(0.9973 0.0734 -0.0734 0.9973 3.7783 -6.6128)" fill="#828282" width="0.985" height="21.539"/>
				</g>
				<g>
					
						<rect x="94.848" y="39.57" transform="matrix(0.9968 0.0794 -0.0794 0.9968 4.2627 -7.4152)" fill="#828282" width="0.984" height="20.607"/>
				</g>
				<g>
					
						<rect x="98.322" y="41.806" transform="matrix(0.9966 0.0823 -0.0823 0.9966 4.5884 -7.9617)" fill="#828282" width="0.984" height="19.677"/>
				</g>
				<g>
					
						<rect x="101.798" y="44.043" transform="matrix(0.9963 0.0862 -0.0862 0.9963 4.9879 -8.623)" fill="#828282" width="0.985" height="18.745"/>
				</g>
				<g>
					
						<rect x="105.272" y="46.278" transform="matrix(0.996 0.0893 -0.0893 0.996 5.3495 -9.2226)" fill="#828282" width="0.984" height="17.815"/>
				</g>
				<g>
					
						<rect x="108.749" y="48.515" transform="matrix(0.9955 0.0942 -0.0942 0.9955 5.8543 -10.0421)" fill="#828282" width="0.984" height="16.885"/>
				</g>
				<g>
					
						<rect x="112.224" y="50.75" transform="matrix(0.995 0.1002 -0.1002 0.995 6.4546 -11.0029)" fill="#828282" width="0.984" height="15.955"/>
				</g>
				<g>
					
						<rect x="115.699" y="52.984" transform="matrix(0.9943 0.1062 -0.1062 0.9943 7.0807 -11.9955)" fill="#828282" width="0.984" height="15.026"/>
				</g>
				<g>
					
						<rect x="84.445" y="32.906" transform="matrix(0.9989 0.0476 -0.0476 0.9989 2.2201 -3.9915)" fill="#828282" width="0.985" height="23.447"/>
				</g>
			</g>
			<g>
				
					<rect x="77.692" y="46.183" transform="matrix(-0.0713 0.9975 -0.9975 -0.0713 141.2127 -38.72)" fill="#B8B8B8" width="21.88" height="0.393"/>
				
					<rect x="81.633" y="47.952" transform="matrix(-0.0744 0.9972 -0.9972 -0.0744 146.9776 -40.1185)" fill="#B8B8B8" width="20.947" height="0.394"/>
				
					<rect x="85.574" y="49.723" transform="matrix(-0.0778 0.997 -0.997 -0.0778 152.7893 -41.4881)" fill="#B8B8B8" width="20.018" height="0.394"/>
				
					<rect x="89.514" y="51.493" transform="matrix(-0.0815 0.9967 -0.9967 -0.0815 158.6475 -42.8264)" fill="#B8B8B8" width="19.087" height="0.395"/>
				
					<rect x="93.455" y="53.265" transform="matrix(-0.0855 0.9963 -0.9963 -0.0855 164.5649 -44.1242)" fill="#B8B8B8" width="18.155" height="0.393"/>
				
					<rect x="97.395" y="55.036" transform="matrix(-0.09 0.9959 -0.9959 -0.09 170.5541 -45.3758)" fill="#B8B8B8" width="17.226" height="0.393"/>
				
					<rect x="101.335" y="56.807" transform="matrix(-0.0949 0.9955 -0.9955 -0.0949 176.6209 -46.5739)" fill="#B8B8B8" width="16.295" height="0.392"/>
				
					<rect x="105.275" y="58.576" transform="matrix(-0.1004 0.9949 -0.9949 -0.1004 182.7809 -47.71)" fill="#B8B8B8" width="15.367" height="0.395"/>
				
					<rect x="109.215" y="60.347" transform="matrix(-0.1067 0.9943 -0.9943 -0.1067 189.0601 -48.7624)" fill="#B8B8B8" width="14.438" height="0.394"/>
				
					<rect x="73.753" y="44.478" transform="matrix(-0.0479 0.9989 -0.9989 -0.0479 133.8816 -38.2708)" fill="#B8B8B8" width="22.857" height="0.394"/>
			</g>
			<polygon fill="#C4C4C4" points="104.302,62.734 102.097,64.014 89.162,59.17 81.612,54.258 			"/>
			<path fill="#C4C4C4" d="M115.228,66.819l-0.029,0.384l-0.119,1.23l-0.049,0.503c-0.069-0.079-0.167-0.158-0.304-0.207
				L104.487,64.9l2.206-1.271L115.228,66.819z"/>
			<path fill="#828282" d="M80.618,49.849c-1.161-0.482-2.5-0.403-3.613,0.236l-14.036,8.109L62.2,58.639
				c-0.315,0.177-0.531,0.473-0.61,0.816c0.009-0.127,0.03-0.363-0.009-0.698c-0.05-0.541-0.572-0.354-0.572-0.354
				c0.187-0.246,0.424-0.463,0.699-0.62l1.162-0.67l13.643-7.883c1.239-0.71,2.717-0.856,4.045-0.435L80.618,49.849z"/>
			<path fill="#C4C4C4" d="M62.175,58.278c-0.043-0.136-0.121-0.247-0.223-0.324c0.077-0.063,0.159-0.118,0.242-0.165L77,49.233
				c0.721-0.411,1.542-0.63,2.375-0.63c0.421,0,0.837,0.057,1.239,0.165l0.023,0.403c-0.403-0.12-0.82-0.181-1.245-0.181
				c-0.77,0-1.527,0.203-2.195,0.587l-14.805,8.554C62.315,58.176,62.242,58.225,62.175,58.278z"/>
			<path fill="#828282" d="M80.292,43.527c-1.162-0.481-2.5-0.402-3.612,0.236l-14.037,8.112l-0.767,0.441
				c-0.316,0.177-0.532,0.474-0.61,0.818c0.008-0.128,0.028-0.365-0.011-0.698c-0.05-0.544-0.57-0.355-0.57-0.355
				c0.186-0.245,0.422-0.462,0.698-0.62l1.162-0.671l13.643-7.883c1.24-0.709,2.716-0.855,4.045-0.433L80.292,43.527z"/>
			<path fill="#C4C4C4" d="M61.85,51.958c-0.043-0.136-0.12-0.249-0.223-0.326c0.077-0.063,0.16-0.117,0.244-0.164l14.805-8.556
				c0.721-0.412,1.541-0.629,2.375-0.629c0.421,0,0.837,0.057,1.24,0.163l0.023,0.404c-0.403-0.121-0.82-0.18-1.245-0.18
				c-0.77,0-1.529,0.203-2.196,0.587l-14.805,8.554C61.989,51.854,61.918,51.904,61.85,51.958z"/>
			<path fill="#828282" d="M80.136,37.494c-1.163-0.481-2.5-0.402-3.612,0.237l-14.037,8.111l-0.769,0.442
				c-0.314,0.178-0.532,0.474-0.611,0.817c0.011-0.127,0.03-0.364-0.01-0.698c-0.048-0.542-0.57-0.355-0.57-0.355
				c0.188-0.245,0.423-0.462,0.7-0.619l1.161-0.669l13.644-7.886c1.239-0.708,2.716-0.855,4.045-0.433L80.136,37.494z"/>
			<path fill="#C4C4C4" d="M61.693,45.926c-0.044-0.138-0.121-0.25-0.224-0.327c0.077-0.062,0.159-0.117,0.243-0.164l14.806-8.557
				c0.72-0.41,1.542-0.629,2.374-0.629c0.422,0,0.838,0.056,1.241,0.166l0.022,0.402c-0.403-0.12-0.819-0.18-1.244-0.18
				c-0.771,0-1.528,0.203-2.196,0.586l-14.805,8.554C61.832,45.821,61.761,45.871,61.693,45.926z"/>
			<g>
				<path fill="#C4C4C4" d="M106.792,74.88c-0.021,0-0.04,0-0.061-0.009c-0.008-0.011-0.008-0.011-0.019-0.011l-1.368,0.789
					c0.394-0.031,0.787-0.13,1.152-0.276l0.098-0.05l0.04-0.02l0.551-0.325C107.047,74.95,106.919,74.92,106.792,74.88z
					 M106.792,74.88c-0.021,0-0.04,0-0.061-0.009c-0.008-0.011-0.008-0.011-0.019-0.011l-1.368,0.789
					c0.394-0.031,0.787-0.13,1.152-0.276l0.098-0.05l0.04-0.02l0.551-0.325C107.047,74.959,106.919,74.92,106.792,74.88z
					 M106.792,74.88c-0.021,0-0.04,0-0.061-0.009c-0.008-0.011-0.008-0.011-0.019-0.011l-1.368,0.789
					c0.394-0.031,0.787-0.13,1.152-0.276l0.098-0.05l0.04-0.02l0.551-0.325C107.047,74.959,106.919,74.92,106.792,74.88z
					 M106.792,74.88c-0.021,0-0.04,0-0.061-0.009c-0.008-0.011-0.008-0.011-0.019-0.011l-1.368,0.789
					c0.394-0.031,0.787-0.13,1.152-0.276l0.098-0.05l0.04-0.02l0.551-0.325C107.047,74.959,106.919,74.92,106.792,74.88z
					 M106.792,74.88c-0.021,0-0.04,0-0.061-0.009c-0.008-0.011-0.008-0.011-0.019-0.011l-1.368,0.789
					c0.394-0.031,0.787-0.13,1.152-0.276l0.098-0.05l0.04-0.02l0.551-0.325C107.047,74.959,106.919,74.92,106.792,74.88z
					 M106.792,74.88c-0.021,0-0.04,0-0.061-0.009c-0.008-0.011-0.008-0.011-0.019-0.011l-1.368,0.789
					c0.394-0.031,0.787-0.13,1.152-0.276l0.098-0.05l0.04-0.02l0.551-0.325C107.047,74.95,106.919,74.92,106.792,74.88z
					 M104.302,62.734l-2.205,1.28l2.391,0.886l2.206-1.271L104.302,62.734z M106.792,74.88c-0.021,0-0.04,0-0.061-0.009
					c-0.008-0.011-0.008-0.011-0.019-0.011l-1.368,0.789c0.394-0.031,0.787-0.13,1.152-0.276l0.098-0.05l0.04-0.02l0.551-0.325
					C107.047,74.959,106.919,74.92,106.792,74.88z M106.792,74.88c-0.021,0-0.04,0-0.061-0.009
					c-0.008-0.011-0.008-0.011-0.019-0.011l-1.368,0.789c0.394-0.031,0.787-0.13,1.152-0.276l0.098-0.05l0.04-0.02l0.551-0.325
					C107.047,74.959,106.919,74.92,106.792,74.88z M106.792,74.88c-0.021,0-0.04,0-0.061-0.009
					c-0.008-0.011-0.008-0.011-0.019-0.011l-1.368,0.789c0.394-0.031,0.787-0.13,1.152-0.276l0.098-0.05l0.04-0.02l0.551-0.325
					C107.047,74.959,106.919,74.92,106.792,74.88z M106.792,74.88c-0.021,0-0.04,0-0.061-0.009
					c-0.008-0.011-0.008-0.011-0.019-0.011l-1.368,0.789c0.394-0.031,0.787-0.13,1.152-0.276l0.098-0.05l0.04-0.02l0.551-0.325
					C107.047,74.95,106.919,74.92,106.792,74.88z"/>
				<path fill="#C4C4C4" d="M115.829,71.868L101.2,80.315c-0.855,0.501-1.821,0.747-2.786,0.747c-0.659,0-1.329-0.118-1.958-0.354
					L62.477,68.01c-1.004-0.375-1.694-1.28-1.782-2.362c-0.088-1.073,0.434-2.077,1.368-2.618l2.422-1.397l1.388-0.809l1.9-1.093
					l1.398-0.806l1.899-1.103h0.01l1.389-0.798l1.899-1.104l1.389-0.796l0.935-0.543c0.313-0.186,0.639-0.334,0.984-0.442
					c0.028-0.01,0.068-0.02,0.097-0.028l2.925,1.909c-0.611-0.227-1.26-0.276-1.89-0.146c-0.394,0.067-0.778,0.206-1.132,0.411
					l-0.158,0.089l-1.989,1.152l-1.318,0.758v0.009l-1.969,1.134l-1.319,0.758l-1.989,1.15l-1.298,0.749l-1.989,1.152l-1.299,0.747
					l-1.298,0.748c-0.394,0.227-0.404,0.601-0.394,0.759c0.009,0.147,0.088,0.521,0.51,0.68l33.981,12.697
					c1.005,0.365,2.105,0.284,3.031-0.236c0.011,0,0.031-0.01,0.04-0.021l1.891-1.092l1.338-0.777l1.9-1.092
					c0.394-0.031,0.787-0.13,1.152-0.276l0.098-0.05l0.04-0.02l0.551-0.325c-0.138-0.029-0.266-0.059-0.393-0.099
					c-0.021,0-0.04,0-0.061-0.009c-0.008-0.011-0.008-0.011-0.019-0.011l1.89-1.092l1.377-0.798l1.861-1.072l1.408-0.808
					l1.594-0.926c0.031-0.019,0.06-0.029,0.089-0.058c0.039-0.021,0.069-0.05,0.099-0.09c0.216-0.216,0.226-0.492,0.208-0.61
					c-0.011-0.099-0.05-0.304-0.208-0.472l0.049-0.503l0.119-1.23l0.029-0.384l0.187,0.069c0.788,0.285,1.368,0.896,1.635,1.654
					c0.079,0.217,0.137,0.452,0.157,0.697C117.294,70.324,116.763,71.328,115.829,71.868z"/>
			</g>
			<path fill="#828282" d="M106.454,64.74L82.665,50.991l-1.358-0.787l-0.188-0.109c-0.167-0.099-0.333-0.177-0.501-0.245
				l-0.059-1.054c0.236,0.069,0.463,0.158,0.689,0.267c0.118,0.059,0.246,0.107,0.364,0.177l0.974,0.561l24.442,14.129
				C107.155,63.997,106.522,64.779,106.454,64.74z"/>
			<path fill="#C4C4C4" d="M81.269,49.635c-0.124-0.072-0.546-0.349-0.667-0.403L80.576,48.8c0.082,0.034,0.68,0.388,0.68,0.388
				c0.07,0.03,0.14,0.062,0.206,0.101l25.21,14.571c-0.068,0.103-0.166,0.229-0.246,0.318L81.269,49.635z"/>
			<g>
				<path fill="#828282" d="M81.337,36.796c-0.473-0.276-0.985-0.473-1.516-0.59l-0.346-5.76l-0.039-0.679l1.959-0.118l0.107,1.841
					l0.334,5.592L81.337,36.796z"/>
				<path fill="#9E9E9E" d="M81.837,37.083l-0.5-0.286c-0.276-0.168-0.571-0.296-0.876-0.404l-0.335-5.552l-0.039-0.679l1.34-0.079
					l0.077,1.408L81.837,37.083z"/>
				<path fill="#828282" d="M82.211,43.362l-0.776-0.442c-0.394-0.227-0.817-0.403-1.25-0.522l-0.305-5.119
					c0.334,0.09,0.65,0.228,0.945,0.404l1.083,0.632L82.211,43.362z"/>
				<path fill="#9E9E9E" d="M82.211,43.362l-0.776-0.442c-0.198-0.108-0.405-0.216-0.61-0.305l-0.295-4.942
					c0.334,0.089,0.649,0.226,0.945,0.404l0.433,0.255L82.211,43.362z"/>
				<path fill="#828282" d="M82.585,49.799l-0.974-0.561c-0.118-0.069-0.246-0.118-0.364-0.177
					c-0.226-0.108-0.453-0.197-0.689-0.267l-0.314-5.305c0.235,0.078,0.461,0.177,0.679,0.305l1.359,0.787L82.585,49.799z"/>
				<path fill="#9E9E9E" d="M82.585,49.799l-0.974-0.561c-0.118-0.069-0.246-0.118-0.364-0.177c-0.021-0.011-0.03-0.021-0.049-0.021
					l-0.306-5.157c0.236,0.079,0.463,0.177,0.68,0.305l0.708,0.414L82.585,49.799z"/>
				<path fill="#828282" d="M82.921,55.372l-1.969,0.116l-0.334-5.639c0.167,0.068,0.334,0.146,0.501,0.245l0.188,0.109l1.358,0.787
					L82.921,55.372z"/>
				<path fill="#9E9E9E" d="M82.921,55.372l-1.348,0.079l-0.306-5.208c0.168,0.07,0.335,0.147,0.501,0.245l0.187,0.11l0.709,0.412
					L82.921,55.372z"/>
			</g>
			<g>
				<path fill="#9E9E9E" d="M65.872,60.824l-1.388,0.809c0.178-1.841,0.315-3.603,0.139-5.395l-1.852-18.792l1.31-0.128
					l1.852,18.791C66.088,57.695,66.01,59.278,65.872,60.824z"/>
			</g>
			<g>
				<path fill="#9E9E9E" d="M69.17,58.925l-1.398,0.806c0.197-1.88,0.345-3.681,0.188-5.502l-1.683-18.821l1.309-0.117l1.672,18.821
					C69.406,55.726,69.317,57.339,69.17,58.925z"/>
			</g>
			<g>
				<path fill="#9E9E9E" d="M72.468,57.025l-1.389,0.798c0.178-1.881,0.324-3.661,0.167-5.484l-1.683-18.819l1.309-0.118
					l1.685,18.82C72.693,53.835,72.614,55.451,72.468,57.025z"/>
			</g>
			<g>
				<path fill="#9E9E9E" d="M75.756,55.125l-1.389,0.796c0.167-1.801,0.295-3.523,0.118-5.265l-1.909-18.87l1.309-0.138l1.91,18.88
					C75.951,52.064,75.883,53.609,75.756,55.125z"/>
			</g>
			<g>
				<path fill="#9E9E9E" d="M79.004,53.856c-0.454,0.038-0.897,0.127-1.329,0.284c0.038-0.512,0.059-1.023,0.028-1.525
					l-2.125-22.571l1.31-0.118l2.125,22.592C79.043,52.971,79.033,53.421,79.004,53.856z"/>
			</g>
			<g>
				<path fill="#B1B1B1" d="M65.128,61.135c0.149-1.631,0.245-3.239,0.083-4.881l-1.821-18.496l0.721-0.071l1.823,18.497
					c0.158,1.602,0.069,3.17-0.047,4.508L65.128,61.135z"/>
				<path fill="#B1B1B1" d="M68.42,59.233c0.158-1.6,0.275-3.282,0.127-4.982l-1.656-18.528l0.721-0.064l1.647,18.525
					c0.149,1.636,0.05,3.24-0.076,4.608L68.42,59.233z"/>
				<path fill="#B1B1B1" d="M71.72,57.329c0.157-1.732,0.258-3.333,0.117-4.969L70.18,33.833l0.721-0.063l1.657,18.525
					c0.114,1.338,0.091,2.763-0.075,4.597L71.72,57.329z"/>
				<path fill="#B1B1B1" d="M75.008,55.43c0.139-1.591,0.229-3.159,0.067-4.757l-1.88-18.579l0.721-0.074l1.88,18.585
					c0.16,1.564,0.075,3.15-0.028,4.388L75.008,55.43z"/>
				<path fill="#B1B1B1" d="M78.292,53.776c0.022-0.422,0.022-0.789,0.002-1.133l-2.099-22.285l0.721-0.066l2.098,22.298
					c0.021,0.32,0.023,0.667,0.004,1.046C78.766,53.667,78.525,53.715,78.292,53.776z"/>
			</g>
			<g>
				
					<rect x="104.979" y="63.057" transform="matrix(0.996 0.0894 -0.0894 0.996 6.6944 -9.1452)" fill="#9E9E9E" width="0.983" height="14.253"/>
			</g>
			<g>
				
					<rect x="109.54" y="60.325" transform="matrix(0.9959 0.0903 -0.0903 0.9959 6.5413 -9.6616)" fill="#9E9E9E" width="0.984" height="14.253"/>
			</g>
			<g>
				
					<rect x="113.354" y="58.346" transform="matrix(0.9959 0.0903 -0.0903 0.9959 6.3781 -10.0142)" fill="#9E9E9E" width="0.984" height="14.251"/>
			</g>
			<g>
				<path fill="#9E9E9E" d="M102.175,65.715l-0.314,3.556l-0.119,1.239l-0.422,4.715l-0.099,1.191l-0.196,2.176
					c0,0-0.07,1.013-1.074,1.18c-0.846,0.139-0.963-0.57-0.963-0.57l0.206-2.322l0.098-1.033l0.423-4.706l0.088-1.043l0.413-4.559
					L102.175,65.715z"/>
			</g>
			<g>
				<path fill="#9E9E9E" d="M118.111,56.758l-0.639,7.168l-0.296,3.256l-0.127,1.36l-0.099,1.121c0,0-0.059,1.063-0.936,1.063
					c-0.787,0.01-1.083-0.619-1.083-0.619l0.099-1.172l0.049-0.503l0.119-1.23l0.029-0.384l0.275-3.042l0.099-1.102l0.551-6.093
					L118.111,56.758z"/>
			</g>
			<g>
				<path fill="#828282" d="M115.602,62.675l-0.099,1.102L82.282,44.583l-1.359-0.787c-0.217-0.128-0.443-0.227-0.679-0.305
					l-0.06-1.094c0.433,0.119,0.857,0.296,1.25,0.522l0.776,0.442L115.602,62.675z"/>
			</g>
			<path fill="#C4C4C4" d="M81.071,43.335c-0.168-0.1-0.814-0.421-1.01-0.496l-0.024-0.471c0.27,0.099,0.998,0.456,1.25,0.602
				l0.779,0.445l33.225,19.217l-0.041,0.453L81.071,43.335z"/>
			<g>
				<path fill="#828282" d="M115.256,56.405l-1.022,0.591L81.908,38.314l-1.083-0.632c-0.295-0.177-0.611-0.314-0.945-0.404
					l-0.059-1.071c0.531,0.117,1.043,0.313,1.516,0.59l0.5,0.286L115.256,56.405z"/>
			</g>
			<g>
				<polygon fill="#E7B51A" points="96.107,62.758 96.107,51.498 80.674,60.456 80.674,71.716 				"/>
				<polygon fill="#BF7000" points="80.674,60.456 68.749,53.57 68.749,64.831 80.674,71.716 				"/>
				<polygon fill="#FFE366" points="96.11,51.498 80.673,60.456 68.749,53.568 84.184,44.613 				"/>
			</g>
			<g>
				<polygon fill="#D9594A" points="90.572,52.639 90.572,46.686 81.73,51.825 81.73,57.777 				"/>
				<polygon fill="#BF2C2C" points="81.73,51.826 72.147,46.309 72.147,52.263 81.73,57.777 				"/>
				<polygon fill="#FA8C8C" points="90.574,46.688 81.729,51.825 72.146,46.309 80.991,41.172 				"/>
			</g>
			<g>
				<polygon fill="#0042A6" points="83.476,45.909 83.476,43.298 78.33,46.287 78.33,48.9 				"/>
				<polygon fill="#02286E" points="78.33,46.287 75.197,44.471 75.197,47.083 78.33,48.9 				"/>
				<polygon fill="#5C9AED" points="83.476,43.298 78.329,46.287 75.197,44.47 80.343,41.481 				"/>
			</g>
			<g>
				<polygon fill="#0042A6" points="107.54,68.195 107.54,62.532 92.106,71.489 92.106,77.151 				"/>
				<polygon fill="#02286E" points="92.106,71.489 82.807,66.136 82.807,71.799 92.106,77.151 				"/>
				<polygon fill="#5C9AED" points="107.542,62.534 92.106,71.489 82.804,66.136 98.24,57.179 				"/>
			</g>
			<g>
				<polygon fill="#E7B51A" points="105.678,62.201 105.678,55.07 99.108,58.886 99.107,66.017 				"/>
				<polygon fill="#BF7000" points="99.107,58.886 91.987,54.791 91.987,61.919 99.107,66.017 				"/>
				<polygon fill="#FFE366" points="105.679,55.07 99.107,58.886 91.985,54.79 98.559,50.973 				"/>
			</g>
			<g>
				<polygon fill="#D9594A" points="97.225,66.828 97.225,61.242 92.079,64.232 92.079,69.818 				"/>
				<polygon fill="#BF2C2C" points="92.079,64.233 86.502,61.024 86.502,66.609 92.079,69.818 				"/>
				<polygon fill="#FA8C8C" points="97.227,61.242 92.079,64.233 86.502,61.022 91.648,58.033 				"/>
			</g>
			<path fill="#C4C4C4" d="M82.055,37.853l-1.082-0.631c-0.258-0.155-0.861-0.349-1.139-0.439l-0.025-0.462
				c0.368,0.112,1.051,0.335,1.379,0.526l0.504,0.288l32.975,19.065l-0.432,0.25L82.055,37.853z"/>
			<path fill="#9E9E9E" d="M117.993,57.96l-0.029,0.295v0.02c0,0-0.62,0.609-0.62,1.25v0.039c0,0.621-1.339-1.417-1.339-1.417
				l0.009-0.117l0.109-1.123l0.02-0.178L117.993,57.96z"/>
			<g>
				<g>
					<path fill="#828282" d="M68.415,68.804c-0.475,0.107-0.574-0.51-0.574-0.51l1.51-21.092l0.981,0.07l-1.507,21.059
						C68.825,68.332,68.879,68.7,68.415,68.804z"/>
				</g>
				<g>
					<path fill="#828282" d="M71.866,69.974c-0.432-0.052-0.538-0.479-0.538-0.479l1.498-20.056l0.98,0.073l-1.498,20.072
						C72.308,69.585,72.341,70.032,71.866,69.974z"/>
				</g>
				<g>
					<path fill="#828282" d="M75.374,71.286c-0.363,0.082-0.565-0.484-0.565-0.484L76.3,51.673l0.982,0.078l-1.495,19.166
						C75.787,70.917,75.792,71.193,75.374,71.286z"/>
				</g>
				<g>
					<path fill="#828282" d="M78.873,72.695c-0.476,0.175-0.6-0.398-0.6-0.398l1.502-18.386l0.982,0.081l-1.486,18.195
						C79.271,72.187,79.348,72.521,78.873,72.695z"/>
				</g>
				<g>
					<path fill="#828282" d="M82.392,74.05c-0.694,0.163-0.645-0.391-0.645-0.391l1.505-17.515l0.979,0.087l-1.487,17.332
						C82.745,73.564,82.72,73.975,82.392,74.05z"/>
				</g>
				<g>
					<path fill="#828282" d="M85.797,75.301c-0.361,0.042-0.564-0.395-0.564-0.395l1.493-16.525l0.981,0.089l-1.489,16.494
						C86.218,74.964,86.203,75.255,85.797,75.301z"/>
				</g>
				<g>
					<path fill="#828282" d="M89.202,76.494c-0.547,0-0.468-0.479-0.468-0.479l1.468-15.396l0.981,0.093l-1.467,15.381
						C89.716,76.091,89.661,76.494,89.202,76.494z"/>
				</g>
				<g>
					<path fill="#828282" d="M92.838,77.872c-0.692,0.09-0.622-0.551-0.622-0.551l1.46-14.468l0.98,0.096l-1.458,14.443
						C93.199,77.392,93.195,77.827,92.838,77.872z"/>
				</g>
				<g>
					<path fill="#828282" d="M96.29,79.273c-0.576,0.059-0.61-0.448-0.61-0.448l1.473-13.738l0.979,0.106l-1.456,13.571
						C96.676,78.764,96.658,79.236,96.29,79.273z"/>
				</g>
				<g>
					<path fill="#828282" d="M64.928,67.45c-0.249-0.003-0.325-0.434-0.325-0.434l1.054-22.009l0.983,0.046l-1.06,22.129
						C65.581,67.182,65.403,67.455,64.928,67.45z"/>
				</g>
			</g>
			<g>
				<path fill="#B8B8B8" d="M68.458,68.534c-0.107,0-0.169-0.238-0.175-0.275l1.49-20.727l0.393,0.026l-1.485,20.763
					c0.005,0.127-0.056,0.178-0.181,0.207L68.458,68.534z"/>
				<path fill="#B8B8B8" d="M72.052,69.693c-0.215-0.026-0.28-0.237-0.288-0.262l1.484-19.663l0.393,0.028l-1.476,19.778
					l-0.017,0.114l-0.05,0.006L72.052,69.693z"/>
				<path fill="#B8B8B8" d="M75.455,71.012c-0.041,0-0.136-0.115-0.196-0.247l1.464-18.761l0.392,0.029l-1.472,18.87
					c-0.005,0.027-0.049,0.075-0.183,0.106L75.455,71.012z"/>
				<path fill="#B8B8B8" d="M78.853,72.444c-0.07,0-0.129-0.148-0.143-0.201l1.487-18.003l0.392,0.032l-1.463,17.902
					c0.008,0.124-0.044,0.197-0.205,0.256L78.853,72.444z"/>
				<path fill="#B8B8B8" d="M82.313,73.797c-0.057,0-0.089-0.013-0.098-0.022l1.456-17.297l0.392,0.034L82.601,73.55
					c0,0.007-0.021,0.201-0.125,0.225C82.413,73.791,82.358,73.797,82.313,73.797z"/>
				<path fill="#B8B8B8" d="M85.9,75.02c-0.078,0-0.163-0.093-0.213-0.168l1.458-16.139l0.391,0.036l-1.463,16.201
					c-0.004,0.021-0.051,0.056-0.159,0.069H85.9z"/>
				<path fill="#B8B8B8" d="M89.352,76.209c-0.09,0-0.141-0.019-0.155-0.036c-0.022-0.029-0.022-0.093-0.021-0.099l1.442-15.125
					l0.391,0.037l-1.438,15.088C89.556,76.159,89.48,76.209,89.352,76.209z"/>
				<path fill="#B8B8B8" d="M92.864,77.597c-0.076,0-0.128-0.016-0.157-0.046c-0.049-0.056-0.049-0.17-0.046-0.187l1.431-14.179
					l0.393,0.039l-1.43,14.149c0,0.025-0.007,0.204-0.105,0.216L92.864,77.597z"/>
				<path fill="#B8B8B8" d="M96.352,78.994c-0.193,0-0.223-0.124-0.227-0.177l1.441-13.394l0.393,0.041l-1.424,13.279
					c-0.002,0.021-0.02,0.235-0.123,0.248L96.352,78.994z"/>
				<path fill="#B8B8B8" d="M65.083,67.166c0.017-0.013-0.027-0.121-0.039-0.188l1.043-21.65l0.395,0.021l-1.04,21.723
					c-0.054,0.04-0.165,0.096-0.348,0.096H65.083z"/>
			</g>
			<g>
				<path fill="#C4C4C4" d="M117.56,52.625L81.73,29.295c-1.811-1.191-4.115-1.249-5.985-0.167l-15.276,8.82
					c-0.857,0.491-1.378,1.377-1.408,2.361c-0.03,0.994,0.453,1.899,1.28,2.441l2.538,1.654l0.956,0.62l13.938,9.086l2.925,1.909
					L96.16,66.089c0.955,0.622,2.038,0.926,3.131,0.926c0.983,0,1.968-0.255,2.864-0.768l2.333-1.348l2.206-1.271l9.518-5.492
					l1.014-0.591l0.208-0.118c0.846-0.503,1.378-1.388,1.407-2.372C118.859,54.073,118.387,53.157,117.56,52.625z M116.447,55.715
					l-1.191,0.689l-1.022,0.591l-9.932,5.738l-2.205,1.28l-0.925,0.53c-1.241,0.71-2.747,0.669-3.938-0.107l-8.072-5.267
					l-7.55-4.912L65.754,43.923l-0.966-0.621l-3.376-2.204c-0.363-0.226-0.393-0.59-0.383-0.728c0-0.148,0.049-0.502,0.423-0.72
					l15.278-8.819c0.846-0.492,1.832-0.62,2.746-0.385c0.414,0.089,0.808,0.257,1.182,0.493l0.845,0.551l34.975,22.778
					c0.364,0.236,0.394,0.59,0.394,0.738C116.861,55.145,116.812,55.509,116.447,55.715z"/>
			</g>
			<path fill="#C4C4C4" d="M118.003,65.401c0,0.709-0.305,1.34-0.827,1.781c-0.099,0.09-0.216,0.17-0.334,0.237l-1.762,1.014
				l-13.397,7.747c-0.147,0.088-0.305,0.168-0.462,0.236c-0.639,0.286-1.33,0.442-2.027,0.463l0.098-1.033
				c0.659-0.02,1.309-0.207,1.89-0.542l0.138-0.079l13.879-8.022l1.14-0.66c0.415-0.236,0.661-0.658,0.661-1.142
				c0-0.117-0.019-0.237-0.049-0.345v-0.009c-0.009-0.649,0.522-1.121,0.522-1.121C117.815,64.329,118.003,64.85,118.003,65.401z"/>
			<path fill="#E0E0E0" d="M99.561,75.823c0.616-0.056,1.222-0.25,1.767-0.563l15.159-8.761c0.506-0.289,0.807-0.812,0.807-1.398
				c0-0.135-0.02-0.278-0.06-0.424c0.001-0.215,0.109-0.421,0.214-0.573c0.17,0.297,0.26,0.64,0.26,0.997
				c0,0.608-0.257,1.162-0.724,1.558c-0.077,0.07-0.173,0.136-0.29,0.204l-1.761,1.015l-13.399,7.747
				c-0.141,0.085-0.287,0.158-0.433,0.223c-0.507,0.225-1.039,0.365-1.582,0.416L99.561,75.823z"/>
			<path fill="#C4C4C4" d="M118.357,59.554c0,0.856-0.433,1.615-1.171,2.039l-15.346,8.868c-0.029,0.019-0.058,0.039-0.099,0.049
				c-0.63,0.354-1.329,0.563-2.027,0.63l0.088-1.043c0.531-0.067,1.054-0.247,1.525-0.522l0.532-0.304l14.813-8.563
				c0.413-0.237,0.67-0.662,0.67-1.144v-0.039c0-0.641,0.62-1.25,0.62-1.25v-0.02C118.22,58.629,118.357,59.081,118.357,59.554z"/>
			<path fill="#E0E0E0" d="M100.077,70.051c0.489-0.092,0.97-0.27,1.401-0.522l15.343-8.868c0.511-0.293,0.816-0.813,0.816-1.396
				c0-0.278,0.138-0.558,0.281-0.77c0.093,0.236,0.143,0.494,0.143,0.76c0,0.747-0.383,1.414-1.023,1.78l-15.348,8.87l-0.035,0.011
				l-0.06,0.036c-0.472,0.266-1.004,0.45-1.558,0.547L100.077,70.051z"/>
			<path fill="#828282" d="M63.283,61.484l-0.314-3.289l-0.098-1.082l-0.04-0.384l-0.119-1.23l-0.325-3.435L62.28,50.96l-0.03-0.333
				l-0.118-1.241l-0.305-3.199l-0.099-1.122l-0.145-1.504l-1.243-0.81c-0.385-0.252-0.686-0.588-0.904-0.971l0.441,4.682
				l0.265,2.814l0.276,2.925l0.316,3.278l0.274,2.923l0.285,3.003l0.488,4.37c0,0,0.271,1.239,1.12,1.239
				c0.629,0,0.845-0.628,0.845-0.628l-0.347-3.693L63.283,61.484z"/>
			<path fill="#B8B8B8" d="M63.072,66.814c-0.59,0-0.83-1-0.833-1.009l-0.481-4.341L59.99,42.818
				c0.113,0.099,0.231,0.189,0.357,0.273l1.126,0.731l0.13,1.362l0.097,1.12l0.453,4.774l0.109,1.105l0.481,5.05l0.099,1.08
				l0.433,4.502l0.339,3.616C63.561,66.546,63.398,66.814,63.072,66.814z"/>
			<path fill="#828282" d="M86.632,74.979c-0.118-0.039-0.767-0.256-1.103-0.107c-0.315,0.146-0.393,0.384-0.393,0.384
				L63.401,62.694l-1.693-0.975c-0.158-0.087-0.296-0.196-0.414-0.313c-0.461-0.435-0.718-1.024-0.718-1.664
				c0-0.492,0.158-0.965,0.433-1.339c0,0,0.521-0.187,0.572,0.354c0.039,0.335,0.018,0.571,0.009,0.698c0,0.01,0,0.01,0,0.02
				c-0.009,0.03-0.009,0.061-0.02,0.099c-0.01,0.05-0.01,0.108-0.01,0.168c0,0.473,0.236,0.886,0.64,1.122l1.083,0.62L86.632,74.979
				z"/>
			<path fill="#C4C4C4" d="M61.934,61.263c-0.129-0.073-0.248-0.162-0.353-0.267c-0.41-0.385-0.632-0.9-0.632-1.455
				c0-0.382,0.109-0.756,0.31-1.067c0.006,0,0.012,0,0.018,0c0.066,0,0.08,0.023,0.088,0.109c0.035,0.305,0.019,0.514,0.011,0.64
				c-0.032,0.17-0.032,0.248-0.032,0.318c0,0.574,0.295,1.088,0.786,1.377l1.084,0.621l22.261,12.867
				c-0.156,0.075-0.268,0.166-0.352,0.254L61.934,61.263z"/>
			<path fill="#828282" d="M99.291,75.846l-0.098,1.033h-0.118c-0.907,0-1.812-0.236-2.61-0.699L62.831,56.729l-1.782-1.032
				c-0.118-0.069-0.216-0.139-0.314-0.217c-0.542-0.434-0.848-1.083-0.848-1.793c0-0.561,0.187-1.081,0.531-1.485
				c0,0,0.522-0.188,0.571,0.354c0.03,0.265,0.03,0.461,0.011,0.601c-0.069,0.157-0.108,0.345-0.108,0.53
				c0,0.475,0.246,0.906,0.659,1.143l1.162,0.669l34.255,19.806C97.686,75.718,98.494,75.905,99.291,75.846z"/>
			<path fill="#C4C4C4" d="M99.52,76.262c-0.815-0.024-2.128-0.132-2.829-0.539L61.274,55.24c-0.104-0.061-0.191-0.121-0.279-0.192
				c-0.467-0.373-0.735-0.941-0.735-1.56c0-0.451,0.141-0.877,0.396-1.214c0.01-0.002,0.02-0.002,0.03-0.002
				c0.064,0,0.08,0.022,0.087,0.109c0.033,0.286,0.024,0.447,0.013,0.533c-0.064,0.117-0.112,0.349-0.112,0.573
				c0,0.578,0.31,1.113,0.81,1.397L96.896,75.36c0.663,0.381,1.922,0.457,2.665,0.463L99.52,76.262z"/>
			<path fill="#828282" d="M99.803,70.097l-0.088,1.043c-0.178,0.021-0.345,0.03-0.521,0.03c-0.906,0-1.821-0.237-2.639-0.709
				L62.25,50.627l-1.545-0.896c-0.216-0.128-0.403-0.275-0.562-0.454c-0.383-0.423-0.609-0.981-0.609-1.583
				c0-0.443,0.118-0.866,0.344-1.231c0,0,0.61-0.206,0.66,0.335c0.058,0.541,0.02,0.854,0.02,0.854v0.042
				c0,0.481,0.246,0.914,0.66,1.16l0.915,0.532l34.934,20.188C97.902,70.058,98.868,70.235,99.803,70.097z"/>
			<path fill="#C4C4C4" d="M99.27,70.674c-0.872,0-1.733-0.231-2.491-0.67L60.93,49.274c-0.195-0.114-0.355-0.244-0.489-0.394
				c-0.346-0.38-0.536-0.872-0.536-1.389c0-0.345,0.083-0.678,0.24-0.97c0.018-0.003,0.037-0.004,0.057-0.004
				c0.099,0,0.11,0.017,0.118,0.106c0.055,0.497,0.021,0.789,0.021,0.792c-0.002,0.663,0.299,1.191,0.802,1.491L96.996,69.63
				c0.688,0.396,1.471,0.606,2.267,0.606l0,0c0.097,0,0.717-0.179,0.814-0.186l-0.038,0.447
				C99.958,70.503,99.354,70.674,99.27,70.674z"/>
			<path fill="#E0E0E0" d="M99.291,66.066c-1.021,0-2.01-0.294-2.862-0.846L80.966,55.15L60.609,41.881
				c-0.686-0.448-1.081-1.2-1.056-2.015c0.025-0.817,0.458-1.546,1.161-1.949l15.277-8.821c0.797-0.462,1.701-0.704,2.614-0.704
				c1.014,0,2.001,0.295,2.855,0.856l35.832,23.33c0.677,0.438,1.072,1.188,1.056,2.01c-0.025,0.806-0.46,1.541-1.167,1.958
				l-15.271,8.816C101.104,65.823,100.199,66.066,99.291,66.066z M78.569,29.381c-0.729,0-1.451,0.196-2.088,0.566l-15.275,8.819
				c-0.622,0.359-0.669,0.967-0.669,1.145c-0.024,0.336,0.122,0.838,0.617,1.146l3.367,2.2l0.967,0.621l15.855,10.333l7.55,4.912
				l8.07,5.269c0.695,0.452,1.497,0.692,2.321,0.692c0.742,0,1.478-0.197,2.131-0.571l0.925-0.53l2.207-1.282l12.146-7.017
				c0.393-0.225,0.632-0.614,0.667-1.099c0.003-0.521-0.218-0.93-0.616-1.188L80.926,30.069c-0.436-0.273-0.887-0.463-1.348-0.562
				C79.263,29.426,78.917,29.381,78.569,29.381z"/>
			<g>
				<polygon fill="#D9594A" points="103.936,54.787 103.936,51.786 99.478,54.376 99.478,57.377 				"/>
				<polygon fill="#BF2C2C" points="99.478,54.376 94.645,51.595 94.645,54.596 99.478,57.377 				"/>
				<polygon fill="#FA8C8C" points="103.937,51.786 99.478,54.376 94.645,51.595 99.105,49.005 				"/>
			</g>
		</g>
		<path fill="#828282" d="M81.045,30.143c-1.31-0.177-1.605-1.367-1.605-1.367l-1.633-3.26l-5.877-2.902l-0.384-3.495l7.541,4.845
			l0.266,0.225l2.657,5.425C82.009,29.613,82.088,30.292,81.045,30.143z"/>
		<g>
			<linearGradient id="SVGID_7_" gradientUnits="userSpaceOnUse" x1="62.4297" y1="26.0679" x2="63.916" y2="28.6423">
				<stop  offset="0.1261" style="stop-color:#FF4747"/>
				<stop  offset="0.1272" style="stop-color:#F25555"/>
				<stop  offset="0.4378" style="stop-color:#F25555"/>
				<stop  offset="0.4407" style="stop-color:#C23226"/>
				<stop  offset="0.8367" style="stop-color:#C23226"/>
				<stop  offset="0.8387" style="stop-color:#961E1E"/>
			</linearGradient>
			<path fill="url(#SVGID_7_)" d="M53.444,34.687l-1.479-2.558l20.088-11.618c0.469-0.271,1.068-0.109,1.34,0.358l0.131,0.228
				c0.473,0.818,0.194,1.864-0.624,2.337L53.444,34.687z"/>
		</g>
		<g>
			<linearGradient id="SVGID_8_" gradientUnits="userSpaceOnUse" x1="67.6421" y1="30.3071" x2="68.189" y2="31.2543">
				<stop  offset="0.1261" style="stop-color:#E7E8E9"/>
				<stop  offset="0.1272" style="stop-color:#DBDBDB"/>
				<stop  offset="0.4378" style="stop-color:#DBDBDB"/>
				<stop  offset="0.4407" style="stop-color:#A9AAAB"/>
				<stop  offset="0.8367" style="stop-color:#A9AAAB"/>
				<stop  offset="0.8387" style="stop-color:#7E7F80"/>
			</linearGradient>
			<path fill="url(#SVGID_8_)" d="M57.765,37.251l-0.539-0.931l20.53-11.834c0.171-0.099,0.389-0.039,0.488,0.131l0.047,0.083
				c0.173,0.299,0.07,0.679-0.228,0.852L57.765,37.251z"/>
		</g>
		<polygon fill="#E0E0E0" points="71.545,19.134 72.588,18.402 79.347,24.192 78.59,24.643 		"/>
		<path fill="#B8B8B8" d="M81.045,30.143l-2.45-5.503l0.757-0.452l2.657,5.425C82.009,29.613,82.088,30.292,81.045,30.143z"/>
		<path fill="#828282" d="M60.856,40.519c0,0,0,0.011,0,0.029c0,0.127-0.04,0.621-0.739,0.541c-0.059-0.01-0.118-0.01-0.167,0.01
			c-0.562,0.078-0.522,0.984-0.522,0.984l-2.244-4.586l-5.866-2.894l-0.385-3.496l7.541,4.845l0.255,0.226l0.088,0.168
			L60.856,40.519z"/>
		<polygon fill="#E0E0E0" points="50.932,31.12 51.976,30.389 58.734,36.18 57.977,36.631 		"/>
		<path fill="#B8B8B8" d="M60.856,40.548c0,0.127-0.04,0.621-0.739,0.541c-0.059-0.01-0.118-0.01-0.167,0.01l-1.978-4.439
			l0.756-0.451L60.856,40.548z"/>
	</g>
</g>
</svg>
