<?xml version="1.0" encoding="utf-8"?>
<!-- Generator: Adobe Illustrator 16.0.0, SVG Export Plug-In . SVG Version: 6.00 Build 0)  -->
<!DOCTYPE svg PUBLIC "-//W3C//DTD SVG 1.1//EN" "http://www.w3.org/Graphics/SVG/1.1/DTD/svg11.dtd">
<svg version="1.1" xmlns="http://www.w3.org/2000/svg" xmlns:xlink="http://www.w3.org/1999/xlink" x="0px" y="0px"
	 width="169.66px" height="166.258px" viewBox="0 0 169.66 166.258" enable-background="new 0 0 169.66 166.258"
	 xml:space="preserve">
<g id="Layer_2">
</g>
<g id="Layer_1">
	<defs>
		<filter id="Adobe_OpacityMaskFilter" filterUnits="userSpaceOnUse" x="17.734" y="61.358" width="133.067" height="78.902">
			<feFlood  style="flood-color:white;flood-opacity:1" result="back"/>
			<feBlend  in="SourceGraphic" in2="back" mode="normal"/>
		</filter>
	</defs>
	<mask maskUnits="userSpaceOnUse" x="17.734" y="61.358" width="133.067" height="78.902" id="SVGID_1_">
		<g filter="url(#Adobe_OpacityMaskFilter)">
			<defs>
				<filter id="Adobe_OpacityMaskFilter_1_" filterUnits="userSpaceOnUse" x="17.734" y="61.358" width="133.067" height="78.902">
					<feFlood  style="flood-color:white;flood-opacity:1" result="back"/>
					<feBlend  in="SourceGraphic" in2="back" mode="normal"/>
				</filter>
			</defs>
			<mask maskUnits="userSpaceOnUse" x="17.734" y="61.358" width="133.067" height="78.902" id="SVGID_1_">
			</mask>
			<linearGradient id="SVGID_2_" gradientUnits="userSpaceOnUse" x1="84.2681" y1="140.2607" x2="84.2681" y2="61.3579">
				<stop  offset="0" style="stop-color:#FFFFFF"/>
				<stop  offset="0.016" style="stop-color:#F3F3F3"/>
				<stop  offset="0.0908" style="stop-color:#C1C1C1"/>
				<stop  offset="0.1709" style="stop-color:#939393"/>
				<stop  offset="0.2546" style="stop-color:#6B6B6B"/>
				<stop  offset="0.3429" style="stop-color:#4A4A4A"/>
				<stop  offset="0.437" style="stop-color:#2F2F2F"/>
				<stop  offset="0.539" style="stop-color:#1A1A1A"/>
				<stop  offset="0.6529" style="stop-color:#0B0B0B"/>
				<stop  offset="0.7881" style="stop-color:#030303"/>
				<stop  offset="1" style="stop-color:#000000"/>
			</linearGradient>
			<path mask="url(#SVGID_1_)" fill="url(#SVGID_2_)" d="M22.158,109.06l48.118,27.736c8.014,4.619,17.887,4.619,25.9,0
				l50.202-28.938c5.897-3.4,5.897-11.898,0-15.298L98.26,64.823c-8.014-4.619-17.887-4.619-25.901,0L22.158,93.762
				C16.26,97.161,16.26,105.661,22.158,109.06z"/>
		</g>
	</mask>
	<linearGradient id="SVGID_3_" gradientUnits="userSpaceOnUse" x1="84.2681" y1="140.2607" x2="84.2681" y2="61.3579">
		<stop  offset="0" style="stop-color:#000000;stop-opacity:0.3"/>
		<stop  offset="1" style="stop-color:#000000;stop-opacity:0.2"/>
	</linearGradient>
	<path opacity="0.6" fill="url(#SVGID_3_)" d="M22.158,109.06l48.118,27.736c8.014,4.619,17.887,4.619,25.9,0l50.202-28.938
		c5.897-3.4,5.897-11.898,0-15.298L98.26,64.823c-8.014-4.619-17.887-4.619-25.901,0L22.158,93.762
		C16.26,97.161,16.26,105.661,22.158,109.06z"/>
	<g>
		<linearGradient id="SVGID_4_" gradientUnits="userSpaceOnUse" x1="-0.6523" y1="95.1328" x2="174.2747" y2="95.1328">
			<stop  offset="0" style="stop-color:#DEE8FF"/>
			<stop  offset="1" style="stop-color:#788ACB"/>
		</linearGradient>
		<path fill="url(#SVGID_4_)" d="M93.796,119.427l55.151-31.791c2.043-1.177,3.063-3.236,3.063-5.296V68.439L84.83,107.164v14.663
			C87.926,121.827,91.022,121.027,93.796,119.427z"/>
		<linearGradient id="SVGID_5_" gradientUnits="userSpaceOnUse" x1="-0.6519" y1="95.1328" x2="174.2739" y2="95.1328">
			<stop  offset="0" style="stop-color:#DEE8FF"/>
			<stop  offset="1" style="stop-color:#788ACB"/>
		</linearGradient>
		<path fill="url(#SVGID_5_)" d="M20.712,87.636l55.152,31.791c2.773,1.6,5.87,2.399,8.966,2.399v-14.663l-67.18-38.725V82.34
			C17.649,84.4,18.67,86.459,20.712,87.636z"/>
	</g>
	<linearGradient id="SVGID_6_" gradientUnits="userSpaceOnUse" x1="17.6494" y1="68.4395" x2="152.0098" y2="68.4395">
		<stop  offset="6.300000e-007" style="stop-color:#FFFFFF"/>
		<stop  offset="1" style="stop-color:#E1E6F0"/>
	</linearGradient>
	<path fill="url(#SVGID_6_)" d="M20.712,73.734l55.152,31.792c5.547,3.198,12.385,3.198,17.933,0l55.151-31.792
		c4.083-2.354,4.083-8.238,0-10.592l-55.151-31.79c-5.548-3.197-12.385-3.197-17.933,0l-55.152,31.79
		C16.629,65.496,16.629,71.38,20.712,73.734z"/>
	<g>
		<polygon fill="#FFFFFF" points="54.212,76.805 58.902,79.588 58.837,81.806 54.212,79.065 		"/>
		<path fill="#FFC571" d="M52.149,74.019v3.536c0,0-1.24-0.702-1.711-1.237c-0.343-0.388-0.472-0.525-0.472-0.525l0.272-3.157
			c0,0,0.412,0.465,0.925,0.857C51.479,73.739,51.834,73.956,52.149,74.019z"/>
		<path fill="#9B9B9B" d="M56.849,75.987c0,0.331,0.195,0.601,0.416,0.601c0.24,0,0.425-0.27,0.425-0.601
			c0-0.321-0.185-0.6-0.425-0.6C57.044,75.387,56.849,75.666,56.849,75.987z"/>
		<path fill="#EA4A66" d="M64.795,59.169c0,0,0.223-0.573-1.019-1.395c-1.22-0.826-1.517-0.254-1.868,0.405
			c-0.352,0.668-0.463,0.858,0.128,1.382c0.583,0.525,1.739,1.155,1.739,1.155l0.639,0.761c0,0,0.435-0.159,0.398-0.607
			c-0.037-0.434-0.472-0.653-0.472-0.653L64.795,59.169z"/>
		<path fill="#BA2747" d="M49.735,70.238c0.605-1.742,0.43-1.597,5.014-5.02c3.35-2.49,8.75-5.092,8.75-5.092
			s7.29-9.724,7.863-10.292c0.556-0.561,7.475-3.92,10.102-5.22c1.814-0.888,3.737,0.841,3.737,0.841s15.025-7.915,15.285-7.732
			c0.796,0.605,18.333,9.349,18.481,10.037c0.332,1.521-0.01,2.781-0.01,2.781s0.807,1.859,0.323,3.229
			c-0.48,1.364-0.267,3.442-0.665,3.828c-1.758,1.651-47.956,28.12-47.956,28.12s-3.294,1.13-7.078,0
			c-3.782-1.123-13.366-7.883-13.366-7.883L49.735,70.238z"/>
		<g>
			<path fill="#6FCEC3" d="M70.826,52.07c0,0,2.942,2.293,6.235,3.875c2.35,1.138,6.217,2.852,6.217,2.852l-4.783,10.195
				c0,0-5.282-1.079-9.297-4.023c-4.033-2.94-4.978-4.374-4.978-4.374L70.826,52.07z"/>
			<path fill="#98EAE4" d="M78.375,56.575l-13.304,4.959c0,0,3.933,3.496,5.514,4.358c1.582,0.855,3.552,1.725,3.552,1.725
				l7.596-5.522l1.544-3.298L78.375,56.575z"/>
			<path fill="#11161E" d="M78.468,69.165c-0.066-0.004-5.376-1.117-9.38-4.053c-4.006-2.931-4.977-4.355-5.014-4.418l-0.065-0.106
				l6.78-8.758l0.139,0.106c0.026,0.02,2.978,2.298,6.208,3.852c2.322,1.121,6.179,2.832,6.216,2.848l0.167,0.073l-4.867,10.356
				l-0.056,0.128L78.468,69.165z M76.978,56.107c-2.859-1.382-5.504-3.313-6.123-3.783l-6.413,8.279
				c0.297,0.37,1.499,1.768,4.848,4.22c3.589,2.628,8.252,3.777,9.104,3.965l4.643-9.898C82.269,58.546,79.022,57.094,76.978,56.107
				z"/>
		</g>
		<path fill="#98EAE4" stroke="#11161E" stroke-width="0.6337" d="M92.76,54.945l-0.045,6.619l-10.658,6.617
			c0,0,3.384-8.518,4.18-9.326C87.051,58.042,92.76,54.945,92.76,54.945z"/>
		<path fill="#1C1C1C" d="M90.752,64.873l2.498-1.271c0,0,0.573,0.261,0,0.921l-2.498,1.114
			C90.752,65.636,90.049,65.226,90.752,64.873z"/>
		<path fill="#7E8287" d="M117.913,47.639L95.571,58.87c0,0,0-7.31-0.674-7.771c-1.221-0.834-8.66-5.073-8.66-5.073l14.249-7.57
			L117.913,47.639z"/>
		<g>
			<path fill="#FFB236" d="M69.753,79.862l-0.037,3.512c0,0,0.352,1.05-3.524,1.222c-3.322,0.139-5.792-1.382-5.792-1.382v-4.198
				c0,0,2.487,1.384,4.421,1.554C66.755,80.737,69.753,79.862,69.753,79.862z"/>
			<path fill="#FFB236" d="M49.735,70.238c0,0-0.166,0.98,1.938,2.585c0.569,0.427,1.069,0.763,1.069,0.763l0.018,4.826
				c0,0-1.947-1.145-2.493-1.99c-0.54-0.851-0.91-1.913-0.91-1.913L49.735,70.238z"/>
		</g>
		<path fill="#EA4A66" d="M82.057,68.181c0,0,0.167-0.638,2.071-0.645c1.896-0.013,1.813,0.669,1.722,1.464
			c-0.084,0.791-0.11,1.037-1.11,1.157c-1,0.114-2.683,0-2.683,0s-0.944,0.387-1.24,0.296c-0.175-0.055-0.352-0.398,0-0.764
			c0.352-0.375,0.972-0.313,0.972-0.313L82.057,68.181z"/>
		<path fill="#1C1C1C" d="M72.417,66.91c0,0,1.666,0.184,3.015,0.504c1.35,0.321,2.128,1.221,2.128,1.221v0.183
			C77.561,68.817,72.768,67.283,72.417,66.91z"/>
		<path fill="#1C1C1C" d="M65.072,61.534c0,0,2.461,0.897,2.756,1.251c0.297,0.355,1.13,2.004,1.13,2.004
			S65.202,61.901,65.072,61.534z"/>
		<path fill="#FFC571" d="M65.35,81.283v2.778c0,0-2.054-0.188-3.126-0.598c-1.054-0.422-1.054-0.422-1.054-0.422v-2.823
			c0,0,0.628,0.351,1.461,0.627C63.48,81.125,64.536,81.574,65.35,81.283z"/>
		<path fill="#EA4A66" d="M78.125,70.206c0,0-4.92,2.907-8.677,5.539c-2.229,1.553-4.098,3.271-4.098,3.271
			c-3.514,0.15-7.909-2.865-9.38-3.869c-1.472-1.009-4.893-3.468-4.421-4.79c0.842-2.349,11.406-9.072,11.406-9.072
			s0.916,1.958,5.097,4.906C72.233,69.13,78.125,70.206,78.125,70.206z"/>
		<g>
			<g>
				<path fill="#890E2E" d="M49.532,72.475l-0.12,1.325c0,0-0.76,1.606,5.596,5.484c6.364,3.889,8.502,4.748,10.804,4.83
					c2.313,0.077,5.55-0.987,5.55-0.987l-0.111,2.395c0,0-2.774,2.014-7.605,0.723c-4.827-1.293-12.478-6.358-13.931-8.049
					C47.052,75.103,49.532,72.475,49.532,72.475z"/>
			</g>
		</g>
		<polygon fill="#656565" points="100.486,38.456 100.486,46.309 110.419,51.513 117.913,47.639 		"/>
		<polygon fill="#939699" points="100.486,46.309 93.371,50.065 86.237,46.026 100.486,38.456 		"/>
		<path fill="#EA4A66" d="M116.951,58.723c0,0-1.167-6.313-6.817-3.912c-5.893,2.505-4.579,10.73-4.579,10.73L116.951,58.723z"/>
		<g>
			<path d="M106.883,63.254c0,1.727,0.57,3.125,1.488,3.925c0.731,0.634,2.285,1.205,3.031,0.987c2.309-0.653,4.6-3.574,4.6-6.688
				c0-1.752-0.841-3.596-1.777-4.393c-0.713-0.614-2.141-0.828-3.154-0.563C108.762,57.125,106.883,60.133,106.883,63.254z"/>
			<path fill="#272727" d="M107.795,63.524c0,3.116,1.87,5.153,4.188,4.55c2.307-0.604,4.193-3.615,4.193-6.733
				c0-3.117-1.887-5.149-4.193-4.546C109.666,57.4,107.795,60.414,107.795,63.524z"/>
			<path fill="#B7B7B7" d="M109.366,63.117c0,1.933,1.166,3.196,2.617,2.819c1.441-0.373,2.607-2.247,2.607-4.182
				c0-1.94-1.166-3.199-2.607-2.822C110.532,59.303,109.366,61.18,109.366,63.117z"/>
			<path fill="#7A7A7A" d="M109.737,63.019c0,1.666,1,2.751,2.246,2.43c1.244-0.319,2.242-1.934,2.242-3.601
				c0-1.665-0.998-2.757-2.242-2.429C110.737,59.747,109.737,61.351,109.737,63.019z"/>
			<path fill="#B7B7B7" d="M109.58,63.524l-0.017-0.729l1.196-0.321c0.04-0.216,0.12-0.427,0.216-0.604l-0.913-1.022l0.39-0.611
				l0.951,1.063c0.095-0.086,0.198-0.155,0.309-0.209v-1.83l0.549-0.145v1.879c0.094,0.016,0.181,0.059,0.268,0.108l0.984-1.554
				l0.38,0.42l-0.984,1.557c0.065,0.103,0.105,0.211,0.128,0.333l1.357-0.357l0.007,0.729l-1.331,0.36
				c-0.016,0.155-0.056,0.306-0.111,0.448l0.856,0.964l-0.39,0.609l-0.815-0.916c-0.104,0.136-0.224,0.25-0.349,0.339v1.558
				l-0.549,0.137v-1.503c-0.166,0-0.309-0.032-0.436-0.102l-0.816,1.281l-0.382-0.425l0.817-1.285
				c-0.079-0.138-0.126-0.302-0.158-0.484L109.58,63.524z"/>
			<path fill="#D8D8D8" d="M111.071,62.825c0,0.61,0.379,1.014,0.824,0.895c0.468-0.118,0.832-0.711,0.832-1.327
				c0-0.608-0.364-1.018-0.832-0.891C111.45,61.618,111.071,62.213,111.071,62.825z"/>
		</g>
		<path fill="#EA4A66" d="M79.077,72.833c5.663-2.402,7.16,3.928,7.16,3.928L74.49,83.558C74.49,83.558,73.194,75.337,79.077,72.833
			z"/>
		<g>
			<path d="M75.349,81.371c0,1.91,0.639,3.44,1.644,4.324c0.806,0.713,2.52,1.334,3.35,1.098c2.536-0.725,5.056-3.938,5.056-7.381
				c0-1.934-0.911-3.966-1.941-4.842c-0.806-0.681-2.362-0.92-3.481-0.627C77.422,74.611,75.349,77.931,75.349,81.371z"/>
			<path fill="#272727" d="M76.355,81.672c0,3.434,2.063,5.674,4.619,5.014c2.553-0.668,4.618-3.992,4.618-7.425
				c0-3.437-2.065-5.68-4.618-5.015C78.418,74.911,76.355,78.235,76.355,81.672z"/>
			<path fill="#B7B7B7" d="M78.097,81.213c0,2.141,1.285,3.528,2.876,3.117c1.592-0.416,2.886-2.479,2.886-4.619
				c0-2.134-1.294-3.524-2.886-3.11C79.382,77.012,78.097,79.085,78.097,81.213z"/>
			<path fill="#7A7A7A" d="M78.49,81.113c0,1.831,1.12,3.034,2.484,2.679c1.373-0.352,2.484-2.136,2.484-3.973
				c0-1.841-1.111-3.035-2.484-2.68C79.609,77.498,78.49,79.272,78.49,81.113z"/>
			<path fill="#B7B7B7" d="M78.314,81.675v-0.813l1.312-0.349c0.053-0.241,0.123-0.468,0.236-0.675l-1.005-1.119l0.437-0.675
				l1.049,1.167c0.106-0.093,0.212-0.169,0.334-0.223v-2.025l0.594-0.158v2.083c0.122,0.011,0.218,0.051,0.314,0.107l1.075-1.714
				l0.429,0.466l-1.084,1.714c0.06,0.111,0.104,0.237,0.138,0.373l1.487-0.399l0.01,0.807l-1.469,0.393
				c-0.027,0.176-0.061,0.342-0.114,0.504l0.944,1.052l-0.436,0.681l-0.893-1.008c-0.124,0.142-0.263,0.273-0.402,0.368v1.716
				l-0.594,0.157v-1.657c-0.176,0.006-0.334-0.037-0.482-0.117l-0.893,1.417l-0.426-0.466l0.891-1.418
				c-0.07-0.156-0.141-0.337-0.157-0.537L78.314,81.675z"/>
			<path fill="#D8D8D8" d="M79.976,80.899c0,0.672,0.402,1.114,0.91,0.984c0.507-0.136,0.918-0.784,0.918-1.461
				s-0.411-1.121-0.918-0.987C80.378,79.565,79.976,80.222,79.976,80.899z"/>
		</g>
		<path fill="#EA4A66" d="M95.543,59.396l23.424-11.636c0,0,0.185-0.256-1.055-1.072c-1.25-0.825-17.446-9.269-17.446-9.269
			l-15.265,8.036l1.036,0.57c0,0,13.674-7.529,14.249-7.57c0.571-0.04,17.001,9.114,17.001,9.114L95.571,58.204L95.543,59.396z"/>
		<g>
			<g>
				<path fill="#6C8902" d="M101.594,50.683c-0.02-0.153-0.027-0.304-0.027-0.463C101.641,50.36,101.631,50.569,101.594,50.683z"/>
				<g>
					<path fill="#607700" d="M91.66,47.863c0.11-0.05,0.212-0.108,0.315-0.166C91.853,47.7,91.733,47.79,91.66,47.863z"/>
				</g>
			</g>
		</g>
		<g>
			<g>
				<g>
					<polygon fill="#C6AE97" points="98.086,55.292 106.935,50.899 106.935,40.522 98.086,45.026 					"/>
				</g>
				<g>
					<polygon fill="#B79E8A" points="98.086,45.475 106.935,40.957 106.935,40.522 98.086,45.026 					"/>
				</g>
				<polygon fill="#E5CEB1" points="106.935,40.522 99.831,36.878 90.981,41.41 98.086,45.026 106.935,40.522 				"/>
				<polygon fill="#C6AE97" points="98.086,55.292 90.981,51.672 90.981,41.41 98.086,45.026 				"/>
				<polygon fill="#DBC2A1" points="98.086,55.031 90.981,51.392 90.981,41.91 98.086,45.475 				"/>
			</g>
			<polygon fill="#CCAB7F" points="95.091,39.303 101.844,43.114 103.217,42.412 96.42,38.626 			"/>
			<polygon fill="#CCAB7F" points="101.844,43.114 101.844,48.35 103.217,47.74 103.217,42.412 			"/>
			<polygon fill="#EAE4DC" points="94.167,47.74 91.612,46.432 91.612,43.024 94.167,44.304 			"/>
			<g>
				<polygon fill="#B5ABA0" points="93.896,44.915 92.024,44 92.026,43.813 93.896,44.729 				"/>
			</g>
			<g>
				<polygon fill="#B5ABA0" points="93.896,45.422 92.024,44.504 92.026,44.315 93.896,45.235 				"/>
			</g>
			<g>
				<polygon fill="#B5ABA0" points="93.896,47.156 92.024,46.233 92.026,46.049 93.896,46.968 				"/>
			</g>
		</g>
		<path fill="#890E2E" d="M95.543,59.396c0,0,0.229-8.62-1.01-8.531l-7.637-4.462v0.753l-1.305,2.909l6.02,3.866l2.555-0.304
			l0.367,5.796L95.543,59.396z"/>
		<path fill="#EA4A66" d="M92.918,52.35l-7.466,4.032c0,0-1.546,0.673-2.285,0.436c-0.759-0.235-3.702-1.507-6.329-3.199
			c-2.821-1.809-5.199-2.89-4.486-3.48c0.712-0.593,8.445-4.417,9.149-4.593c0.702-0.174,1.526-0.469,2.691,0.293
			c1.154,0.768,7.576,4.427,7.576,4.427S94.396,51.479,92.918,52.35z"/>
	</g>
</g>
</svg>
