<?xml version="1.0" encoding="utf-8"?>
<!-- Generator: Adobe Illustrator 16.0.0, SVG Export Plug-In . SVG Version: 6.00 Build 0)  -->
<!DOCTYPE svg PUBLIC "-//W3C//DTD SVG 1.1//EN" "http://www.w3.org/Graphics/SVG/1.1/DTD/svg11.dtd">
<svg version="1.1" xmlns="http://www.w3.org/2000/svg" xmlns:xlink="http://www.w3.org/1999/xlink" x="0px" y="0px"
	 width="204.13px" height="164.992px" viewBox="0 0 204.13 164.992" enable-background="new 0 0 204.13 164.992"
	 xml:space="preserve">
<g id="Layer_2">
</g>
<g id="Layer_1">
	<defs>
		<filter id="Adobe_OpacityMaskFilter" filterUnits="userSpaceOnUse" x="40.083" y="90.772" width="111.099" height="67.45">
			<feFlood  style="flood-color:white;flood-opacity:1" result="back"/>
			<feBlend  in="SourceGraphic" in2="back" mode="normal"/>
		</filter>
	</defs>
	<mask maskUnits="userSpaceOnUse" x="40.083" y="90.772" width="111.099" height="67.45" id="SVGID_1_">
		<g filter="url(#Adobe_OpacityMaskFilter)">
			<defs>
				<filter id="Adobe_OpacityMaskFilter_1_" filterUnits="userSpaceOnUse" x="4.325" y="71.016" width="144.363" height="85.599">
					<feFlood  style="flood-color:white;flood-opacity:1" result="back"/>
					<feBlend  in="SourceGraphic" in2="back" mode="normal"/>
				</filter>
			</defs>
			<mask maskUnits="userSpaceOnUse" x="4.325" y="71.016" width="144.363" height="85.599" id="SVGID_1_">
			</mask>
			<linearGradient id="SVGID_2_" gradientUnits="userSpaceOnUse" x1="76.5068" y1="156.6147" x2="76.5068" y2="71.0166">
				<stop  offset="0" style="stop-color:#FFFFFF"/>
				<stop  offset="0.016" style="stop-color:#F3F3F3"/>
				<stop  offset="0.0908" style="stop-color:#C1C1C1"/>
				<stop  offset="0.1709" style="stop-color:#939393"/>
				<stop  offset="0.2546" style="stop-color:#6B6B6B"/>
				<stop  offset="0.3429" style="stop-color:#4A4A4A"/>
				<stop  offset="0.437" style="stop-color:#2F2F2F"/>
				<stop  offset="0.539" style="stop-color:#1A1A1A"/>
				<stop  offset="0.6529" style="stop-color:#0B0B0B"/>
				<stop  offset="0.7881" style="stop-color:#030303"/>
				<stop  offset="1" style="stop-color:#000000"/>
			</linearGradient>
			<path mask="url(#SVGID_1_)" fill="url(#SVGID_2_)" d="M9.124,122.765l52.203,30.094c8.694,5.008,19.405,5.008,28.101,0
				l54.46-31.396c6.4-3.69,6.4-12.911,0-16.598l-52.2-30.091c-8.694-5.01-19.405-5.01-28.103,0L9.124,106.169
				C2.726,109.857,2.726,119.076,9.124,122.765z"/>
		</g>
	</mask>
	<linearGradient id="SVGID_3_" gradientUnits="userSpaceOnUse" x1="40.083" y1="124.4966" x2="151.1816" y2="124.4966">
		<stop  offset="0" style="stop-color:#000000;stop-opacity:0.3"/>
		<stop  offset="1" style="stop-color:#000000;stop-opacity:0.2"/>
	</linearGradient>
	<path opacity="0.5" fill="url(#SVGID_3_)" d="M43.407,140.381l21.31,14.138c8.695,5.01,13.141,4.899,21.836-0.11l59.402-34.535
		c6.399-3.688,7.215-9.395,0.814-13.083l-23.354-13.335c-8.693-5.01-13.133-2.359-21.827,2.652l-54.462,31.396
		C40.729,131.189,37.009,136.691,43.407,140.381z"/>
	<polygon fill="#FFFFFF" points="127.154,95.034 127.154,22.93 59.882,67.574 59.882,138.128 	"/>
	<linearGradient id="SVGID_4_" gradientUnits="userSpaceOnUse" x1="35.8213" y1="95.6685" x2="60.8066" y2="95.6685">
		<stop  offset="0" style="stop-color:#DEE8FF"/>
		<stop  offset="1" style="stop-color:#788ACB"/>
	</linearGradient>
	<polygon fill="url(#SVGID_4_)" points="60.807,139.908 35.821,124.167 35.821,51.429 60.807,66.977 	"/>
	<linearGradient id="SVGID_5_" gradientUnits="userSpaceOnUse" x1="35.8213" y1="37.1792" x2="127.3008" y2="37.1792">
		<stop  offset="0" style="stop-color:#DEE8FF"/>
		<stop  offset="1" style="stop-color:#788ACB"/>
	</linearGradient>
	<polygon fill="url(#SVGID_5_)" points="35.821,51.429 102.348,7.395 127.301,22.93 60.771,66.963 	"/>
	<g>
		<polygon fill="#3D3A39" points="82.064,126.945 82.064,80.828 69.394,89.789 69.394,133.474 		"/>
		<path fill="#F2E0D4" d="M81.265,82.371v44.084l-11.074,5.707V90.204L81.265,82.371L81.265,82.371z M82.862,79.283l-2.521,1.783
			l-11.075,7.833l-0.673,0.479v0.827v41.958v2.623l2.331-1.201l11.072-5.705l0.866-0.446v-0.978V82.371V79.283L82.862,79.283z"/>
	</g>
	<polygon fill="#DDC8C3" points="70.193,127.309 81.207,120.216 75.238,120.199 70.193,122.804 	"/>
	<g>
		
			<linearGradient id="SVGID_6_" gradientUnits="userSpaceOnUse" x1="-846.1084" y1="103.25" x2="-812.2942" y2="54.6052" gradientTransform="matrix(-1 0 0 1 -730.0293 0)">
			<stop  offset="0.0054" style="stop-color:#70C0FF"/>
			<stop  offset="0.1979" style="stop-color:#538FBE"/>
			<stop  offset="0.4143" style="stop-color:#365D7B"/>
			<stop  offset="0.6108" style="stop-color:#1F3546"/>
			<stop  offset="0.78" style="stop-color:#0E1820"/>
			<stop  offset="0.9154" style="stop-color:#040609"/>
			<stop  offset="1" style="stop-color:#000000"/>
		</linearGradient>
		<polygon fill="url(#SVGID_6_)" points="118.133,91.088 118.133,54.708 86.587,76.501 86.587,112.322 		"/>
		<path fill="#FCEFE6" d="M117.332,56.232v34.43l-29.948,20.157V76.921L117.332,56.232L117.332,56.232z M118.932,53.183
			l-2.508,1.733L86.477,75.604l-0.691,0.479v0.838v33.897v3.004l2.491-1.676l29.949-20.159l0.706-0.476v-0.851v-34.43V53.183
			L118.932,53.183z"/>
	</g>
	<g>
		<polygon fill="#AF9AA1" points="82.395,121.982 77.217,139.715 68.164,134.759 68.058,131.724 		"/>
		<polygon opacity="0.3" fill="#7466A4" points="66.251,132.704 67.941,128.857 69.8,127.362 82.373,122.566 77.217,139.715 
			63.314,138.387 		"/>
		<polygon fill="#EADBD6" points="91.449,126.938 91.449,129.973 77.222,139.638 77.222,136.605 		"/>
		<polygon fill="#DDC8C3" points="82.395,121.982 91.449,126.938 77.178,136.626 68.122,131.671 		"/>
		<g>
			<polygon fill="#AF9AA1" points="81.207,120.216 75.655,133.755 69.813,130.543 69.8,127.362 			"/>
			<polygon fill="#EADBD6" points="87.062,123.572 87.062,126.609 75.655,133.755 75.655,130.72 			"/>
			<polygon fill="#DDC8C3" points="81.207,120.216 87.062,123.572 75.655,130.72 69.8,127.362 			"/>
		</g>
	</g>
	<polygon fill="#DDC8C3" points="87.384,110.819 117.332,90.662 114.584,89.44 87.384,107.46 	"/>
	<polygon fill="#AF9AA1" points="100.827,87.833 102.987,88.828 102.987,60.797 100.827,62.696 	"/>
	<g>
		<g>
			<g opacity="0.5">
				<polygon fill="#BDCAD3" points="91.592,104.549 99.271,99.533 96.6,83.294 94.45,84.74 88.775,88.034 				"/>
			</g>
		</g>
	</g>
	<g>
		<path fill="#E3D1C5" d="M135.942,58.445c-0.012,0.898,0.558,3.766,2.533,2.979c2.188-0.876,2.856-3.022,2.887-5.998
			c0.03-2.974-13.821-7.971-15.945-7.994C123.293,47.41,135.974,55.472,135.942,58.445z"/>
		<path fill="#D34620" d="M130.398,61.61c-0.01,0.898,0.684,3.747,2.658,2.96c2.187-0.873,2.854-3.022,2.886-5.997
			c0.03-2.974-13.821-7.97-15.944-7.994C117.872,50.556,130.431,58.637,130.398,61.61z"/>
		<path fill="#E3D1C5" d="M125.096,65.507c-0.011,0.898,0.559,3.768,2.53,2.979c2.19-0.874,2.856-3.022,2.889-5.996
			c0.03-2.975-13.821-7.972-15.947-7.994C112.444,54.472,125.127,62.534,125.096,65.507z"/>
		<path fill="#D34620" d="M119.655,69.14c-0.011,0.897,0.623,3.692,2.598,2.907c2.188-0.875,2.854-3.022,2.885-5.998
			c0.031-2.974-13.818-7.971-15.944-7.994C107.068,58.033,119.687,66.167,119.655,69.14z"/>
		<path fill="#E3D1C5" d="M114.347,72.897c-0.011,0.896,0.563,3.764,2.533,2.977c2.19-0.873,2.854-3.021,2.886-5.997
			c0.034-2.974-13.82-7.969-15.945-7.993C101.696,61.86,114.38,69.923,114.347,72.897z"/>
		<path fill="#D34620" d="M108.769,76.236c-0.009,0.896,0.722,3.708,2.694,2.922c2.19-0.875,2.853-3.022,2.889-5.996
			c0.03-2.977-13.823-7.973-15.949-7.994C96.282,65.143,108.799,73.262,108.769,76.236z"/>
		<path fill="#E3D1C5" d="M103.397,79.762c-0.009,0.898,0.561,3.765,2.534,2.978c2.19-0.874,2.854-3.021,2.885-5.996
			c0.033-2.974-13.819-7.972-15.943-7.995C90.748,68.727,103.43,76.788,103.397,79.762z"/>
		<path fill="#D34620" d="M98.104,83.294c-0.013,0.897,0.558,3.766,2.529,2.979c2.19-0.875,2.854-3.022,2.889-5.996
			c0.031-2.976-13.823-7.973-15.946-7.997C85.454,72.259,98.137,80.322,98.104,83.294z"/>
		<path fill="#E3D1C5" d="M92.726,87.021c-0.01,0.896,0.558,3.765,2.533,2.976c2.188-0.875,2.854-3.021,2.885-5.996
			c0.032-2.973-13.823-7.972-15.943-7.995C80.073,75.984,92.757,84.046,92.726,87.021z"/>
		<path fill="#D34620" d="M87.362,90.794c-0.011,0.896,0.56,3.762,2.533,2.976c2.189-0.875,2.854-3.022,2.887-5.998
			c0.031-2.972-13.821-7.97-15.946-7.992C74.711,79.757,87.394,87.816,87.362,90.794z"/>
		<path fill="#E3D1C5" d="M82.017,94.468c-0.01,0.896,0.559,3.766,2.533,2.977c2.188-0.872,2.854-3.021,2.885-5.998
			c0.032-2.971-13.819-7.968-15.944-7.993C69.365,83.432,82.048,91.494,82.017,94.468z"/>
		<g>
			<polygon fill="#D34620" points="65.074,84.958 82.088,94.663 121.703,30.548 65.074,68.627 			"/>
			<polygon fill="#F74A37" points="82.023,94.71 138.621,56.601 121.623,30.594 65.043,68.674 			"/>
			<g>
				<g>
					<polygon fill="#FFF5EE" points="135.964,58.39 141.264,54.917 124.248,28.88 119.088,32.234 					"/>
				</g>
				<g>
					<polygon fill="#FFF5EE" points="125.138,65.726 130.452,62.13 113.416,36.068 108.324,39.479 					"/>
				</g>
				<g>
					<polygon fill="#FFF5EE" points="114.358,72.953 119.663,69.406 102.654,43.266 97.557,46.736 					"/>
				</g>
				<g>
					<polygon fill="#FFF5EE" points="103.52,80.242 108.799,76.692 91.896,50.546 86.782,53.993 					"/>
				</g>
				<g>
					<polygon fill="#FFF5EE" points="92.753,87.506 98.137,83.905 81.145,57.791 76.027,61.237 					"/>
				</g>
				<g>
					<polygon fill="#FFF5EE" points="82.023,94.71 87.388,91.124 70.381,65.048 65.043,68.674 					"/>
				</g>
			</g>
		</g>
	</g>
	<g>
		<path fill="#AF9AA1" d="M81.742,95.271c0.193,0,0.381-0.096,0.484-0.275c0.159-0.267,0.071-0.611-0.197-0.77l-16.676-9.868V70.014
			c0-0.311-0.251-0.563-0.561-0.563c-0.313,0-0.563,0.252-0.563,0.563V85l17.226,10.195C81.545,95.248,81.645,95.271,81.742,95.271z
			"/>
	</g>
	<g>
		<path fill="#3809A3" d="M143.979,72.981l-31.591,18.238c-0.748,0.432-1.208,1.23-1.208,2.096v22.134
			c0,0.38,0.195,0.689,0.474,0.866c0.303,0.19,1.4,0.969,1.752,0.766l30.896-18.986c0.744-0.43,1.205-1.229,1.205-2.092
			l1.016-21.871c0-0.457-1.301-1.08-1.673-1.223C144.579,72.807,144.264,72.815,143.979,72.981z"/>
		<path fill="#788ACB" d="M145.135,73.649l-31.591,18.239c-0.748,0.432-1.208,1.231-1.208,2.095l0.001,22.135
			c-0.004,0.79,0.849,1.279,1.526,0.887l31.595-18.24c0.744-0.43,1.204-1.229,1.204-2.094l0.005-22.137
			C146.664,73.747,145.813,73.256,145.135,73.649z"/>
		<path fill="#5E64A6" d="M131.619,106.752l-17.758,10.252c-0.678,0.39-1.524-0.094-1.524-0.885V93.983
			c0-0.866,0.458-1.663,1.205-2.096l11.59-6.689l2.88,9.563l0.219,0.729l2.064,6.852l0.169,0.571L131.619,106.752z"/>
		<g>
			<path fill="#F8D868" d="M115.36,106.895c-0.296-0.001-0.536-0.242-0.536-0.537v-1.914c0-0.405,0.219-0.783,0.569-0.984
				l2.88-1.664c0.082-0.047,0.175-0.072,0.268-0.072c0.296,0,0.536,0.24,0.536,0.535v1.915c0,0.405-0.218,0.782-0.568,0.984
				l-2.882,1.663C115.545,106.869,115.452,106.895,115.36,106.895L115.36,106.895z"/>
			<path fill="#D4A43F" d="M115.566,106.717l2.882-1.664c0.314-0.182,0.508-0.517,0.508-0.88v-1.915
				c0-0.318-0.346-0.518-0.622-0.358l-2.882,1.664c-0.314,0.181-0.507,0.517-0.507,0.88v1.914
				C114.945,106.677,115.29,106.876,115.566,106.717z"/>
			<path fill="#F8D868" d="M118.956,103.205v-0.123l-1.164,0.679c-0.006-0.273-0.034-0.519-0.083-0.73
				c0.004,0,0.005-0.002,0.008-0.002c-0.003-0.016-0.003-0.032-0.007-0.048c-0.004-0.019-0.011-0.038-0.014-0.058
				c-0.209,0.031-0.445,0.117-0.694,0.25v-0.504l-0.104,0.061v0.504c-0.201,0.119-0.388,0.266-0.563,0.422
				c0.003-0.007,0.004-0.015,0.005-0.021c-0.038,0.051-0.083,0.096-0.138,0.131c-0.001,0.004-0.001,0.007-0.001,0.01
				c-0.007,0.006-0.013,0.011-0.02,0.016c0,0.004-0.001,0.006-0.002,0.008c0,0.014-0.005,0.027-0.007,0.042
				c0,0.04-0.003,0.081-0.01,0.122c0.005-0.005,0.009-0.008,0.012-0.012c-0.04,0.252-0.065,0.516-0.066,0.785l-1.163,0.66v0.123
				l1.163-0.662c0.005,0.273,0.035,0.52,0.083,0.731l-0.001,0.001c0.002,0.008,0.002,0.016,0.005,0.024
				c0.003,0.008,0.005,0.018,0.006,0.024h0.002c0.005,0.019,0.01,0.035,0.013,0.054c0.206-0.034,0.438-0.116,0.682-0.247v0.505
				l0.104-0.062v-0.504c0.261-0.152,0.499-0.342,0.711-0.55c0.001-0.03,0.011-0.058,0.015-0.087c0.001-0.006,0.004-0.012,0.004-0.02
				c0.005-0.025,0.005-0.053,0.015-0.078c-0.008,0.007-0.014,0.014-0.021,0.021c0.04-0.254,0.067-0.518,0.069-0.787L118.956,103.205
				z M116.897,105.324c-0.214,0.12-0.417,0.199-0.604,0.241c-0.049-0.221-0.079-0.48-0.08-0.77l0.684-0.395V105.324z
				 M116.897,104.278l-0.683,0.395c0.006-0.291,0.036-0.579,0.087-0.85c0.179-0.173,0.38-0.331,0.596-0.465V104.278z
				 M117.593,104.802c-0.178,0.17-0.376,0.325-0.591,0.456v-0.919l0.681-0.393C117.677,104.241,117.645,104.53,117.593,104.802z
				 M117.002,104.216v-0.923c0.215-0.121,0.419-0.2,0.604-0.242c0.05,0.221,0.079,0.48,0.081,0.77L117.002,104.216z"/>
		</g>
		<g>
			<polygon fill="#F2EDC9" points="125.437,97.103 120.975,99.679 120.975,98.821 125.437,96.245 			"/>
			<polygon fill="#F2EDC9" points="122.489,108.633 122.489,109.231 114.98,113.565 114.98,112.959 			"/>
			<polygon fill="#E0D99B" points="140.233,88.559 136.731,90.583 136.731,89.723 140.233,87.702 			"/>
			<polygon fill="#E0D99B" points="144.647,79.305 136.358,84.09 136.358,82.059 144.647,77.274 			"/>
			<polygon fill="#E0D99B" points="135.69,91.184 131.792,93.434 131.792,92.576 135.69,90.326 			"/>
		</g>
		<polygon fill="#E0D99B" points="126.479,95.643 126.479,96.501 130.75,94.036 130.75,93.177 		"/>
		<polygon fill="#F2EDC9" points="128.23,95.489 126.48,96.499 126.48,95.645 128.012,94.76 		"/>
	</g>
</g>
</svg>
