<?xml version="1.0" encoding="utf-8"?>
<!-- Generator: Adobe Illustrator 16.0.0, SVG Export Plug-In . SVG Version: 6.00 Build 0)  -->
<!DOCTYPE svg PUBLIC "-//W3C//DTD SVG 1.1//EN" "http://www.w3.org/Graphics/SVG/1.1/DTD/svg11.dtd">
<svg version="1.1" xmlns="http://www.w3.org/2000/svg" xmlns:xlink="http://www.w3.org/1999/xlink" x="0px" y="0px"
	 width="204.13px" height="164.992px" viewBox="0 0 204.13 164.992" enable-background="new 0 0 204.13 164.992"
	 xml:space="preserve">
<g id="Layer_2">
</g>
<g id="Layer_1">
	<g opacity="0.4">
		<linearGradient id="SVGID_1_" gradientUnits="userSpaceOnUse" x1="135.9082" y1="96.7192" x2="47.9082" y2="182.7194">
			<stop  offset="0" style="stop-color:#000000;stop-opacity:0.3"/>
			<stop  offset="1" style="stop-color:#000000;stop-opacity:0.2"/>
		</linearGradient>
		<path opacity="0.7" fill="url(#SVGID_1_)" d="M166.022,92.023l-5.596-3.1c-7.669-4.421-11.586-2.081-19.256,2.339l-33.393,19.25
			c-1.621,0.786-3.362,1.79-5.361,2.941l-48.051,27.701c-5.644,3.251-8.926,8.106-3.281,11.362l3.792,3.809
			c7.671,4.42,11.594,4.322,19.266-0.098l34.468-20.039c1.316-0.54,2.72-1.252,4.284-2.153l52.409-30.47
			C170.949,100.311,171.668,95.276,166.022,92.023z"/>
	</g>
	<g>
		<path fill="#788ACB" d="M50.862,64.361c1.181-2.036,2.885-3.77,4.997-4.986l88.681-51.12c1.556-0.895,3.302-0.783,4.66,0
			l2.732,1.575L54.098,66.226v81.453l-2.732-1.576c-1.359-0.782-2.331-2.237-2.331-4.028v-70.9
			C49.034,68.74,49.687,66.398,50.862,64.361z"/>
		<path fill="#FFFFFF" d="M147.272,9.83L58.59,60.949c-4.221,2.434-6.823,6.932-6.823,11.798v70.899
			c0,3.583,3.885,5.821,6.991,4.031l88.681-51.12c4.223-2.434,6.824-6.931,6.824-11.799v-70.9
			C154.263,10.278,150.379,8.039,147.272,9.83z"/>
		<path fill="#E1E6F0" d="M51.767,77.652l102.496-58.02v-6.221c0,0-0.487-5.541-6.534-3.808L58.59,60.949
			C58.59,60.949,49.898,64.965,51.767,77.652z"/>
	</g>
	<path fill="#788ACB" d="M146.032,75.402c-0.003-1.296-0.792-1.893-1.766-1.331l-22.983,13.248
		c-0.974,0.561-1.764,2.068-1.764,3.365c0,1.296,0.79,1.892,1.764,1.331l22.985-13.249
		C145.243,78.204,146.032,76.699,146.032,75.402z"/>
	<g>
		<path fill="#E1E6F0" d="M113.431,51.416l-10.134,5.84c-1.542,0.889-2.492,2.533-2.492,4.312v6.811c0,1.309,1.42,2.127,2.555,1.473
			l10.133-5.841c1.544-0.889,2.492-2.533,2.492-4.313v-6.81C115.984,51.58,114.566,50.761,113.431,51.416z"/>
		<path fill="#CAD0E6" d="M116.152,66.13c0-0.753-0.465-1.099-1.03-0.773l-13.339,7.692c-0.565,0.326-1.023,1.2-1.023,1.953
			c0,0.751,0.458,1.099,1.023,0.772l13.341-7.691C115.691,67.758,116.152,66.882,116.152,66.13z"/>
		<path fill="#CAD0E6" d="M108.939,75.71c0-0.753-0.461-1.098-1.025-0.772l-5.78,3.332c-0.566,0.326-1.023,1.2-1.023,1.952
			c0.003,0.755,0.46,1.101,1.023,0.774l5.78-3.333C108.484,77.336,108.939,76.462,108.939,75.71z"/>
		<path fill="#E1E6F0" d="M116.152,71.461c0-0.753-0.465-1.098-1.03-0.772l-3.659,2.111c-0.566,0.326-1.023,1.2-1.023,1.954
			c0,0.751,0.457,1.099,1.023,0.772l3.661-2.113C115.691,73.089,116.152,72.213,116.152,71.461z"/>
	</g>
	<g>
		<path fill="#E1E6F0" d="M94.615,62.518l-10.133,5.84c-1.542,0.889-2.494,2.533-2.494,4.312v6.811c0,1.309,1.42,2.127,2.556,1.473
			l10.132-5.841c1.543-0.889,2.494-2.533,2.494-4.313v-6.81C97.17,62.681,95.752,61.862,94.615,62.518z"/>
		<path fill="#CAD0E6" d="M97.336,77.232c0-0.753-0.463-1.099-1.027-0.774l-13.34,7.692c-0.567,0.326-1.025,1.2-1.025,1.953
			c0,0.751,0.458,1.099,1.025,0.773l13.342-7.691C96.876,78.859,97.336,77.984,97.336,77.232z"/>
		<path fill="#CAD0E6" d="M90.125,86.812c0-0.753-0.46-1.098-1.024-0.772l-5.784,3.332c-0.563,0.327-1.021,1.2-1.021,1.952
			c0,0.755,0.458,1.1,1.023,0.774l5.781-3.333C89.668,88.438,90.125,87.564,90.125,86.812z"/>
		<path fill="#E1E6F0" d="M97.336,82.563c0-0.753-0.463-1.099-1.027-0.772l-3.66,2.111c-0.567,0.326-1.025,1.2-1.025,1.954
			c0,0.752,0.458,1.099,1.025,0.772l3.662-2.112C96.876,84.19,97.336,83.315,97.336,82.563z"/>
	</g>
	<g>
		<path fill="#E1E6F0" d="M74.211,74.941l-10.133,5.84c-1.541,0.889-2.495,2.533-2.495,4.312v6.812c0,1.308,1.421,2.126,2.556,1.472
			l10.133-5.841c1.543-0.89,2.494-2.533,2.494-4.312v-6.811C76.766,75.104,75.348,74.286,74.211,74.941z"/>
		<path fill="#CAD0E6" d="M76.932,89.655c0-0.753-0.463-1.098-1.028-0.773l-13.339,7.692c-0.567,0.326-1.025,1.2-1.025,1.953
			c0,0.75,0.458,1.098,1.025,0.772l13.342-7.691C76.472,91.283,76.932,90.407,76.932,89.655z"/>
		<path fill="#CAD0E6" d="M69.722,99.235c0-0.753-0.46-1.098-1.026-0.772l-5.782,3.332c-0.563,0.326-1.021,1.2-1.021,1.952
			c0,0.754,0.457,1.101,1.022,0.774l5.78-3.332C69.264,100.861,69.722,99.987,69.722,99.235z"/>
		<path fill="#E1E6F0" d="M76.932,94.986c0-0.753-0.463-1.098-1.028-0.772l-3.659,2.111c-0.568,0.326-1.025,1.2-1.025,1.954
			c0,0.751,0.457,1.099,1.025,0.772l3.662-2.113C76.472,96.614,76.932,95.738,76.932,94.986z"/>
	</g>
	<g>
		<path fill="#E1E6F0" d="M113.431,80.788l-10.134,5.84c-1.542,0.888-2.492,2.533-2.492,4.312v6.811c0,1.309,1.42,2.127,2.555,1.473
			l10.133-5.841c1.544-0.889,2.492-2.533,2.492-4.313v-6.81C115.984,80.951,114.566,80.132,113.431,80.788z"/>
		<path fill="#CAD0E6" d="M116.152,95.502c0-0.753-0.465-1.098-1.03-0.774l-13.339,7.693c-0.565,0.326-1.023,1.2-1.023,1.953
			c0,0.751,0.458,1.098,1.023,0.772l13.341-7.691C115.691,97.129,116.152,96.254,116.152,95.502z"/>
		<path fill="#CAD0E6" d="M108.939,105.082c0-0.754-0.461-1.098-1.025-0.772l-5.78,3.332c-0.566,0.327-1.023,1.2-1.023,1.952
			c0.003,0.754,0.46,1.1,1.023,0.774l5.78-3.333C108.484,106.708,108.939,105.834,108.939,105.082z"/>
		<path fill="#E1E6F0" d="M116.152,100.833c0-0.753-0.465-1.098-1.03-0.772l-3.659,2.111c-0.566,0.325-1.023,1.2-1.023,1.954
			c0,0.751,0.457,1.099,1.023,0.772l3.661-2.113C115.691,102.46,116.152,101.585,116.152,100.833z"/>
	</g>
	<g>
		<path fill="#E1E6F0" d="M94.615,91.889l-10.133,5.84c-1.542,0.889-2.494,2.533-2.494,4.312v6.811c0,1.309,1.42,2.127,2.556,1.473
			l10.132-5.841c1.543-0.89,2.494-2.533,2.494-4.312v-6.811C97.17,92.053,95.752,91.234,94.615,91.889z"/>
		<path fill="#CAD0E6" d="M97.336,106.604c0-0.753-0.463-1.098-1.027-0.774l-13.34,7.692c-0.567,0.327-1.025,1.2-1.025,1.953
			c0,0.751,0.458,1.099,1.025,0.771l13.342-7.69C96.876,108.23,97.336,107.355,97.336,106.604z"/>
		<path fill="#CAD0E6" d="M90.125,116.183c0-0.754-0.46-1.098-1.024-0.772l-5.784,3.331c-0.563,0.327-1.021,1.201-1.021,1.953
			c0,0.754,0.458,1.1,1.023,0.773l5.781-3.331C89.668,117.81,90.125,116.937,90.125,116.183z"/>
		<path fill="#E1E6F0" d="M97.336,111.935c0-0.754-0.463-1.099-1.027-0.772l-3.66,2.111c-0.567,0.325-1.025,1.199-1.025,1.952
			c0,0.752,0.458,1.101,1.025,0.773l3.662-2.113C96.876,113.562,97.336,112.687,97.336,111.935z"/>
	</g>
	<g>
		<path fill="#E1E6F0" d="M74.211,104.313l-10.133,5.84c-1.541,0.888-2.495,2.532-2.495,4.312v6.811
			c0,1.308,1.421,2.127,2.556,1.472l10.133-5.84c1.543-0.889,2.494-2.533,2.494-4.313v-6.81
			C76.766,104.476,75.348,103.657,74.211,104.313z"/>
		<path fill="#CAD0E6" d="M76.932,119.028c0-0.754-0.463-1.099-1.028-0.773l-13.339,7.69c-0.567,0.327-1.025,1.201-1.025,1.954
			c0,0.751,0.458,1.1,1.025,0.772l13.342-7.691C76.472,120.655,76.932,119.779,76.932,119.028z"/>
		<path fill="#CAD0E6" d="M69.722,128.606c0-0.752-0.46-1.098-1.026-0.771l-5.782,3.331c-0.563,0.326-1.021,1.2-1.021,1.953
			c0,0.754,0.457,1.1,1.022,0.774l5.78-3.332C69.264,130.234,69.722,129.36,69.722,128.606z"/>
		<path fill="#E1E6F0" d="M76.932,124.358c0-0.754-0.463-1.099-1.028-0.771l-3.659,2.111c-0.568,0.324-1.025,1.199-1.025,1.953
			c0,0.751,0.457,1.1,1.025,0.772l3.662-2.113C76.472,125.985,76.932,125.11,76.932,124.358z"/>
	</g>
	<path fill="#FFCF7E" d="M143.8,33.013l-21.775,12.551c-1.542,0.89-2.492,2.533-2.492,4.312v31.222c0,1.31,1.42,2.128,2.555,1.473
		l21.773-12.55c1.544-0.89,2.494-2.534,2.494-4.313V34.485C146.354,33.176,144.935,32.358,143.8,33.013z"/>
	<path fill="#788ACB" d="M146.364,82.817c0-1.296-0.789-1.892-1.764-1.331l-22.985,13.249c-0.975,0.561-1.764,2.068-1.764,3.364
		c0,1.296,0.792,1.893,1.766,1.331l22.986-13.249C145.575,85.621,146.364,84.115,146.364,82.817z"/>
</g>
</svg>
