<?xml version="1.0" encoding="utf-8"?>
<!-- Generator: Adobe Illustrator 16.0.0, SVG Export Plug-In . SVG Version: 6.00 Build 0)  -->
<!DOCTYPE svg PUBLIC "-//W3C//DTD SVG 1.1//EN" "http://www.w3.org/Graphics/SVG/1.1/DTD/svg11.dtd">
<svg version="1.1" xmlns="http://www.w3.org/2000/svg" xmlns:xlink="http://www.w3.org/1999/xlink" x="0px" y="0px"
	 width="169.66px" height="166.258px" viewBox="0 0 169.66 166.258" enable-background="new 0 0 169.66 166.258"
	 xml:space="preserve">
<g id="Layer_2">
</g>
<g id="Layer_1">
	<defs>
		<filter id="Adobe_OpacityMaskFilter" filterUnits="userSpaceOnUse" x="20.834" y="65.725" width="133.067" height="78.901">
			<feFlood  style="flood-color:white;flood-opacity:1" result="back"/>
			<feBlend  in="SourceGraphic" in2="back" mode="normal"/>
		</filter>
	</defs>
	<mask maskUnits="userSpaceOnUse" x="20.834" y="65.725" width="133.067" height="78.901" id="SVGID_1_">
		<g filter="url(#Adobe_OpacityMaskFilter)">
			<defs>
				<filter id="Adobe_OpacityMaskFilter_1_" filterUnits="userSpaceOnUse" x="20.834" y="65.725" width="133.067" height="78.901">
					<feFlood  style="flood-color:white;flood-opacity:1" result="back"/>
					<feBlend  in="SourceGraphic" in2="back" mode="normal"/>
				</filter>
			</defs>
			<mask maskUnits="userSpaceOnUse" x="20.834" y="65.725" width="133.067" height="78.901" id="SVGID_1_">
			</mask>
			<linearGradient id="SVGID_2_" gradientUnits="userSpaceOnUse" x1="87.3672" y1="144.626" x2="87.3672" y2="65.7246">
				<stop  offset="0" style="stop-color:#FFFFFF"/>
				<stop  offset="0.016" style="stop-color:#F3F3F3"/>
				<stop  offset="0.0908" style="stop-color:#C1C1C1"/>
				<stop  offset="0.1709" style="stop-color:#939393"/>
				<stop  offset="0.2546" style="stop-color:#6B6B6B"/>
				<stop  offset="0.3429" style="stop-color:#4A4A4A"/>
				<stop  offset="0.437" style="stop-color:#2F2F2F"/>
				<stop  offset="0.539" style="stop-color:#1A1A1A"/>
				<stop  offset="0.6529" style="stop-color:#0B0B0B"/>
				<stop  offset="0.7881" style="stop-color:#030303"/>
				<stop  offset="1" style="stop-color:#000000"/>
			</linearGradient>
			<path mask="url(#SVGID_1_)" fill="url(#SVGID_2_)" d="M25.257,113.425l48.118,27.737c8.014,4.619,17.887,4.619,25.901,0
				l50.202-28.938c5.897-3.4,5.897-11.898,0-15.297L101.36,69.189c-8.014-4.619-17.887-4.619-25.901,0L25.257,98.127
				C19.359,101.526,19.359,110.026,25.257,113.425z"/>
		</g>
	</mask>
	<linearGradient id="SVGID_3_" gradientUnits="userSpaceOnUse" x1="87.3672" y1="144.626" x2="87.3672" y2="65.7246">
		<stop  offset="0" style="stop-color:#000000;stop-opacity:0.3"/>
		<stop  offset="1" style="stop-color:#000000;stop-opacity:0.2"/>
	</linearGradient>
	<path opacity="0.6" fill="url(#SVGID_3_)" d="M25.257,113.425l48.118,27.737c8.014,4.619,17.887,4.619,25.901,0l50.202-28.938
		c5.897-3.4,5.897-11.898,0-15.297L101.36,69.189c-8.014-4.619-17.887-4.619-25.901,0L25.257,98.127
		C19.359,101.526,19.359,110.026,25.257,113.425z"/>
	<g>
		<linearGradient id="SVGID_4_" gradientUnits="userSpaceOnUse" x1="2.4473" y1="99.498" x2="177.373" y2="99.498">
			<stop  offset="0" style="stop-color:#DEE8FF"/>
			<stop  offset="1" style="stop-color:#788ACB"/>
		</linearGradient>
		<path fill="url(#SVGID_4_)" d="M96.896,123.793l55.151-31.792c2.042-1.176,3.062-3.236,3.062-5.295V72.805l-67.18,38.725v14.662
			C91.025,126.192,94.122,125.393,96.896,123.793z"/>
		<linearGradient id="SVGID_5_" gradientUnits="userSpaceOnUse" x1="2.4473" y1="99.498" x2="177.373" y2="99.498">
			<stop  offset="0" style="stop-color:#DEE8FF"/>
			<stop  offset="1" style="stop-color:#788ACB"/>
		</linearGradient>
		<path fill="url(#SVGID_5_)" d="M23.811,92.001l55.152,31.792c2.773,1.6,5.87,2.398,8.966,2.398V111.53l-67.18-38.725v13.901
			C20.749,88.766,21.769,90.826,23.811,92.001z"/>
	</g>
	<linearGradient id="SVGID_6_" gradientUnits="userSpaceOnUse" x1="20.7485" y1="72.8047" x2="155.1089" y2="72.8047">
		<stop  offset="6.300000e-007" style="stop-color:#FFFFFF"/>
		<stop  offset="1" style="stop-color:#E1E6F0"/>
	</linearGradient>
	<path fill="url(#SVGID_6_)" d="M23.811,78.1l55.152,31.792c5.547,3.198,12.384,3.198,17.933,0L152.047,78.1
		c4.083-2.353,4.083-8.238,0-10.591L96.896,35.718c-5.548-3.198-12.385-3.198-17.933,0L23.811,67.509
		C19.728,69.862,19.728,75.747,23.811,78.1z"/>
	<g>
		<polygon fill="#8C458C" points="117.569,32.992 127.313,27.558 117.569,21.632 107.824,27.065 		"/>
		<polygon fill="#80004B" points="107.824,27.065 107.824,66.862 117.569,72.673 117.569,32.992 		"/>
		<polygon fill="#9A5096" points="127.313,27.558 127.313,66.813 117.569,72.673 117.569,32.992 		"/>
		<polygon fill="#F86775" points="102.952,51.186 112.696,45.752 102.952,39.825 93.209,45.26 		"/>
		<polygon fill="#DD5266" points="93.209,45.26 93.209,75.482 102.952,81.296 102.952,51.186 		"/>
		<polygon fill="#F86775" points="112.696,45.752 112.696,75.435 102.952,81.296 102.952,51.186 		"/>
		<polygon fill="#EFBE72" points="88.336,70.649 98.08,65.215 88.336,59.29 78.59,64.722 		"/>
		<polygon fill="#E2BF79" points="78.59,64.722 78.59,84.104 88.336,89.916 88.336,70.649 		"/>
		<polygon fill="#FFDF93" points="98.08,65.215 98.08,84.055 88.336,89.916 88.336,70.649 		"/>
		<g>
			<polygon fill="#C8EBE8" points="73.719,90.286 83.463,84.854 73.719,78.928 63.974,84.361 			"/>
			<polygon fill="#AFDDD8" points="63.974,84.361 63.974,92.724 73.719,98.537 73.719,90.286 			"/>
			<polygon fill="#93CEC5" points="83.463,84.854 83.463,92.676 73.719,98.537 73.719,90.286 			"/>
		</g>
		<g>
			<polygon fill="#E8E8E8" points="102.952,41.764 112.696,36.33 102.952,30.404 93.209,35.838 			"/>
			<polygon fill="#D5D2D0" points="93.209,35.838 93.209,45.352 102.952,51.163 102.952,41.764 			"/>
			<polygon fill="#BCBCBC" points="112.696,36.33 112.696,45.844 102.952,51.163 102.952,41.764 			"/>
		</g>
		<g>
			<polygon fill="#E8E8E8" points="88.336,50.248 98.08,44.817 88.336,38.891 78.59,44.323 			"/>
			<polygon fill="#D5D2D0" points="78.59,44.323 78.59,64.774 88.336,70.587 88.336,50.248 			"/>
			<polygon fill="#BCBCBC" points="98.08,44.817 98.08,65.267 88.336,70.587 88.336,50.248 			"/>
		</g>
		<g>
			<polygon fill="#E8E8E8" points="73.719,58.623 83.463,53.19 73.719,47.265 63.974,52.697 			"/>
			<polygon fill="#D5D2D0" points="63.974,52.697 63.974,84.446 73.719,90.259 73.719,58.623 			"/>
			<polygon fill="#BCBCBC" points="83.463,53.19 83.463,84.937 73.719,90.259 73.719,58.623 			"/>
		</g>
		<g>
			
				<text transform="matrix(1.3223 -0.7159 0.8485 0.5292 73.0068 55.3135)" fill="#FFFFFF" font-family="'Raleway-Bold'" font-size="7.0461" letter-spacing="1.995">1</text>
		</g>
		<g>
			
				<text transform="matrix(1.3223 -0.7159 0.8485 0.5292 87.4238 47.0957)" fill="#FFFFFF" font-family="'Raleway-Bold'" font-size="7.0461" letter-spacing="1.995">2</text>
		</g>
		<g>
			
				<text transform="matrix(1.3223 -0.7159 0.8485 0.5292 101.1455 38.7607)" fill="#FFFFFF" font-family="'Raleway-Bold'" font-size="7.0461" letter-spacing="1.995">3</text>
		</g>
		<g>
			
				<text transform="matrix(1.3223 -0.7159 0.8485 0.5292 116.3398 29.3462)" fill="#FFFFFF" font-family="'Raleway-Bold'" font-size="7.0461" letter-spacing="1.995">4</text>
		</g>
		<g>
			
				<text transform="matrix(1.1307 -0.7557 0 1 76.0728 94.5264)" fill="#FFFFFF" font-family="'Raleway-Medium'" font-size="2.9778">25%</text>
		</g>
		<g>
			
				<text transform="matrix(1.1307 -0.7557 0 1 90.6006 86.3599)" fill="#FFFFFF" font-family="'Raleway-Medium'" font-size="2.9778">50%</text>
		</g>
		<g>
			
				<text transform="matrix(1.1307 -0.7557 0 1 105.1284 78.1914)" fill="#FFFFFF" font-family="'Raleway-Medium'" font-size="2.9778">75%</text>
		</g>
		<g>
			
				<text transform="matrix(1.1307 -0.7557 0 1 118.7598 70.623)" fill="#FFFFFF" font-family="'Raleway-Medium'" font-size="2.9778">100%</text>
		</g>
	</g>
</g>
</svg>
