<?xml version="1.0" encoding="utf-8"?>
<!-- Generator: Adobe Illustrator 16.0.0, SVG Export Plug-In . SVG Version: 6.00 Build 0)  -->
<!DOCTYPE svg PUBLIC "-//W3C//DTD SVG 1.1//EN" "http://www.w3.org/Graphics/SVG/1.1/DTD/svg11.dtd">
<svg version="1.1" xmlns="http://www.w3.org/2000/svg" xmlns:xlink="http://www.w3.org/1999/xlink" x="0px" y="0px"
	 width="204.13px" height="211.49px" viewBox="0 0 204.13 211.49" enable-background="new 0 0 204.13 211.49" xml:space="preserve">
<g id="Layer_2">
</g>
<g id="Layer_1">
	<path id="XMLID_58_" fill="#96D1FF" d="M137.201,88.368l-0.015,0.008c-1.698,1.031-3.831-0.263-3.806-2.311l0.089-6.783
		l6.891-4.204l-0.103,7.83C140.23,85.159,139.07,87.23,137.201,88.368z"/>
	<defs>
		<filter id="Adobe_OpacityMaskFilter" filterUnits="userSpaceOnUse" x="74.07" y="165.079" width="58.067" height="35.253">
			<feFlood  style="flood-color:white;flood-opacity:1" result="back"/>
			<feBlend  in="SourceGraphic" in2="back" mode="normal"/>
		</filter>
	</defs>
	<mask maskUnits="userSpaceOnUse" x="74.07" y="165.079" width="58.067" height="35.253" id="SVGID_1_">
		<g filter="url(#Adobe_OpacityMaskFilter)">
			<defs>
				<filter id="Adobe_OpacityMaskFilter_1_" filterUnits="userSpaceOnUse" x="55.381" y="154.753" width="75.454" height="44.739">
					<feFlood  style="flood-color:white;flood-opacity:1" result="back"/>
					<feBlend  in="SourceGraphic" in2="back" mode="normal"/>
				</filter>
			</defs>
			<mask maskUnits="userSpaceOnUse" x="55.381" y="154.753" width="75.454" height="44.739" id="SVGID_1_">
			</mask>
			<linearGradient id="SVGID_2_" gradientUnits="userSpaceOnUse" x1="93.1074" y1="199.4932" x2="93.1074" y2="154.7534">
				<stop  offset="0" style="stop-color:#FFFFFF"/>
				<stop  offset="0.016" style="stop-color:#F3F3F3"/>
				<stop  offset="0.0908" style="stop-color:#C1C1C1"/>
				<stop  offset="0.1709" style="stop-color:#939393"/>
				<stop  offset="0.2546" style="stop-color:#6B6B6B"/>
				<stop  offset="0.3429" style="stop-color:#4A4A4A"/>
				<stop  offset="0.437" style="stop-color:#2F2F2F"/>
				<stop  offset="0.539" style="stop-color:#1A1A1A"/>
				<stop  offset="0.6529" style="stop-color:#0B0B0B"/>
				<stop  offset="0.7881" style="stop-color:#030303"/>
				<stop  offset="1" style="stop-color:#000000"/>
			</linearGradient>
			<path mask="url(#SVGID_1_)" fill="url(#SVGID_2_)" d="M57.889,181.801l27.285,15.729c4.544,2.618,10.143,2.618,14.688,0
				l28.465-16.41c3.345-1.929,3.345-6.748,0-8.675l-27.284-15.728c-4.544-2.619-10.143-2.619-14.688,0l-28.466,16.409
				C54.545,175.054,54.545,179.873,57.889,181.801z"/>
		</g>
	</mask>
	<linearGradient id="SVGID_3_" gradientUnits="userSpaceOnUse" x1="74.0703" y1="182.7061" x2="132.1377" y2="182.7061">
		<stop  offset="0" style="stop-color:#000000;stop-opacity:0.3"/>
		<stop  offset="1" style="stop-color:#000000;stop-opacity:0.2"/>
	</linearGradient>
	<path opacity="0.6" fill="url(#SVGID_3_)" d="M75.808,191.008l11.138,7.389c4.545,2.619,6.868,2.561,11.413-0.058l31.048-18.05
		c3.345-1.928,3.771-4.911,0.426-6.838l-12.206-6.97c-4.544-2.619-6.864-1.233-11.408,1.386l-28.466,16.41
		C74.407,186.204,72.464,189.08,75.808,191.008z"/>
	<g>
		<g>
			<linearGradient id="SVGID_4_" gradientUnits="userSpaceOnUse" x1="120.3574" y1="153.7285" x2="85.0877" y2="188.9982">
				<stop  offset="0.0635" style="stop-color:#FFEFE5"/>
				<stop  offset="0.3915" style="stop-color:#A0C2DA"/>
				<stop  offset="0.6079" style="stop-color:#9EBFD7"/>
				<stop  offset="0.7634" style="stop-color:#97B6CE"/>
				<stop  offset="0.8994" style="stop-color:#8BA6BF"/>
				<stop  offset="1" style="stop-color:#7E95AE"/>
			</linearGradient>
			<path fill="url(#SVGID_4_)" d="M130.396,165.541c0-0.001,0-0.003,0-0.003v-1.769l-0.262,0.83
				c-0.234-0.416-0.627-0.812-1.173-1.152l-12.783-7.927c-1.794-1.114-4.571-1.194-6.203-0.181l-33.844,20.991
				c-0.341,0.212-0.604,0.454-0.792,0.715l-0.352-0.532v1.574l0,0v0.21l0.011-0.021c0.075,0.677,0.554,1.362,1.423,1.902
				l12.786,7.93c1.792,1.112,4.57,1.192,6.202,0.18l33.84-20.992c0.765-0.473,1.145-1.1,1.146-1.747l0,0V165.541z"/>
			<linearGradient id="SVGID_5_" gradientUnits="userSpaceOnUse" x1="74.9883" y1="170.1313" x2="130.3975" y2="170.1313">
				<stop  offset="0.0635" style="stop-color:#FFEFE5"/>
				<stop  offset="0.3915" style="stop-color:#A0C2DA"/>
				<stop  offset="0.6079" style="stop-color:#9EBFD7"/>
				<stop  offset="0.7634" style="stop-color:#97B6CE"/>
				<stop  offset="0.8994" style="stop-color:#8BA6BF"/>
				<stop  offset="1" style="stop-color:#7E95AE"/>
			</linearGradient>
			<path fill="url(#SVGID_5_)" d="M95.41,186.605c-1.632,1.014-4.41,0.932-6.202-0.179l-12.786-7.929
				c-1.792-1.114-1.922-2.835-0.29-3.848l33.844-20.994c1.632-1.011,4.409-0.93,6.203,0.181l12.783,7.932
				c1.795,1.112,1.925,2.833,0.288,3.847L95.41,186.605z"/>
			<linearGradient id="SVGID_6_" gradientUnits="userSpaceOnUse" x1="61.4795" y1="202.1235" x2="130.8315" y2="11.5804">
				<stop  offset="0.0635" style="stop-color:#FFEFE5"/>
				<stop  offset="0.3915" style="stop-color:#A0C2DA"/>
				<stop  offset="0.4078" style="stop-color:#A3C4DB"/>
				<stop  offset="0.4195" style="stop-color:#ACC8DF"/>
				<stop  offset="0.4298" style="stop-color:#BCD1E5"/>
				<stop  offset="0.4392" style="stop-color:#D2DDEE"/>
				<stop  offset="0.4444" style="stop-color:#E2E5F4"/>
				<stop  offset="1" style="stop-color:#7E95AE"/>
			</linearGradient>
			<path fill="url(#SVGID_6_)" d="M161.734,23.638l-4.703-2.52v0.004c-0.368-0.184-0.858-0.136-1.394,0.197L36.936,94.947
				c-1.149,0.713-2.084,2.449-2.084,3.875v88.063v3.492c0,0.772,0.274,1.295,0.71,1.499l-0.001,0.001l4.759,2.545l-0.684-4.426
				l116.002-71.953c1.149-0.715,2.082-2.45,2.082-3.878v-3.491V25.884L161.734,23.638z"/>
			<linearGradient id="SVGID_7_" gradientUnits="userSpaceOnUse" x1="48.8926" y1="199.375" x2="153.204" y2="18.7022">
				<stop  offset="0.0635" style="stop-color:#FFEFE5"/>
				<stop  offset="0.3915" style="stop-color:#A0C2DA"/>
				<stop  offset="0.5788" style="stop-color:#A3C4DB"/>
				<stop  offset="0.7134" style="stop-color:#ACC8DF"/>
				<stop  offset="0.8315" style="stop-color:#BCD1E5"/>
				<stop  offset="0.9395" style="stop-color:#D2DDEE"/>
				<stop  offset="1" style="stop-color:#E2E5F4"/>
			</linearGradient>
			<path fill="url(#SVGID_7_)" d="M160.398,23.864L41.696,97.489c-1.148,0.716-2.085,2.452-2.085,3.878v81.457v6.605v3.491
				c0,1.427,0.937,2.005,2.085,1.292l118.702-73.626c1.152-0.713,2.084-2.45,2.084-3.877v-3.491v-6.604V25.156
				C162.482,23.729,161.549,23.149,160.398,23.864z"/>
			<path fill="#FCFBFC" d="M158.297,28.482L44.464,99.154c-1.15,0.714-2.084,2.451-2.084,3.878l0.002,84.645l118-73.257
				l-0.002-84.646C160.38,28.348,159.447,27.769,158.297,28.482z"/>
			<g>
				<defs>
					
						<filter id="Adobe_OpacityMaskFilter_2_" filterUnits="userSpaceOnUse" x="42.453" y="114.344" width="117.862" height="73.407">
						<feFlood  style="flood-color:white;flood-opacity:1" result="back"/>
						<feBlend  in="SourceGraphic" in2="back" mode="normal"/>
					</filter>
				</defs>
				<mask maskUnits="userSpaceOnUse" x="42.453" y="114.344" width="117.862" height="73.407" id="SVGID_8_">
					<g filter="url(#Adobe_OpacityMaskFilter_2_)">
						<defs>
							
								<filter id="Adobe_OpacityMaskFilter_3_" filterUnits="userSpaceOnUse" x="42.453" y="114.344" width="117.862" height="73.407">
								<feFlood  style="flood-color:white;flood-opacity:1" result="back"/>
								<feBlend  in="SourceGraphic" in2="back" mode="normal"/>
							</filter>
						</defs>
						<mask maskUnits="userSpaceOnUse" x="42.453" y="114.344" width="117.862" height="73.407" id="SVGID_8_">
						</mask>
						<linearGradient id="SVGID_9_" gradientUnits="userSpaceOnUse" x1="42.4531" y1="151.0474" x2="160.3154" y2="151.0474">
							<stop  offset="0.0635" style="stop-color:#000000"/>
							<stop  offset="0.5397" style="stop-color:#FFFFFF"/>
							<stop  offset="0.6248" style="stop-color:#FCFCFC"/>
							<stop  offset="0.686" style="stop-color:#F3F3F3"/>
							<stop  offset="0.7397" style="stop-color:#E3E3E3"/>
							<stop  offset="0.7892" style="stop-color:#CDCDCD"/>
							<stop  offset="0.8357" style="stop-color:#B0B0B0"/>
							<stop  offset="0.88" style="stop-color:#8D8D8D"/>
							<stop  offset="0.9226" style="stop-color:#626262"/>
							<stop  offset="0.9628" style="stop-color:#333333"/>
							<stop  offset="1" style="stop-color:#000000"/>
						</linearGradient>
						<path mask="url(#SVGID_8_)" fill="url(#SVGID_9_)" d="M42.712,187.75c-0.089,0-0.175-0.05-0.224-0.14
							c-0.072-0.133-0.028-0.301,0.095-0.378l117.346-72.851c0.124-0.077,0.283-0.032,0.353,0.101
							c0.071,0.132,0.029,0.302-0.094,0.379L42.843,187.713C42.801,187.737,42.757,187.75,42.712,187.75z"/>
					</g>
				</mask>
				<linearGradient id="SVGID_10_" gradientUnits="userSpaceOnUse" x1="42.4531" y1="151.0474" x2="160.3154" y2="151.0474">
					<stop  offset="0.0635" style="stop-color:#FFEFE5"/>
					<stop  offset="0.5397" style="stop-color:#FFFFFF"/>
					<stop  offset="0.7328" style="stop-color:#FCFCFE"/>
					<stop  offset="0.8715" style="stop-color:#F3F4FA"/>
					<stop  offset="0.993" style="stop-color:#E3E6F4"/>
					<stop  offset="1" style="stop-color:#E2E5F4"/>
				</linearGradient>
				<path fill="url(#SVGID_10_)" d="M42.712,187.75c-0.089,0-0.175-0.05-0.224-0.14c-0.072-0.133-0.028-0.301,0.095-0.378
					l117.346-72.851c0.124-0.077,0.283-0.032,0.353,0.101c0.071,0.132,0.029,0.302-0.094,0.379L42.843,187.713
					C42.801,187.737,42.757,187.75,42.712,187.75z"/>
			</g>
		</g>
		<linearGradient id="SVGID_11_" gradientUnits="userSpaceOnUse" x1="96.5" y1="159.6914" x2="102.7383" y2="170.4964">
			<stop  offset="0" style="stop-color:#DFE0E1"/>
			<stop  offset="0.5344" style="stop-color:#A0C2DA"/>
			<stop  offset="1" style="stop-color:#A0C1D9"/>
		</linearGradient>
		<path fill="url(#SVGID_11_)" d="M109.531,166.405c-5.086,3.048-11.823,6.997-16.97,9.966c1.714-4.702,0.001-14.019,0.001-14.019
			l14.113-8.538C106.676,153.815,107.326,164.458,109.531,166.405z"/>
	</g>
	<polygon fill="#B4A1E0" points="73.609,136.632 48.813,150.996 48.715,133.59 73.5,119.238 	"/>
	<polygon fill="#96D1FF" points="74.16,158.47 49.363,172.834 49.268,155.427 74.051,141.074 	"/>
	<polygon fill="#FFCF7E" points="155.872,88.991 131.072,103.357 130.979,85.948 155.76,71.595 	"/>
	<polygon fill="#ECACDC" points="156.426,110.829 131.627,125.193 131.533,107.786 156.313,93.432 	"/>
	<polygon fill="#575FE5" points="114.639,112.824 89.844,127.188 89.746,109.781 114.529,95.429 	"/>
	<polygon fill="#FF867E" points="115.191,134.662 90.393,149.026 90.3,131.619 115.083,117.265 	"/>
	<polygon id="XMLID_55_" fill="#A4B8BA" points="38.458,97.557 36.214,114.4 37.512,135.177 161.433,63.568 161.211,41.011 
		159.576,24.097 	"/>
	<polygon id="XMLID_54_" fill="#2298F4" points="159.691,24.097 41.961,95.479 69.216,118.169 186.941,46.787 	"/>
	<g id="XMLID_41_">
		<g id="XMLID_52_">
			<polygon id="XMLID_53_" fill="#96D1FF" points="59.229,84.811 52.332,89.016 80.115,111.636 87.009,107.432 			"/>
		</g>
		<g id="XMLID_50_">
			<polygon id="XMLID_51_" fill="#96D1FF" points="77.013,74.028 70.116,78.233 97.899,100.851 104.793,96.646 			"/>
		</g>
		<g id="XMLID_48_">
			<polygon id="XMLID_49_" fill="#96D1FF" points="94.798,63.244 87.901,67.45 115.685,90.067 122.576,85.862 			"/>
		</g>
		<g id="XMLID_46_">
			<polygon id="XMLID_47_" fill="#96D1FF" points="112.579,52.458 105.687,56.665 133.47,79.283 140.36,75.079 			"/>
		</g>
		<g id="XMLID_44_">
			<polygon id="XMLID_45_" fill="#96D1FF" points="130.365,41.675 123.47,45.88 151.253,68.499 158.146,64.295 			"/>
		</g>
		<g id="XMLID_42_">
			<polygon id="XMLID_43_" fill="#96D1FF" points="148.148,30.891 141.254,35.095 169.039,57.715 175.931,53.51 			"/>
		</g>
	</g>
	<polygon id="XMLID_40_" fill="#575FE5" points="41.961,95.479 42.807,110.51 70.67,126.415 69.216,118.169 	"/>
	<path id="XMLID_39_" fill="#96D1FF" d="M83.656,120.805L83.656,120.805c-1.788,1.023-4.021-0.271-3.994-2.314l0.092-6.854
		l7.255-4.204l-0.106,7.9C86.87,117.593,85.637,119.674,83.656,120.805z"/>
	<path id="XMLID_38_" fill="#96D1FF" d="M101.614,109.992l-0.004,0.003c-1.699,1.025-3.825-0.27-3.799-2.313l0.088-6.831
		l6.894-4.205l-0.103,7.878C104.662,106.783,103.493,108.86,101.614,109.992z"/>
	<path id="XMLID_37_" fill="#2298F4" d="M92.725,115.123l-0.009,0.005c-2.728,1.664-6.118,1.168-6.061-0.888l0.188-6.709
		l11.057-6.806l-0.218,7.773C97.618,110.771,95.737,113.285,92.725,115.123z"/>
	<path id="XMLID_36_" fill="#2298F4" d="M74.622,125.729l-0.009,0.005c-2.725,1.665-6.112,0.38-6.054-1.673l0.197-6.17l11.041-6.559
		l-0.218,7.772C79.519,121.376,77.636,123.893,74.622,125.729z"/>
	<path id="XMLID_35_" fill="#2298F4" d="M163.796,71.824l-0.01,0.005c-2.726,1.666-6.115,1.167-6.058-0.888l0.188-6.708
		l11.057-6.805l-0.217,7.772C168.69,67.472,166.809,69.988,163.796,71.824z"/>
	<path id="XMLID_34_" fill="#2298F4" d="M181.766,60.852l-0.009,0.004c-2.727,1.664-6.115,1.167-6.059-0.887l0.187-6.711
		l11.057-6.805l-0.219,7.775C186.661,56.498,184.778,59.013,181.766,60.852z"/>
	<path id="XMLID_33_" fill="#2298F4" d="M145.916,82.605l-0.009,0.003c-2.727,1.665-6.118,1.167-6.062-0.886l0.188-6.711
		l11.058-6.806l-0.219,7.775C150.809,78.25,148.927,80.767,145.916,82.605z"/>
	<path id="XMLID_32_" fill="#2298F4" d="M128.645,93.332l-0.009,0.004c-2.727,1.665-6.116,1.169-6.059-0.888l0.188-6.708
		l11.056-6.806l-0.22,7.775C133.538,88.98,131.657,91.494,128.645,93.332z"/>
	<path id="XMLID_31_" fill="#2298F4" d="M110.504,104.288l-0.008,0.004c-2.644,1.665-5.929,1.17-5.873-0.887l0.181-6.71
		l10.721-6.806l-0.211,7.774C115.252,99.934,113.426,102.448,110.504,104.288z"/>
	<path id="XMLID_30_" fill="#96D1FF" d="M119.49,99.179l-0.01,0.007c-1.85,1.029-4.164-0.266-4.136-2.311l0.096-6.808l7.495-4.205
		l-0.109,7.854C122.793,95.971,121.529,98.046,119.49,99.179z"/>
	<path id="XMLID_57_" fill="#96D1FF" d="M137.072,88.479l-0.019,0.01c-1.7,1.038-3.836-0.256-3.811-2.308l0.088-6.757l6.893-4.204
		l-0.102,7.805C140.094,85.274,138.938,87.342,137.072,88.479z"/>
	<path id="XMLID_56_" fill="#96D1FF" d="M154.866,77.666l-0.024,0.016c-1.7,1.041-3.841-0.254-3.813-2.308l0.088-6.704l6.893-4.215
		l-0.103,7.765C157.878,74.462,156.725,76.528,154.866,77.666z"/>
	<path id="XMLID_1_" fill="#96D1FF" d="M172.742,66.511l-0.024,0.016c-1.7,1.041-3.841-0.254-3.813-2.308l0.088-6.704l6.893-4.215
		l-0.103,7.765C175.754,63.308,174.601,65.374,172.742,66.511z"/>
</g>
</svg>
