<?xml version="1.0" encoding="utf-8"?>
<!-- Generator: Adobe Illustrator 16.0.0, SVG Export Plug-In . SVG Version: 6.00 Build 0)  -->
<!DOCTYPE svg PUBLIC "-//W3C//DTD SVG 1.1//EN" "http://www.w3.org/Graphics/SVG/1.1/DTD/svg11.dtd">
<svg version="1.1" xmlns="http://www.w3.org/2000/svg" xmlns:xlink="http://www.w3.org/1999/xlink" x="0px" y="0px"
	 width="169.66px" height="166.258px" viewBox="0 0 169.66 166.258" enable-background="new 0 0 169.66 166.258"
	 xml:space="preserve">
<g id="Layer_2">
</g>
<g id="Layer_1">
	<defs>
		<filter id="Adobe_OpacityMaskFilter" filterUnits="userSpaceOnUse" x="17.735" y="64.586" width="133.067" height="78.901">
			<feFlood  style="flood-color:white;flood-opacity:1" result="back"/>
			<feBlend  in="SourceGraphic" in2="back" mode="normal"/>
		</filter>
	</defs>
	<mask maskUnits="userSpaceOnUse" x="17.735" y="64.586" width="133.067" height="78.901" id="SVGID_1_">
		<g filter="url(#Adobe_OpacityMaskFilter)">
			<defs>
				<filter id="Adobe_OpacityMaskFilter_1_" filterUnits="userSpaceOnUse" x="17.735" y="64.586" width="133.067" height="78.901">
					<feFlood  style="flood-color:white;flood-opacity:1" result="back"/>
					<feBlend  in="SourceGraphic" in2="back" mode="normal"/>
				</filter>
			</defs>
			<mask maskUnits="userSpaceOnUse" x="17.735" y="64.586" width="133.067" height="78.901" id="SVGID_1_">
			</mask>
			<linearGradient id="SVGID_2_" gradientUnits="userSpaceOnUse" x1="84.2686" y1="143.4868" x2="84.2686" y2="64.5854">
				<stop  offset="0" style="stop-color:#FFFFFF"/>
				<stop  offset="0.016" style="stop-color:#F3F3F3"/>
				<stop  offset="0.0908" style="stop-color:#C1C1C1"/>
				<stop  offset="0.1709" style="stop-color:#939393"/>
				<stop  offset="0.2546" style="stop-color:#6B6B6B"/>
				<stop  offset="0.3429" style="stop-color:#4A4A4A"/>
				<stop  offset="0.437" style="stop-color:#2F2F2F"/>
				<stop  offset="0.539" style="stop-color:#1A1A1A"/>
				<stop  offset="0.6529" style="stop-color:#0B0B0B"/>
				<stop  offset="0.7881" style="stop-color:#030303"/>
				<stop  offset="1" style="stop-color:#000000"/>
			</linearGradient>
			<path mask="url(#SVGID_1_)" fill="url(#SVGID_2_)" d="M22.158,112.286l48.118,27.736c8.014,4.619,17.887,4.619,25.901,0
				l50.202-28.938c5.897-3.4,5.897-11.899,0-15.299L98.26,68.051c-8.014-4.62-17.887-4.62-25.901,0L22.158,96.988
				C16.26,100.388,16.26,108.887,22.158,112.286z"/>
		</g>
	</mask>
	<linearGradient id="SVGID_3_" gradientUnits="userSpaceOnUse" x1="84.2686" y1="143.4868" x2="84.2686" y2="64.5854">
		<stop  offset="0" style="stop-color:#000000;stop-opacity:0.3"/>
		<stop  offset="1" style="stop-color:#000000;stop-opacity:0.2"/>
	</linearGradient>
	<path opacity="0.6" fill="url(#SVGID_3_)" d="M22.158,112.286l48.118,27.736c8.014,4.619,17.887,4.619,25.901,0l50.202-28.938
		c5.897-3.4,5.897-11.899,0-15.299L98.26,68.051c-8.014-4.62-17.887-4.62-25.901,0L22.158,96.988
		C16.26,100.388,16.26,108.887,22.158,112.286z"/>
	<g>
		<linearGradient id="SVGID_4_" gradientUnits="userSpaceOnUse" x1="-0.6519" y1="98.3594" x2="174.2739" y2="98.3594">
			<stop  offset="0" style="stop-color:#DEE8FF"/>
			<stop  offset="1" style="stop-color:#788ACB"/>
		</linearGradient>
		<path fill="url(#SVGID_4_)" d="M93.796,122.654l55.151-31.792c2.043-1.176,3.063-3.235,3.063-5.296v-13.9L84.83,110.39v14.663
			C87.925,125.053,91.022,124.254,93.796,122.654z"/>
		<linearGradient id="SVGID_5_" gradientUnits="userSpaceOnUse" x1="-0.6519" y1="98.3594" x2="174.2739" y2="98.3594">
			<stop  offset="0" style="stop-color:#DEE8FF"/>
			<stop  offset="1" style="stop-color:#788ACB"/>
		</linearGradient>
		<path fill="url(#SVGID_5_)" d="M20.712,90.862l55.152,31.792c2.773,1.6,5.87,2.398,8.966,2.398V110.39l-67.18-38.724v13.9
			C17.649,87.627,18.67,89.687,20.712,90.862z"/>
	</g>
	<linearGradient id="SVGID_6_" gradientUnits="userSpaceOnUse" x1="17.6499" y1="71.665" x2="152.0098" y2="71.665">
		<stop  offset="6.300000e-007" style="stop-color:#FFFFFF"/>
		<stop  offset="1" style="stop-color:#E1E6F0"/>
	</linearGradient>
	<path fill="url(#SVGID_6_)" d="M20.712,76.961l55.152,31.792c5.547,3.197,12.384,3.197,17.933,0l55.151-31.792
		c4.083-2.354,4.083-8.238,0-10.592L93.796,34.578c-5.549-3.197-12.385-3.197-17.933,0L20.712,66.369
		C16.629,68.723,16.629,74.607,20.712,76.961z"/>
	<g>
		<g>
			<path fill="#6C8902" d="M65.215,57.825c0.05-0.513,0.075-1.018,0.075-1.514C65.063,56.769,65.086,57.429,65.215,57.825z"/>
		</g>
	</g>
	<g>
		<path fill="#CAD0E6" d="M76.106,59.125l32.795,18.935c1.262,0.729,2.817,0.729,4.08,0l12.548-7.244
			c0.929-0.537,0.929-1.878,0-2.414L92.734,49.467c-1.263-0.729-2.817-0.729-4.081,0l-12.547,7.244
			C75.177,57.247,75.177,58.588,76.106,59.125z"/>
		<g>
			<g>
				<path fill="#E1E6F0" d="M112.981,72.89l12.548-7.245c0.464-0.268,0.697-0.737,0.697-1.207v-3.167l-15.284,8.824v3.341
					C111.646,73.436,112.35,73.253,112.981,72.89z"/>
				<path fill="#E1E6F0" d="M76.106,53.954l32.795,18.936c0.63,0.363,1.335,0.546,2.04,0.546v-3.341L75.41,49.58v3.168
					C75.41,53.218,75.642,53.687,76.106,53.954z"/>
			</g>
			<path fill="#FFFFFF" d="M76.106,50.786l32.795,18.935c1.262,0.729,2.817,0.729,4.08,0l12.548-7.244
				c0.929-0.536,0.929-1.877,0-2.414L92.734,41.129c-1.263-0.729-2.817-0.729-4.081,0l-12.547,7.244
				C75.177,48.909,75.177,50.251,76.106,50.786z"/>
		</g>
		<g>
			<g>
				<path fill="#333333" d="M120.813,55.055l3.183-2.35c0.428-0.316,0.52-0.924,0.204-1.353l-0.419-0.567
					c-0.315-0.427-0.924-0.52-1.351-0.203l-3.184,2.35c-0.427,0.315-0.519,0.924-0.203,1.352l0.419,0.567
					C119.777,55.279,120.386,55.37,120.813,55.055z"/>
				<g>
					<polygon fill="#788ACB" points="115.082,53.693 112.23,50.796 105.408,57.493 109.505,59.168 					"/>
					<circle fill="#788ACB" cx="113.656" cy="52.245" r="2.032"/>
				</g>
				<g>
					<path fill="#788ACB" d="M113.914,50.229l-0.121,4.044l7.009-0.429c0.45-0.027,0.805-0.393,0.818-0.843l0,0
						c0.014-0.444-0.311-0.827-0.751-0.888L113.914,50.229z"/>
				</g>
			</g>
			<g>
				<path fill="#333333" d="M123.792,57.493l3.184-2.35c0.427-0.315,0.519-0.924,0.203-1.352l-0.42-0.567
					c-0.315-0.429-0.923-0.52-1.351-0.204l-3.183,2.351c-0.428,0.315-0.52,0.923-0.204,1.352l0.419,0.567
					C122.756,57.718,123.364,57.81,123.792,57.493z"/>
				<g>
					<polygon fill="#788ACB" points="118.06,56.133 115.209,53.235 108.386,59.933 112.484,61.606 					"/>
					<circle fill="#788ACB" cx="116.635" cy="54.684" r="2.032"/>
				</g>
				<g>
					<path fill="#788ACB" d="M116.894,52.668l-0.122,4.044l7.009-0.429c0.45-0.026,0.805-0.392,0.818-0.842l0,0
						c0.013-0.444-0.311-0.828-0.752-0.888L116.894,52.668z"/>
				</g>
			</g>
			<g>
				<path fill="#788ACB" d="M112.484,61.606L112.484,61.606v-6.35h-9.47v2.303C103.014,62.488,108.921,65.013,112.484,61.606z"/>
				<g>
					<g>
						
							<rect x="101.368" y="49.977" transform="matrix(-0.936 -0.3521 0.3521 -0.936 180.264 137.0869)" fill="#454563" width="2.458" height="4.352"/>
						<circle fill="#454563" cx="101.83" cy="54.189" r="1.229"/>
					</g>
					<g>
						<polygon fill="#454563" points="102.984,54.61 100.616,54 99.938,59.664 100.861,59.901 						"/>
						<circle fill="#454563" cx="100.489" cy="59.416" r="1.047"/>
					</g>
					<path fill="#CAD0E6" d="M106.075,48.028l-1.881,4.275c-0.271,0.615-1.101,0.846-1.856,0.514
						c-0.753-0.332-1.146-1.101-0.875-1.716l1.88-4.273L106.075,48.028z"/>
				</g>
				<circle fill="#454563" cx="109.453" cy="39.24" r="3.571"/>
				<path fill="#E1E6F0" d="M112.921,59.901c0,0,0.126-8.64,0.126-11.17c0-2.531-2.893-4.068-5.063-4.068
					c-2.169,0-4.971,1.176-4.971,3.616s-0.417,11.363-0.417,11.363L112.921,59.901z"/>
				<path fill="#454563" d="M110.199,42.346l-0.863,3.302c-0.125,0.476-0.872,0.691-1.669,0.483
					c-0.797-0.209-1.342-0.763-1.218-1.238l0.863-3.302L110.199,42.346z"/>
				<g>
					<path fill="#E36F6F" d="M109.223,35.242c0.637,0,1.238,0.154,1.77,0.425c0.336,0.576,0.529,1.246,0.529,1.961
						c0,0.35-0.047,0.689-0.133,1.012c-0.117-0.041-0.242-0.065-0.373-0.065c-0.619,0-1.121,0.502-1.121,1.121
						c0,0.322,0.137,0.611,0.354,0.816c-0.695,0.634-1.618,1.021-2.632,1.021c-0.638,0-1.239-0.154-1.771-0.425
						c-0.335-0.576-0.528-1.247-0.528-1.962C105.318,36.99,107.066,35.242,109.223,35.242z"/>
				</g>
				<g>
					<g>
						
							<rect x="110.759" y="53.109" transform="matrix(-0.9916 0.1296 -0.1296 -0.9916 230.1945 95.5952)" fill="#454563" width="2.457" height="4.353"/>
						<circle fill="#454563" cx="112.27" cy="57.443" r="1.229"/>
					</g>
					<g>
						<polygon fill="#454563" points="113.486,57.266 111.112,57.853 113.601,65.086 114.527,64.857 						"/>
						<circle fill="#454563" cx="113.968" cy="64.606" r="1.046"/>
					</g>
					<path fill="#CAD0E6" d="M112.923,50.025l0.462,4.647c0.066,0.669-0.544,1.277-1.364,1.359c-0.82,0.081-1.539-0.396-1.605-1.064
						l-0.462-4.646L112.923,50.025z"/>
				</g>
			</g>
		</g>
	</g>
	<g>
		<g>
			<g>
				<path fill="#454563" d="M100.544,92.92l3.513-2.59c0.551-0.406,0.669-1.188,0.262-1.739l-0.346-0.467
					c-0.407-0.55-1.19-0.668-1.741-0.262l-3.513,2.59c-0.551,0.405-0.668,1.188-0.262,1.738l0.345,0.468
					C99.209,93.207,99.993,93.325,100.544,92.92z"/>
				<g>
					<path fill="#454563" d="M103.094,77.229l-4.695-0.357l0.175,13.782c0.006,0.524,0.412,0.956,0.936,0.996l0,0
						c0.517,0.039,0.979-0.317,1.073-0.825L103.094,77.229z"/>
					<circle fill="#454563" cx="100.764" cy="76.82" r="2.366"/>
				</g>
			</g>
			<g>
				<path fill="#333333" d="M83.103,78.247l3.857-2.045c0.605-0.321,0.837-1.077,0.516-1.682l-0.273-0.513
					c-0.321-0.604-1.079-0.836-1.684-0.515l-3.857,2.045c-0.604,0.32-0.836,1.077-0.515,1.681l0.272,0.513
					C81.741,78.335,82.498,78.567,83.103,78.247z"/>
				<g>
					<path fill="#454563" d="M78.862,63.317l-4.188,2.15l7.378,11.65c0.28,0.442,0.853,0.599,1.319,0.358l0,0
						c0.46-0.236,0.668-0.781,0.481-1.264L78.862,63.317z"/>
					<circle fill="#454563" cx="76.662" cy="64.188" r="2.366"/>
				</g>
			</g>
			<path fill="#CAD0E6" d="M37.27,81.7l42.264,24.362c1.627,0.938,3.632,0.938,5.258,0l16.17-9.321c1.197-0.69,1.197-2.415,0-3.105
				L58.698,69.273c-1.627-0.938-3.631-0.938-5.258,0l-16.17,9.321C36.073,79.285,36.073,81.01,37.27,81.7z"/>
			<g>
				<g>
					<path fill="#E1E6F0" d="M84.792,99.41l16.17-9.321c0.598-0.345,0.898-0.948,0.898-1.553v-4.075L82.163,95.814v4.299
						C83.071,100.113,83.978,99.879,84.792,99.41z"/>
					<path fill="#E1E6F0" d="M37.27,75.048L79.533,99.41c0.814,0.469,1.722,0.703,2.629,0.703v-4.299L36.373,69.42v4.075
						C36.373,74.1,36.671,74.703,37.27,75.048z"/>
				</g>
				<path fill="#FFFFFF" d="M37.27,70.973l42.264,24.361c1.627,0.938,3.632,0.938,5.258,0l16.17-9.32
					c1.197-0.69,1.197-2.416,0-3.106L58.698,58.545c-1.627-0.938-3.631-0.938-5.258,0l-16.17,9.321
					C36.073,68.557,36.073,70.281,37.27,70.973z"/>
			</g>
			<g>
				<polygon fill="#454563" points="102.424,78.505 99.104,75.137 91.161,82.922 95.932,84.867 				"/>
				<path fill="#454563" d="M102.424,78.505c0.931-0.915,0.943-2.411,0.027-3.342c-0.916-0.93-2.415-0.941-3.347-0.026
					c-0.931,0.914-0.943,2.411-0.027,3.341C99.993,79.408,101.492,79.42,102.424,78.505z"/>
			</g>
			<g>
				<polygon fill="#454563" points="78.322,65.872 75.002,62.504 67.059,70.289 71.83,72.234 				"/>
				<path fill="#454563" d="M78.322,65.872c0.932-0.916,0.943-2.411,0.027-3.341c-0.917-0.931-2.415-0.943-3.347-0.027
					c-0.932,0.915-0.943,2.41-0.027,3.341C75.892,66.775,77.39,66.787,78.322,65.872z"/>
			</g>
			<g>
				<path fill="#454563" d="M95.932,84.867L95.932,84.867v-7.38H84.905v2.675C84.905,85.892,91.784,88.827,95.932,84.867z"/>
				<g>
					<g>
						<polygon fill="#FFC891" points="82.189,75.742 84.867,76.748 86.651,72.014 83.974,71.008 						"/>
						<circle fill="#FFC891" cx="83.528" cy="76.245" r="1.43"/>
					</g>
					<g>
						<polygon fill="#FFC891" points="84.872,76.734 82.114,76.025 81.324,82.609 82.4,82.886 						"/>
						<circle fill="#FFC891" cx="83.527" cy="76.245" r="1.43"/>
						<circle fill="#FFC891" cx="81.966" cy="82.321" r="1.217"/>
					</g>
					<path fill="#788ACB" d="M88.47,69.085l-2.189,4.969c-0.315,0.715-1.283,0.982-2.16,0.597c-0.878-0.386-1.334-1.278-1.019-1.994
						l2.189-4.969L88.47,69.085z"/>
				</g>
				<ellipse fill="#FFC891" cx="92.402" cy="58.868" rx="4.158" ry="4.151"/>
				<path fill="#788ACB" d="M92.023,83.755c1.971,1.266,4.563-0.147,4.563-2.487V69.899c0-2.941-3.367-4.728-5.893-4.728
					s-5.789,1.366-5.789,4.203s0,9.809,0,9.809L92.023,83.755z"/>
				<path fill="#FFC891" d="M93.271,62.478l-1.005,3.838c-0.145,0.553-1.015,0.805-1.942,0.562
					c-0.928-0.241-1.563-0.886-1.418-1.438l1.005-3.838L93.271,62.478z"/>
				<g>
					<path fill="#454563" d="M92.134,54.221c0.743,0,1.442,0.179,2.062,0.493c0.391,0.671,0.615,1.449,0.615,2.28
						c0,0.407-0.054,0.801-0.155,1.177c-0.136-0.049-0.282-0.076-0.435-0.076c-0.721,0-1.305,0.583-1.305,1.303
						c0,0.374,0.16,0.711,0.413,0.948c-0.808,0.737-1.884,1.187-3.064,1.187c-0.742,0-1.442-0.179-2.061-0.493
						c-0.391-0.671-0.616-1.449-0.616-2.28C87.589,56.253,89.624,54.221,92.134,54.221z"/>
				</g>
				<g>
					<g>
						
							<rect x="93.924" y="74.99" transform="matrix(-0.9916 0.1297 -0.1297 -0.9916 199.9576 142.0164)" fill="#FFC891" width="2.861" height="5.059"/>
						<circle fill="#FFC891" cx="95.683" cy="80.027" r="1.431"/>
					</g>
					<g>
						<polygon fill="#FFC891" points="97.098,79.822 94.335,80.504 97.231,88.912 98.31,88.646 						"/>
						<circle fill="#FFC891" cx="95.683" cy="80.028" r="1.43"/>
						<circle fill="#FFC891" cx="97.659" cy="88.354" r="1.218"/>
					</g>
					<path fill="#788ACB" d="M96.442,71.405l0.539,5.402c0.077,0.777-0.633,1.484-1.588,1.579c-0.955,0.095-1.792-0.459-1.869-1.236
						l-0.539-5.401L96.442,71.405z"/>
				</g>
			</g>
			<g>
				<path fill="#454563" d="M73.355,68.424L73.355,68.424v-7.381H62.329v2.677C62.329,69.448,69.207,72.384,73.355,68.424z"/>
				<g>
					<g>
						
							<rect x="60.414" y="54.905" transform="matrix(-0.9361 -0.3516 0.3516 -0.9361 99.5415 132.9482)" fill="#FFC891" width="2.86" height="5.06"/>
						<circle fill="#FFC891" cx="60.952" cy="59.802" r="1.43"/>
					</g>
					<g>
						<polygon fill="#FFC891" points="62.295,60.291 59.538,59.582 58.748,66.166 59.824,66.442 						"/>
						<circle fill="#FFC891" cx="60.951" cy="59.802" r="1.43"/>
						<circle fill="#FFC891" cx="59.389" cy="65.877" r="1.217"/>
					</g>
					<path fill="#FFCC5E" d="M65.894,52.642l-2.189,4.969c-0.315,0.715-1.283,0.982-2.161,0.597s-1.334-1.279-1.019-1.994
						l2.189-4.969L65.894,52.642z"/>
				</g>
				<ellipse fill="#FFC891" cx="69.826" cy="42.425" rx="4.157" ry="4.15"/>
				<path fill="#FFCC5E" d="M72.778,73.947c0,0,1.233-17.548,1.233-20.49s-3.368-4.729-5.893-4.729
					c-2.526,0-5.789,1.366-5.789,4.203s-2.809,13.433-2.809,13.433s-0.356,2.021,3.639,4.803
					C67.154,73.947,72.778,73.947,72.778,73.947z"/>
				<path fill="#FFC891" d="M70.695,46.035l-1.005,3.838c-0.145,0.552-1.015,0.804-1.942,0.562
					c-0.928-0.242-1.563-0.887-1.418-1.439l1.004-3.838L70.695,46.035z"/>
				<g>
					<path fill="#454563" d="M69.557,37.777c0.743,0,1.442,0.179,2.062,0.494c0.39,0.67,0.615,1.448,0.615,2.278
						c0,0.407-0.054,0.802-0.155,1.177c-0.136-0.048-0.282-0.075-0.434-0.075c-0.721,0-1.305,0.583-1.305,1.303
						c0,0.374,0.159,0.711,0.413,0.948c-0.809,0.736-1.884,1.186-3.064,1.186c-0.742,0-1.442-0.179-2.062-0.493
						c-0.391-0.67-0.615-1.448-0.615-2.279C65.013,39.809,67.047,37.777,69.557,37.777z"/>
				</g>
				<g>
					<g>
						
							<rect x="71.347" y="58.546" transform="matrix(-0.9916 0.1294 -0.1294 -0.9916 152.8454 112.2239)" fill="#FFC891" width="2.861" height="5.059"/>
						<circle fill="#FFC891" cx="73.106" cy="63.584" r="1.43"/>
					</g>
					<g>
						<polygon fill="#FFC891" points="74.522,63.378 71.758,64.061 74.655,72.469 75.733,72.202 						"/>
						<circle fill="#FFC891" cx="73.107" cy="63.584" r="1.43"/>
						<circle fill="#FFC891" cx="75.083" cy="71.911" r="1.218"/>
					</g>
					<path fill="#FFCC5E" d="M73.866,54.962l0.539,5.401c0.077,0.778-0.634,1.485-1.588,1.58c-0.955,0.095-1.792-0.458-1.869-1.236
						l-0.539-5.401L73.866,54.962z"/>
				</g>
				<path fill="#454563" d="M70.753,43.902c0,0,3.521,3.421,0.481,7.342c-3.04,3.922-9.205,1.76-9.391-1.465
					c-0.185-3.225,3.819-3.491,3.337-6.24C64.698,40.787,70.753,43.902,70.753,43.902z"/>
			</g>
		</g>
	</g>
</g>
</svg>
